<svg width="342" height="300" viewBox="0 0 342 300" fill="none" xmlns="http://www.w3.org/2000/svg">
<rect x="73" y="190" width="169" height="10" rx="2" fill="url(#paint0_linear_788_1903)"/>
<rect x="0.5" y="0.5" width="341" height="299" rx="4.5" stroke="#2F2F2F" stroke-opacity="0.1"/>
<path d="M87.072 120.016V111.888L83.424 116.752H83.008L79.44 111.872V120.016H77.328V108.816H79.76L83.264 113.632L86.768 108.816H89.184V120.016H87.072ZM99.4276 108.816H101.524V115.232C101.524 118.544 99.4916 120.24 96.6756 120.24C93.9876 120.24 91.6996 118.608 91.6996 115.232V108.816H93.7956V115.232C93.7956 117.248 94.9476 118.32 96.6916 118.32C98.4356 118.32 99.4276 117.152 99.4276 115.232V108.816ZM112.383 110.64L110.703 111.504C110.319 110.864 109.263 110.256 108.047 110.256C106.479 110.256 105.727 110.912 105.727 111.744C105.727 112.72 106.879 112.992 108.223 113.152C110.559 113.44 112.735 114.048 112.735 116.72C112.735 119.216 110.527 120.288 108.031 120.288C105.743 120.288 103.983 119.584 103.151 117.536L104.911 116.624C105.407 117.856 106.703 118.4 108.063 118.4C109.391 118.4 110.639 117.936 110.639 116.72C110.639 115.664 109.535 115.232 108.047 115.072C105.759 114.8 103.647 114.192 103.647 111.68C103.647 109.376 105.919 108.432 107.983 108.416C109.727 108.416 111.535 108.912 112.383 110.64ZM122.768 117.136L124.208 118.592C123.056 119.728 121.568 120.256 119.952 120.256C115.792 120.256 114.032 117.392 114.016 114.48C114 111.552 115.904 108.576 119.952 108.576C121.472 108.576 122.912 109.152 124.064 110.288L122.656 111.648C121.92 110.928 120.928 110.592 119.952 110.592C117.248 110.592 116.08 112.608 116.096 114.48C116.112 116.336 117.184 118.272 119.952 118.272C120.928 118.272 122.032 117.872 122.768 117.136ZM133.443 108.816H135.539V115.232C135.539 118.544 133.507 120.24 130.691 120.24C128.003 120.24 125.715 118.608 125.715 115.232V108.816H127.811V115.232C127.811 117.248 128.963 118.32 130.707 118.32C132.451 118.32 133.443 117.152 133.443 115.232V108.816ZM138.047 108.8H140.159V118.048H145.919V120H138.047V108.8ZM156.284 120L155.34 117.888H149.484L148.524 120H146.236L151.26 108.8H153.564L158.588 120H156.284ZM154.492 115.92L152.412 111.152L150.332 115.92H154.492ZM161.48 120V110.72H157.928V108.8C161.16 108.8 163.896 108.8 167.144 108.8V110.72H163.592V120H161.48ZM170.846 120H168.75V108.8H170.846V120ZM178.652 108.576C182.476 108.608 184.38 111.552 184.348 114.464C184.316 117.36 182.54 120.256 178.604 120.256C174.668 120.256 172.844 117.424 172.844 114.48C172.844 110.944 175.404 108.576 178.652 108.576ZM174.924 114.512C174.972 116.352 175.964 118.32 178.604 118.32C181.244 118.32 182.236 116.336 182.268 114.496C182.3 112.624 181.228 110.544 178.652 110.496C176.268 110.496 174.86 112.288 174.924 114.512ZM188.04 108.8L193.992 116.336V108.8H196.104V120H194.392L188.44 112.544V120H186.328V108.8H188.04Z" fill="#2F2F2F"/>
<path d="M79.4556 184.8V188.768H82.6236C85.3276 188.768 85.3116 184.8 82.6236 184.8H79.4556ZM82.6236 190.704H79.4556V194H77.3436V182.8C79.0876 182.8 80.8796 182.784 82.6236 182.784C88.1276 182.784 88.1436 190.656 82.6236 190.704ZM96.8683 191.92V194H88.4843C88.4843 190.272 88.4843 186.528 88.4843 182.8H96.8683V184.848H90.5803V187.424H96.6443V189.392H90.5803V191.92H96.8683ZM109.045 193.856V194H106.629L103.381 190.256H101.237V194H99.1249V182.784C100.901 182.784 102.677 182.8 104.453 182.8C107.093 182.816 108.485 184.576 108.485 186.512C108.485 188.048 107.781 189.6 105.653 190.032L109.045 193.856ZM104.453 184.768H101.237V188.352H104.453C105.797 188.352 106.373 187.456 106.373 186.56C106.373 185.664 105.781 184.768 104.453 184.768ZM113.09 194V184.72H109.538V182.8C112.77 182.8 115.506 182.8 118.754 182.8V184.72H115.202V194H113.09ZM128.743 191.92V194H120.359C120.359 190.272 120.359 186.528 120.359 182.8H128.743V184.848H122.455V187.424H128.519V189.392H122.455V191.92H128.743ZM139.275 182.8C143.115 182.8 144.827 185.536 144.875 188.304C144.923 191.136 143.195 194 139.275 194C137.899 194 136.251 194 134.875 194V182.8C136.251 182.8 137.899 182.8 139.275 182.8ZM136.971 184.8V191.968H139.275C141.819 191.968 142.827 190.112 142.779 188.288C142.731 186.544 141.707 184.8 139.275 184.8H136.971ZM154.475 182.816H156.571V189.232C156.571 192.544 154.539 194.24 151.723 194.24C149.035 194.24 146.747 192.608 146.747 189.232V182.816H148.843V189.232C148.843 191.248 149.995 192.32 151.739 192.32C153.483 192.32 154.475 191.152 154.475 189.232V182.816ZM165.065 184.8V188.768H168.233C170.937 188.768 170.921 184.8 168.233 184.8H165.065ZM168.233 190.704H165.065V194H162.953V182.8C164.697 182.8 166.489 182.784 168.233 182.784C173.737 182.784 173.753 190.656 168.233 190.704ZM179.246 182.576C183.07 182.608 184.974 185.552 184.942 188.464C184.91 191.36 183.134 194.256 179.198 194.256C175.262 194.256 173.438 191.424 173.438 188.48C173.438 184.944 175.998 182.576 179.246 182.576ZM175.518 188.512C175.566 190.352 176.558 192.32 179.198 192.32C181.838 192.32 182.83 190.336 182.862 188.496C182.894 186.624 181.822 184.544 179.246 184.496C176.862 184.496 175.454 186.288 175.518 188.512ZM189.018 194H186.922V182.8H189.018V194ZM196.072 182.8C199.912 182.8 201.624 185.536 201.672 188.304C201.72 191.136 199.992 194 196.072 194C194.696 194 193.048 194 191.672 194V182.8C193.048 182.8 194.696 182.8 196.072 182.8ZM193.768 184.8V191.968H196.072C198.616 191.968 199.624 190.112 199.576 188.288C199.528 186.544 198.504 184.8 196.072 184.8H193.768ZM212.039 184.64L210.359 185.504C209.975 184.864 208.919 184.256 207.703 184.256C206.135 184.256 205.383 184.912 205.383 185.744C205.383 186.72 206.535 186.992 207.879 187.152C210.215 187.44 212.391 188.048 212.391 190.72C212.391 193.216 210.183 194.288 207.687 194.288C205.399 194.288 203.639 193.584 202.807 191.536L204.567 190.624C205.063 191.856 206.359 192.4 207.719 192.4C209.047 192.4 210.295 191.936 210.295 190.72C210.295 189.664 209.191 189.232 207.703 189.072C205.415 188.8 203.303 188.192 203.303 185.68C203.303 183.376 205.575 182.432 207.639 182.416C209.383 182.416 211.191 182.912 212.039 184.64Z" fill="#2F2F2F"/>
<path d="M87.248 267.856V268H84.832L81.584 264.256H79.44V268H77.328V256.784C79.104 256.784 80.88 256.8 82.656 256.8C85.296 256.816 86.688 258.576 86.688 260.512C86.688 262.048 85.984 263.6 83.856 264.032L87.248 267.856ZM82.656 258.768H79.44V262.352H82.656C84 262.352 84.576 261.456 84.576 260.56C84.576 259.664 83.984 258.768 82.656 258.768ZM97.3526 265.92V268H88.9686C88.9686 264.272 88.9686 260.528 88.9686 256.8H97.3526V258.848H91.0646V261.424H97.1286V263.392H91.0646V265.92H97.3526ZM109.881 256.8L105.225 268.048H103.033L98.3773 256.8H100.745L104.121 265.52L107.513 256.8H109.881ZM119.284 268L118.34 265.888H112.484L111.524 268H109.236L114.26 256.8H116.564L121.588 268H119.284ZM117.492 263.92L115.412 259.152L113.332 263.92H117.492ZM122.969 256.8H125.081V266.048H130.841V268H122.969V256.8ZM134.533 268H132.437V256.8H134.533V268ZM141.587 256.8C145.427 256.8 147.139 259.536 147.187 262.304C147.235 265.136 145.507 268 141.587 268C140.211 268 138.563 268 137.187 268V256.8C138.563 256.8 140.211 256.8 141.587 256.8ZM139.283 258.8V265.968H141.587C144.131 265.968 145.139 264.112 145.091 262.288C145.043 260.544 144.019 258.8 141.587 258.8H139.283ZM157.534 268L156.59 265.888H150.734L149.774 268H147.486L152.51 256.8H154.814L159.838 268H157.534ZM155.742 263.92L153.662 259.152L151.582 263.92H155.742ZM162.73 268V258.72H159.178V256.8C162.41 256.8 165.146 256.8 168.394 256.8V258.72H164.842V268H162.73ZM172.096 268H170V256.8H172.096V268ZM179.902 256.576C183.726 256.608 185.63 259.552 185.598 262.464C185.566 265.36 183.79 268.256 179.854 268.256C175.918 268.256 174.094 265.424 174.094 262.48C174.094 258.944 176.654 256.576 179.902 256.576ZM176.174 262.512C176.222 264.352 177.214 266.32 179.854 266.32C182.494 266.32 183.486 264.336 183.518 262.496C183.55 260.624 182.478 258.544 179.902 258.496C177.518 258.496 176.11 260.288 176.174 262.512ZM189.29 256.8L195.242 264.336V256.8H197.354V268H195.642L189.69 260.544V268H187.578V256.8H189.29Z" fill="#2F2F2F"/>
<line x1="73" y1="76.5" x2="300" y2="76.5" stroke="black" stroke-opacity="0.1"/>
<line x1="77" y1="151.5" x2="304" y2="151.5" stroke="black" stroke-opacity="0.1"/>
<line x1="77" y1="225.5" x2="304" y2="225.5" stroke="black" stroke-opacity="0.1"/>
<path d="M79.44 35.8V39.768H82.608C85.312 39.768 85.296 35.8 82.608 35.8H79.44ZM82.608 41.704H79.44V45H77.328V33.8C79.072 33.8 80.864 33.784 82.608 33.784C88.112 33.784 88.128 41.656 82.608 41.704ZM98.3886 44.856V45H95.9726L92.7246 41.256H90.5806V45H88.4686V33.784C90.2446 33.784 92.0206 33.8 93.7966 33.8C96.4366 33.816 97.8286 35.576 97.8286 37.512C97.8286 39.048 97.1246 40.6 94.9966 41.032L98.3886 44.856ZM93.7966 35.768H90.5806V39.352H93.7966C95.1406 39.352 95.7166 38.456 95.7166 37.56C95.7166 36.664 95.1246 35.768 93.7966 35.768ZM105.183 33.576C109.007 33.608 110.911 36.552 110.879 39.464C110.847 42.36 109.071 45.256 105.135 45.256C101.199 45.256 99.3751 42.424 99.3751 39.48C99.3751 35.944 101.935 33.576 105.183 33.576ZM101.455 39.512C101.503 41.352 102.495 43.32 105.135 43.32C107.775 43.32 108.767 41.336 108.799 39.496C108.831 37.624 107.759 35.544 105.183 35.496C102.799 35.496 101.391 37.288 101.455 39.512ZM122.283 35.192L120.971 36.536C120.219 35.816 119.099 35.416 118.123 35.416C115.723 35.416 114.267 37.24 114.267 39.544C114.267 41.384 115.339 43.288 118.123 43.288C119.003 43.288 119.771 43.096 120.651 42.392V40.408H117.787V38.52H122.587V43.24C121.483 44.504 120.091 45.256 118.123 45.256C113.915 45.256 112.203 42.488 112.203 39.544C112.203 36.392 114.171 33.48 118.123 33.48C119.627 33.48 121.131 34.056 122.283 35.192ZM134.67 44.856V45H132.254L129.006 41.256H126.862V45H124.75V33.784C126.526 33.784 128.302 33.8 130.078 33.8C132.718 33.816 134.11 35.576 134.11 37.512C134.11 39.048 133.406 40.6 131.278 41.032L134.67 44.856ZM130.078 35.768H126.862V39.352H130.078C131.422 39.352 131.998 38.456 131.998 37.56C131.998 36.664 131.406 35.768 130.078 35.768ZM145.159 45L144.215 42.888H138.359L137.399 45H135.111L140.135 33.8H142.439L147.463 45H145.159ZM143.367 40.92L141.287 36.152L139.207 40.92H143.367ZM158.588 45.016V36.888L154.94 41.752H154.524L150.956 36.872V45.016H148.844V33.816H151.276L154.78 38.632L158.284 33.816H160.7V45.016H158.588ZM173.103 45.016V36.888L169.455 41.752H169.039L165.471 36.872V45.016H163.359V33.816H165.791L169.295 38.632L172.799 33.816H175.215V45.016H173.103ZM186.259 42.92V45H177.875C177.875 41.272 177.875 37.528 177.875 33.8H186.259V35.848H179.971V38.424H186.035V40.392H179.971V42.92H186.259ZM200.743 35.64L199.062 36.504C198.679 35.864 197.623 35.256 196.407 35.256C194.839 35.256 194.087 35.912 194.087 36.744C194.087 37.72 195.239 37.992 196.583 38.152C198.919 38.44 201.095 39.048 201.095 41.72C201.095 44.216 198.887 45.288 196.391 45.288C194.103 45.288 192.343 44.584 191.511 42.536L193.271 41.624C193.767 42.856 195.062 43.4 196.423 43.4C197.751 43.4 198.999 42.936 198.999 41.72C198.999 40.664 197.895 40.232 196.407 40.072C194.119 39.8 192.007 39.192 192.007 36.68C192.007 34.376 194.279 33.432 196.343 33.416C198.087 33.416 199.895 33.912 200.743 35.64ZM210.6 33.816H212.696V40.232C212.696 43.544 210.664 45.24 207.848 45.24C205.16 45.24 202.872 43.608 202.872 40.232V33.816H204.968V40.232C204.968 42.248 206.12 43.32 207.864 43.32C209.608 43.32 210.6 42.152 210.6 40.232V33.816ZM225.123 44.856V45H222.707L219.459 41.256H217.315V45H215.203V33.784C216.979 33.784 218.755 33.8 220.531 33.8C223.171 33.816 224.563 35.576 224.563 37.512C224.563 39.048 223.859 40.6 221.731 41.032L225.123 44.856ZM220.531 35.768H217.315V39.352H220.531C221.875 39.352 222.451 38.456 222.451 37.56C222.451 36.664 221.859 35.768 220.531 35.768ZM226.508 41.272V39.48H232.412V41.272H226.508ZM244.478 45.016V36.888L240.83 41.752H240.414L236.846 36.872V45.016H234.734V33.816H237.166L240.67 38.632L244.174 33.816H246.59V45.016H244.478ZM257.634 42.92V45H249.25C249.25 41.272 249.25 37.528 249.25 33.8H257.634V35.848H251.346V38.424H257.41V40.392H251.346V42.92H257.634ZM268.243 35.64L266.562 36.504C266.179 35.864 265.123 35.256 263.907 35.256C262.339 35.256 261.587 35.912 261.587 36.744C261.587 37.72 262.739 37.992 264.083 38.152C266.419 38.44 268.595 39.048 268.595 41.72C268.595 44.216 266.387 45.288 263.891 45.288C261.603 45.288 259.843 44.584 259.011 42.536L260.771 41.624C261.267 42.856 262.562 43.4 263.923 43.4C265.251 43.4 266.499 42.936 266.499 41.72C266.499 40.664 265.395 40.232 263.907 40.072C261.619 39.8 259.507 39.192 259.507 36.68C259.507 34.376 261.779 33.432 263.843 33.416C265.587 33.416 267.395 33.912 268.243 35.64ZM278.1 33.816H280.196V40.232C280.196 43.544 278.164 45.24 275.348 45.24C272.66 45.24 270.372 43.608 270.372 40.232V33.816H272.468V40.232C272.468 42.248 273.62 43.32 275.364 43.32C277.108 43.32 278.1 42.152 278.1 40.232V33.816ZM292.623 44.856V45H290.207L286.959 41.256H284.815V45H282.703V33.784C284.479 33.784 286.255 33.8 288.031 33.8C290.671 33.816 292.063 35.576 292.063 37.512C292.063 39.048 291.359 40.6 289.231 41.032L292.623 44.856ZM288.031 35.768H284.815V39.352H288.031C289.375 39.352 289.951 38.456 289.951 37.56C289.951 36.664 289.359 35.768 288.031 35.768ZM302.728 42.92V45H294.344C294.344 41.272 294.344 37.528 294.344 33.8H302.728V35.848H296.44V38.424H302.504V40.392H296.44V42.92H302.728Z" fill="#2F2F2F"/>
<path d="M48.6152 38.8613V46H48.0342V39.5986L46.1006 40.3164V39.7646L48.5176 38.8613H48.6152Z" fill="#FF00AA"/>
<circle cx="48" cy="42" r="8.5" transform="rotate(90 48 42)" stroke="#2F2F2F"/>
<path d="M50.3486 117.497V118H45.9004V117.546L48.2295 114.904C48.5192 114.576 48.7503 114.287 48.9229 114.04C49.0954 113.789 49.2191 113.562 49.2939 113.356C49.3721 113.148 49.4111 112.946 49.4111 112.751C49.4111 112.465 49.3542 112.212 49.2402 111.994C49.1296 111.776 48.9635 111.605 48.7422 111.481C48.5208 111.358 48.2474 111.296 47.9219 111.296C47.5964 111.296 47.3132 111.366 47.0723 111.506C46.8314 111.646 46.6458 111.841 46.5156 112.092C46.3887 112.339 46.3252 112.621 46.3252 112.937H45.7441C45.7441 112.546 45.8304 112.188 46.0029 111.862C46.1787 111.537 46.4294 111.278 46.7549 111.086C47.0804 110.891 47.4694 110.793 47.9219 110.793C48.3516 110.793 48.721 110.869 49.0303 111.022C49.3395 111.172 49.5771 111.389 49.7432 111.672C49.9124 111.955 49.9971 112.297 49.9971 112.697C49.9971 112.912 49.958 113.129 49.8799 113.347C49.805 113.565 49.7008 113.783 49.5674 114.001C49.4372 114.216 49.2874 114.429 49.1182 114.641C48.9521 114.852 48.778 115.061 48.5957 115.266L46.6133 117.497H50.3486Z" fill="#FF00AA"/>
<circle cx="48" cy="115" r="8.5" transform="rotate(90 48 115)" stroke="#2F2F2F"/>
<path d="M47.1992 188.123H47.7949C48.1595 188.123 48.4639 188.061 48.708 187.938C48.9554 187.811 49.141 187.643 49.2646 187.435C49.3916 187.226 49.4551 186.995 49.4551 186.741C49.4551 186.455 49.4014 186.204 49.2939 185.989C49.1865 185.771 49.0221 185.602 48.8008 185.481C48.5827 185.358 48.3027 185.296 47.9609 185.296C47.6615 185.296 47.3945 185.354 47.1602 185.472C46.9258 185.589 46.7402 185.757 46.6035 185.975C46.4668 186.193 46.3984 186.453 46.3984 186.756H45.8174C45.8174 186.368 45.9102 186.028 46.0957 185.735C46.2812 185.439 46.5368 185.208 46.8623 185.042C47.1878 184.876 47.554 184.793 47.9609 184.793C48.3809 184.793 48.7454 184.869 49.0547 185.022C49.3672 185.175 49.6081 185.398 49.7773 185.691C49.9499 185.984 50.0361 186.341 50.0361 186.761C50.0361 186.976 49.9889 187.187 49.8945 187.396C49.8034 187.604 49.6667 187.793 49.4844 187.962C49.3021 188.128 49.0758 188.261 48.8057 188.362C48.5355 188.463 48.2214 188.514 47.8633 188.514H47.1992V188.123ZM47.1992 188.626V188.24H47.8633C48.2702 188.24 48.6185 188.287 48.9082 188.382C49.1979 188.473 49.4355 188.603 49.6211 188.772C49.8099 188.938 49.9482 189.132 50.0361 189.354C50.124 189.575 50.168 189.812 50.168 190.066C50.168 190.392 50.1143 190.68 50.0068 190.931C49.8994 191.181 49.7464 191.395 49.5479 191.57C49.3525 191.743 49.1214 191.875 48.8545 191.966C48.5908 192.054 48.3011 192.098 47.9854 192.098C47.6989 192.098 47.4189 192.055 47.1455 191.971C46.8753 191.886 46.6312 191.761 46.4131 191.595C46.1982 191.425 46.0273 191.214 45.9004 190.96C45.7734 190.703 45.71 190.407 45.71 190.071H46.291C46.291 190.371 46.3626 190.636 46.5059 190.867C46.6491 191.095 46.8477 191.274 47.1016 191.404C47.3587 191.531 47.6533 191.595 47.9854 191.595C48.3206 191.595 48.6071 191.538 48.8447 191.424C49.0856 191.307 49.2695 191.136 49.3965 190.911C49.5234 190.687 49.5869 190.411 49.5869 190.086C49.5869 189.744 49.5104 189.466 49.3574 189.251C49.2077 189.036 48.9977 188.878 48.7275 188.777C48.4606 188.676 48.1497 188.626 47.7949 188.626H47.1992Z" fill="#FF00AA"/>
<circle cx="48" cy="189" r="8.5" transform="rotate(90 48 189)" stroke="#2F2F2F"/>
<path d="M50.5928 262.705V263.203H45.5586V262.866L48.8447 257.891H49.333L48.6396 259.097L46.2715 262.705H50.5928ZM49.4844 257.891V265H48.9033V257.891H49.4844Z" fill="#FF00AA"/>
<circle cx="48" cy="262" r="8.5" transform="rotate(90 48 262)" stroke="#2F2F2F"/>
<path d="M33 115H22C20.8954 115 20 115.895 20 117V260C20 261.105 20.8954 262 22 262H33" stroke="#FF00AA"/>
<path d="M37 189H30C28.8954 189 28 189.895 28 191V260C28 261.105 28.8954 262 30 262H37" stroke="#FF00AA"/>
<path d="M210 264.5L213 267.5L223.5 257" stroke="#FF00AA"/>
<defs>
<linearGradient id="paint0_linear_788_1903" x1="73" y1="195" x2="242" y2="195" gradientUnits="userSpaceOnUse">
<stop stop-color="#6B6B6B" stop-opacity="0.2"/>
<stop offset="1" stop-color="#B1B1B1" stop-opacity="0"/>
</linearGradient>
</defs>
</svg>
