<svg width="339" height="240" viewBox="0 0 339 240" fill="none" xmlns="http://www.w3.org/2000/svg">
<path d="M329.225 173.495V181H327.818V173.495H329.225ZM332.555 175.717L330.26 178.334L329.029 179.579L328.517 178.563L329.493 177.323L330.865 175.717H332.555ZM331.095 181L329.532 178.559L330.504 177.709L332.716 181H331.095ZM336.407 175.717H337.682V180.824C337.682 181.306 337.574 181.715 337.359 182.05C337.148 182.388 336.852 182.644 336.471 182.816C336.09 182.992 335.647 183.08 335.143 183.08C334.921 183.08 334.687 183.051 334.439 182.992C334.195 182.934 333.961 182.842 333.736 182.719C333.515 182.595 333.329 182.439 333.18 182.25L333.8 181.42C333.963 181.609 334.151 181.755 334.366 181.859C334.581 181.967 334.819 182.021 335.079 182.021C335.333 182.021 335.548 181.973 335.724 181.879C335.899 181.788 336.035 181.653 336.129 181.474C336.223 181.298 336.271 181.085 336.271 180.834V176.938L336.407 175.717ZM332.853 178.422V178.319C332.853 177.916 332.901 177.549 332.999 177.221C333.1 176.889 333.242 176.604 333.424 176.366C333.609 176.129 333.834 175.945 334.098 175.814C334.361 175.684 334.659 175.619 334.991 175.619C335.343 175.619 335.637 175.684 335.875 175.814C336.113 175.945 336.308 176.13 336.461 176.371C336.614 176.609 336.733 176.89 336.817 177.216C336.905 177.538 336.974 177.891 337.022 178.275V178.5C336.974 178.868 336.9 179.21 336.803 179.525C336.705 179.841 336.576 180.118 336.417 180.355C336.257 180.59 336.059 180.772 335.821 180.902C335.587 181.033 335.307 181.098 334.981 181.098C334.656 181.098 334.361 181.031 334.098 180.897C333.837 180.764 333.614 180.577 333.429 180.336C333.243 180.095 333.1 179.812 332.999 179.486C332.901 179.161 332.853 178.806 332.853 178.422ZM334.259 178.319V178.422C334.259 178.64 334.28 178.843 334.322 179.032C334.365 179.221 334.43 179.389 334.518 179.535C334.609 179.678 334.721 179.791 334.854 179.872C334.991 179.95 335.152 179.989 335.338 179.989C335.595 179.989 335.805 179.936 335.968 179.828C336.131 179.717 336.253 179.566 336.334 179.374C336.415 179.182 336.463 178.961 336.476 178.71V178.07C336.469 177.865 336.441 177.681 336.393 177.519C336.344 177.353 336.275 177.211 336.188 177.094C336.1 176.977 335.986 176.885 335.846 176.82C335.706 176.755 335.54 176.723 335.348 176.723C335.162 176.723 335.001 176.765 334.864 176.85C334.731 176.931 334.618 177.043 334.527 177.187C334.439 177.33 334.373 177.499 334.327 177.694C334.282 177.886 334.259 178.095 334.259 178.319Z" fill="#2F2F2F"/>
<line x1="49.7715" y1="203" x2="49.7715" y2="-2.18557e-08" stroke="#FF00AA" stroke-opacity="0.2"/>
<line x1="170.5" y1="203" x2="170.5" y2="-2.18557e-08" stroke="url(#paint0_linear_756_2014)" stroke-opacity="0.2"/>
<line x1="289.771" y1="203" x2="289.771" y2="-2.18557e-08" stroke="url(#paint1_linear_756_2014)" stroke-opacity="0.2"/>
<path d="M31.8242 20.6621C31.8242 21.1973 31.6992 21.6484 31.4492 22.0156C31.1992 22.3789 30.8555 22.6543 30.418 22.8418C29.9844 23.0254 29.4922 23.1172 28.9414 23.1172C28.3906 23.1172 27.8965 23.0254 27.459 22.8418C27.0215 22.6543 26.6758 22.3789 26.4219 22.0156C26.168 21.6484 26.041 21.1973 26.041 20.6621C26.041 20.3027 26.1133 19.9785 26.2578 19.6895C26.4023 19.3965 26.6035 19.1465 26.8613 18.9395C27.123 18.7285 27.4297 18.5684 27.7812 18.459C28.1328 18.3457 28.5156 18.2891 28.9297 18.2891C29.4844 18.2891 29.9805 18.3867 30.418 18.582C30.8555 18.7773 31.1992 19.0527 31.4492 19.4082C31.6992 19.7637 31.8242 20.1816 31.8242 20.6621ZM30.125 20.5508C30.125 20.2891 30.0742 20.0645 29.9727 19.877C29.875 19.6855 29.7363 19.5391 29.5566 19.4375C29.377 19.3359 29.168 19.2852 28.9297 19.2852C28.6914 19.2852 28.4824 19.3359 28.3027 19.4375C28.123 19.5391 27.9824 19.6855 27.8809 19.877C27.7832 20.0645 27.7344 20.2891 27.7344 20.5508C27.7344 20.8086 27.7832 21.0312 27.8809 21.2188C27.9824 21.4062 28.123 21.5508 28.3027 21.6523C28.4863 21.75 28.6992 21.7988 28.9414 21.7988C29.1836 21.7988 29.3926 21.75 29.5684 21.6523C29.748 21.5508 29.8848 21.4062 29.9785 21.2188C30.0762 21.0312 30.125 20.8086 30.125 20.5508ZM31.6426 16.7305C31.6426 17.1641 31.5273 17.5488 31.2969 17.8848C31.0664 18.2168 30.7461 18.4766 30.3359 18.6641C29.9297 18.8516 29.4648 18.9453 28.9414 18.9453C28.4141 18.9453 27.9453 18.8516 27.5352 18.6641C27.125 18.4766 26.8047 18.2168 26.5742 17.8848C26.3438 17.5488 26.2285 17.1641 26.2285 16.7305C26.2285 16.2148 26.3438 15.7812 26.5742 15.4297C26.8086 15.0742 27.1289 14.8047 27.5352 14.6211C27.9453 14.4375 28.4102 14.3457 28.9297 14.3457C29.457 14.3457 29.9238 14.4375 30.3301 14.6211C30.7402 14.8047 31.0605 15.0742 31.291 15.4297C31.5254 15.7812 31.6426 16.2148 31.6426 16.7305ZM29.9551 16.8066C29.9551 16.5762 29.9141 16.377 29.832 16.209C29.75 16.0371 29.6328 15.9043 29.4805 15.8105C29.332 15.7168 29.1484 15.6699 28.9297 15.6699C28.7188 15.6699 28.5371 15.7148 28.3848 15.8047C28.2363 15.8945 28.1211 16.0254 28.0391 16.1973C27.9609 16.3652 27.9219 16.5684 27.9219 16.8066C27.9219 17.0371 27.9609 17.2402 28.0391 17.416C28.1211 17.5879 28.2383 17.7227 28.3906 17.8203C28.543 17.918 28.7266 17.9668 28.9414 17.9668C29.1562 17.9668 29.3379 17.918 29.4863 17.8203C29.6387 17.7227 29.7539 17.5879 29.832 17.416C29.9141 17.2402 29.9551 17.0371 29.9551 16.8066ZM34.6953 18.002H35.5977C35.8867 18.002 36.125 17.9531 36.3125 17.8555C36.5 17.7539 36.6387 17.6133 36.7285 17.4336C36.8223 17.25 36.8691 17.0371 36.8691 16.7949C36.8691 16.5762 36.8262 16.3828 36.7402 16.2148C36.6582 16.043 36.5312 15.9102 36.3594 15.8164C36.1875 15.7188 35.9707 15.6699 35.709 15.6699C35.502 15.6699 35.3105 15.7109 35.1348 15.793C34.959 15.875 34.8184 15.9902 34.7129 16.1387C34.6074 16.2871 34.5547 16.4668 34.5547 16.6777H32.8613C32.8613 16.209 32.9863 15.8008 33.2363 15.4531C33.4902 15.1055 33.8301 14.834 34.2559 14.6387C34.6816 14.4434 35.1504 14.3457 35.6621 14.3457C36.2402 14.3457 36.7461 14.4395 37.1797 14.627C37.6133 14.8105 37.9512 15.082 38.1934 15.4414C38.4355 15.8008 38.5566 16.2461 38.5566 16.7773C38.5566 17.0469 38.4941 17.3086 38.3691 17.5625C38.2441 17.8125 38.0645 18.0391 37.8301 18.2422C37.5996 18.4414 37.3184 18.6016 36.9863 18.7227C36.6543 18.8398 36.2812 18.8984 35.8672 18.8984H34.6953V18.002ZM34.6953 19.2852V18.4121H35.8672C36.332 18.4121 36.7402 18.4648 37.0918 18.5703C37.4434 18.6758 37.7383 18.8281 37.9766 19.0273C38.2148 19.2227 38.3945 19.4551 38.5156 19.7246C38.6367 19.9902 38.6973 20.2852 38.6973 20.6094C38.6973 21.0078 38.6211 21.3633 38.4688 21.6758C38.3164 21.9844 38.1016 22.2461 37.8242 22.4609C37.5508 22.6758 37.2305 22.8398 36.8633 22.9531C36.4961 23.0625 36.0957 23.1172 35.6621 23.1172C35.3027 23.1172 34.9492 23.0684 34.6016 22.9707C34.2578 22.8691 33.9453 22.7188 33.6641 22.5195C33.3867 22.3164 33.1641 22.0625 32.9961 21.7578C32.832 21.4492 32.75 21.084 32.75 20.6621H34.4434C34.4434 20.8809 34.498 21.0762 34.6074 21.248C34.7168 21.4199 34.8672 21.5547 35.0586 21.6523C35.2539 21.75 35.4707 21.7988 35.709 21.7988C35.9785 21.7988 36.209 21.75 36.4004 21.6523C36.5957 21.5508 36.7441 21.4102 36.8457 21.2305C36.9512 21.0469 37.0039 20.834 37.0039 20.5918C37.0039 20.2793 36.9473 20.0293 36.834 19.8418C36.7207 19.6504 36.5586 19.5098 36.3477 19.4199C36.1367 19.3301 35.8867 19.2852 35.5977 19.2852H34.6953Z" fill="#2F2F2F"/>
<path d="M230.859 93.5872C239.434 93.2674 290 154.983 290 154.983V186H49V21C49 21 99.8613 80.7965 104.297 82.3953C108.733 83.9942 150.427 80.7965 157.82 82.3953C165.212 83.9942 174.675 108.232 182.067 108.936C189.46 109.64 208.977 108.936 212.525 108.936C216.074 108.936 222.283 93.907 230.859 93.5872Z" fill="url(#paint2_linear_756_2014)"/>
<path d="M231.083 93.4138C239.614 93.0948 289.921 154.663 289.921 154.663V185.606H50.1555V21C50.1555 21 100.756 80.6537 105.169 82.2487C109.582 83.8437 151.063 80.6537 158.418 82.2487C165.772 83.8437 175.187 108.024 182.541 108.726C189.896 109.428 209.313 108.726 212.843 108.726C216.373 108.726 222.551 93.7328 231.083 93.4138Z" fill="url(#paint3_linear_756_2014)"/>
<path d="M289 154C289 154 239.295 93.8239 230.763 94.2143C222.231 94.6047 216.272 108.857 212.741 108.857C209.211 108.857 190.321 109.212 182.967 108.352C175.612 107.493 165.248 84.5532 157.893 82.601C150.538 80.6488 110.248 84.0483 105.835 82.0961C101.422 80.1438 50.1554 21 50.1554 21" stroke="#FF00AA" stroke-width="2" stroke-linecap="round" stroke-linejoin="round"/>
<line x1="45" y1="20.5" x2="299" y2="20.5" stroke="url(#paint4_linear_756_2014)" stroke-opacity="0.1"/>
<line x1="45" y1="109.5" x2="299" y2="109.5" stroke="url(#paint5_linear_756_2014)" stroke-opacity="0.1"/>
<path d="M197.771 112.153C195.81 112.153 194.271 110.523 194.271 108.576C194.271 106.63 195.81 105 197.771 105C199.733 105 201.271 106.63 201.271 108.576C201.271 110.523 199.733 112.153 197.771 112.153Z" fill="white" stroke="url(#paint6_linear_756_2014)" stroke-width="2"/>
<path d="M7.66016 143.268L7.53125 143.268C6.70703 143.268 5.95898 143.182 5.28711 143.01C4.61523 142.834 4.02539 142.604 3.51758 142.318C3.00586 142.029 2.58203 141.715 2.24609 141.375C1.91016 141.035 1.66797 140.697 1.51953 140.361L2.41016 140.039C2.57422 140.262 2.80078 140.48 3.08984 140.695C3.375 140.91 3.72656 141.105 4.14453 141.281C4.55859 141.453 5.04687 141.592 5.60937 141.697C6.16797 141.803 6.80469 141.855 7.51953 141.855L7.67187 141.855C8.38672 141.855 9.02539 141.803 9.58789 141.697C10.1465 141.592 10.6348 141.453 11.0527 141.281C11.4746 141.105 11.8301 140.91 12.1191 140.695C12.4082 140.48 12.6367 140.262 12.8047 140.039L13.6719 140.361C13.5234 140.697 13.2812 141.035 12.9453 141.375C12.6133 141.715 12.1914 142.029 11.6797 142.318C11.1719 142.604 10.582 142.834 9.91016 143.01C9.23437 143.182 8.48437 143.268 7.66016 143.268ZM5.87891 137.461L13.4375 137.461L13.4375 139.148L4.66016 139.148L4.66016 137.584L5.87891 137.461ZM7.75977 133.447L7.88281 133.447C8.34375 133.447 8.77148 133.502 9.16602 133.611C9.56055 133.717 9.9043 133.873 10.1973 134.08C10.4863 134.287 10.7129 134.545 10.877 134.854C11.0371 135.158 11.1172 135.51 11.1172 135.908C11.1172 136.295 11.0391 136.631 10.8828 136.916C10.7266 137.201 10.5078 137.441 10.2266 137.637C9.94141 137.828 9.61133 137.982 9.23633 138.1C8.86133 138.217 8.45898 138.307 8.0293 138.369L7.70703 138.369C7.24609 138.307 6.82422 138.217 6.44141 138.1C6.05469 137.982 5.7207 137.828 5.43945 137.637C5.1543 137.441 4.93359 137.203 4.77734 136.922C4.62109 136.637 4.54297 136.303 4.54297 135.92C4.54297 135.518 4.61914 135.164 4.77148 134.859C4.92383 134.551 5.14258 134.293 5.42773 134.086C5.71289 133.875 6.05273 133.717 6.44727 133.611C6.8418 133.502 7.2793 133.447 7.75977 133.447ZM7.88281 135.141L7.75977 135.141C7.49023 135.141 7.24219 135.164 7.01562 135.211C6.78516 135.254 6.58398 135.324 6.41211 135.422C6.24023 135.516 6.10742 135.641 6.01367 135.797C5.91602 135.949 5.86719 136.135 5.86719 136.354C5.86719 136.584 5.9043 136.781 5.97852 136.945C6.05273 137.105 6.16016 137.236 6.30078 137.338C6.44141 137.439 6.60937 137.516 6.80469 137.566C7 137.617 7.2207 137.648 7.4668 137.66L8.28125 137.66C8.57031 137.641 8.83008 137.586 9.06055 137.496C9.28711 137.406 9.4668 137.268 9.59961 137.08C9.73242 136.893 9.79883 136.646 9.79883 136.342C9.79883 136.119 9.75 135.932 9.65234 135.779C9.55078 135.627 9.41211 135.504 9.23633 135.41C9.06055 135.312 8.85742 135.244 8.62695 135.205C8.39648 135.162 8.14844 135.141 7.88281 135.141ZM7.89453 132.668L7.77148 132.668C7.30664 132.668 6.87891 132.602 6.48828 132.469C6.09375 132.336 5.75195 132.143 5.46289 131.889C5.17383 131.635 4.94922 131.322 4.78906 130.951C4.625 130.58 4.54297 130.154 4.54297 129.674C4.54297 129.193 4.625 128.766 4.78906 128.391C4.94922 128.016 5.17383 127.701 5.46289 127.447C5.75195 127.189 6.09375 126.994 6.48828 126.861C6.87891 126.729 7.30664 126.662 7.77148 126.662L7.89453 126.662C8.35547 126.662 8.7832 126.729 9.17773 126.861C9.56836 126.994 9.91016 127.189 10.2031 127.447C10.4922 127.701 10.7168 128.014 10.877 128.385C11.0371 128.756 11.1172 129.182 11.1172 129.662C11.1172 130.143 11.0371 130.57 10.877 130.945C10.7168 131.316 10.4922 131.631 10.2031 131.889C9.91016 132.143 9.56836 132.336 9.17773 132.469C8.7832 132.602 8.35547 132.668 7.89453 132.668ZM7.77148 130.98L7.89453 130.98C8.16016 130.98 8.4082 130.957 8.63867 130.91C8.86914 130.863 9.07227 130.789 9.24805 130.687C9.41992 130.582 9.55469 130.445 9.65234 130.277C9.75 130.109 9.79883 129.904 9.79883 129.662C9.79883 129.428 9.75 129.227 9.65234 129.059C9.55469 128.891 9.41992 128.756 9.24805 128.654C9.07226 128.553 8.86914 128.479 8.63867 128.432C8.4082 128.381 8.16016 128.355 7.89453 128.355L7.77148 128.355C7.51367 128.355 7.27148 128.381 7.04492 128.432C6.81445 128.479 6.61133 128.555 6.43555 128.66C6.25586 128.762 6.11523 128.896 6.01367 129.064C5.91211 129.232 5.86133 129.436 5.86133 129.674C5.86133 129.912 5.91211 130.115 6.01367 130.283C6.11523 130.447 6.25586 130.582 6.43555 130.687C6.61133 130.789 6.81445 130.863 7.04492 130.91C7.27148 130.957 7.51367 130.98 7.77148 130.98ZM4.66016 123.844L11 123.844L11 125.537L4.66016 125.537L4.66016 123.844ZM3.00781 125.643C2.76172 125.643 2.55859 125.557 2.39844 125.385C2.23828 125.213 2.1582 124.982 2.1582 124.693C2.1582 124.408 2.23828 124.18 2.39844 124.008C2.55859 123.832 2.76172 123.744 3.00781 123.744C3.25391 123.744 3.45703 123.832 3.61719 124.008C3.77734 124.18 3.85742 124.408 3.85742 124.693C3.85742 124.982 3.77734 125.213 3.61719 125.385C3.45703 125.557 3.25391 125.643 3.00781 125.643ZM9.61719 118.705L2 118.705L2 117.006L11 117.006L11 118.535L9.61719 118.705ZM7.90625 122.713L7.7832 122.713C7.29883 122.713 6.85937 122.658 6.46484 122.549C6.06641 122.439 5.72461 122.279 5.43945 122.068C5.1543 121.857 4.93359 121.598 4.77734 121.289C4.62109 120.98 4.54297 120.629 4.54297 120.234C4.54297 119.863 4.62109 119.539 4.77734 119.262C4.93359 118.98 5.15625 118.742 5.44531 118.547C5.73047 118.348 6.06836 118.187 6.45898 118.066C6.8457 117.945 7.26953 117.857 7.73047 117.803L8 117.803C8.44141 117.857 8.85156 117.945 9.23047 118.066C9.60937 118.187 9.94141 118.348 10.2266 118.547C10.5078 118.742 10.7266 118.98 10.8828 119.262C11.0391 119.543 11.1172 119.871 11.1172 120.246C11.1172 120.641 11.0371 120.992 10.877 121.301C10.7168 121.605 10.4922 121.863 10.2031 122.074C9.91406 122.281 9.57422 122.439 9.18359 122.549C8.79297 122.658 8.36719 122.713 7.90625 122.713ZM7.7832 121.025L7.90625 121.025C8.16797 121.025 8.41211 121.006 8.63867 120.967C8.86523 120.924 9.06641 120.855 9.24219 120.762C9.41406 120.664 9.54883 120.539 9.64648 120.387C9.74023 120.23 9.78711 120.041 9.78711 119.818C9.78711 119.529 9.72266 119.291 9.59375 119.104C9.46094 118.916 9.2793 118.773 9.04883 118.676C8.81836 118.574 8.55273 118.516 8.25195 118.5L7.48437 118.5C7.23828 118.512 7.01758 118.547 6.82226 118.605C6.62305 118.66 6.45312 118.742 6.3125 118.852C6.17187 118.957 6.0625 119.09 5.98437 119.25C5.90625 119.406 5.86719 119.592 5.86719 119.807C5.86719 120.025 5.91797 120.213 6.01953 120.369C6.11719 120.525 6.25195 120.652 6.42383 120.75C6.5957 120.844 6.79883 120.914 7.0332 120.961C7.26367 121.004 7.51367 121.025 7.7832 121.025ZM9.24805 112.26C9.12695 112.26 9.01758 112.295 8.91992 112.365C8.82226 112.436 8.73242 112.566 8.65039 112.758C8.56445 112.945 8.48633 113.217 8.41601 113.572C8.3457 113.893 8.25781 114.191 8.15234 114.469C8.04297 114.742 7.91211 114.98 7.75976 115.184C7.60742 115.383 7.42773 115.539 7.2207 115.652C7.00976 115.766 6.76953 115.822 6.5 115.822C6.23437 115.822 5.98437 115.766 5.75 115.652C5.51562 115.535 5.30859 115.369 5.1289 115.154C4.94531 114.936 4.80273 114.67 4.70117 114.357C4.5957 114.041 4.54297 113.686 4.54297 113.291C4.54297 112.74 4.63086 112.268 4.80664 111.873C4.98242 111.475 5.22461 111.17 5.5332 110.959C5.83789 110.744 6.18555 110.637 6.57617 110.637L6.57617 112.324C6.41211 112.324 6.26562 112.359 6.13672 112.43C6.0039 112.496 5.90039 112.602 5.82617 112.746C5.74805 112.887 5.70898 113.07 5.70898 113.297C5.70898 113.484 5.74219 113.646 5.80859 113.783C5.87109 113.92 5.95703 114.025 6.0664 114.1C6.17187 114.17 6.28906 114.205 6.41797 114.205C6.51562 114.205 6.60351 114.186 6.68164 114.146C6.75586 114.104 6.82422 114.035 6.88672 113.941C6.94922 113.848 7.00781 113.727 7.0625 113.578C7.11328 113.426 7.16015 113.238 7.20312 113.016C7.29687 112.559 7.41992 112.15 7.57226 111.791C7.7207 111.432 7.92383 111.146 8.18164 110.936C8.43555 110.725 8.76953 110.619 9.18359 110.619C9.46484 110.619 9.72265 110.682 9.95703 110.807C10.1914 110.932 10.3965 111.111 10.5723 111.346C10.7441 111.58 10.8789 111.861 10.9766 112.189C11.0703 112.514 11.1172 112.879 11.1172 113.285C11.1172 113.875 11.0117 114.375 10.8008 114.785C10.5898 115.191 10.3223 115.5 9.99805 115.711C9.66992 115.918 9.33398 116.021 8.99023 116.021L8.99023 114.422C9.2207 114.414 9.40625 114.355 9.54687 114.246C9.6875 114.133 9.78906 113.99 9.85156 113.818C9.91406 113.643 9.94531 113.453 9.94531 113.25C9.94531 113.031 9.91601 112.85 9.85742 112.705C9.79492 112.561 9.71289 112.451 9.61133 112.377C9.50586 112.299 9.38476 112.26 9.24805 112.26ZM11.1172 103.617C11.1172 104.109 11.0391 104.551 10.8828 104.941C10.7227 105.332 10.502 105.664 10.2207 105.937C9.93945 106.207 9.61328 106.414 9.24219 106.559C8.86719 106.703 8.46875 106.775 8.04687 106.775L7.8125 106.775C7.33203 106.775 6.89258 106.707 6.49414 106.57C6.0957 106.434 5.75 106.238 5.45703 105.984C5.16406 105.727 4.93945 105.414 4.7832 105.047C4.62305 104.68 4.54297 104.266 4.54297 103.805C4.54297 103.355 4.61719 102.957 4.76562 102.609C4.91406 102.262 5.125 101.971 5.39844 101.736C5.67187 101.498 6 101.318 6.38281 101.197C6.76172 101.076 7.18359 101.016 7.64844 101.016L8.35156 101.016L8.35156 106.055L7.22656 106.055L7.22656 102.674L7.09765 102.674C6.86328 102.674 6.6543 102.717 6.4707 102.803C6.2832 102.885 6.13476 103.01 6.02539 103.178C5.91601 103.346 5.86133 103.561 5.86133 103.822C5.86133 104.045 5.91015 104.236 6.00781 104.396C6.10547 104.557 6.24219 104.687 6.41797 104.789C6.59375 104.887 6.80078 104.961 7.03906 105.012C7.27344 105.059 7.53125 105.082 7.8125 105.082L8.04687 105.082C8.30078 105.082 8.53515 105.047 8.75 104.977C8.96484 104.902 9.15039 104.799 9.30664 104.666C9.46289 104.529 9.58398 104.365 9.66992 104.174C9.75586 103.979 9.79883 103.758 9.79883 103.512C9.79883 103.207 9.74023 102.924 9.62305 102.662C9.50195 102.396 9.32031 102.168 9.07812 101.977L9.96875 101.156C10.1602 101.289 10.3437 101.471 10.5195 101.701C10.6953 101.928 10.8398 102.201 10.9531 102.521C11.0625 102.842 11.1172 103.207 11.1172 103.617ZM6.01367 98.4023L11 98.4023L11 100.09L4.66015 100.09L4.66015 98.5078L6.01367 98.4023ZM7.60742 98.6484L7.60742 99.1055C7.13867 99.1055 6.71679 99.0449 6.34179 98.9238C5.96289 98.8027 5.64062 98.6328 5.375 98.4141C5.10547 98.1953 4.90039 97.9355 4.75976 97.6348C4.61523 97.3301 4.54297 96.9902 4.54297 96.6152C4.54297 96.3184 4.58594 96.0469 4.67187 95.8008C4.75781 95.5547 4.89453 95.3437 5.08203 95.168C5.26953 94.9883 5.51758 94.8516 5.82617 94.7578C6.13476 94.6602 6.51172 94.6113 6.95703 94.6113L11 94.6113L11 96.3105L6.95117 96.3105C6.66992 96.3105 6.45117 96.3496 6.29492 96.4277C6.13867 96.5059 6.02929 96.6211 5.96679 96.7734C5.90039 96.9219 5.86719 97.1055 5.86719 97.3242C5.86719 97.5508 5.91211 97.748 6.00195 97.916C6.09179 98.0801 6.21679 98.2168 6.37695 98.3262C6.5332 98.4316 6.71679 98.5117 6.92773 98.5664C7.13867 98.6211 7.36523 98.6484 7.60742 98.6484ZM1.99414 88.6523L11 88.6523L11 90.3398L1.99414 90.3398L1.99414 88.6523ZM4.66015 84.6562L7.80078 87.4102L9.29492 88.8867L8.07617 89.502L6.58789 88.3301L4.66015 86.6836L4.66015 84.6562ZM11 86.4082L8.07031 88.2832L7.05078 87.1172L11 84.4629L11 86.4082ZM4.66015 80.0332L4.66015 78.5039L10.7891 78.5039C11.3672 78.5039 11.8574 78.6328 12.2598 78.8906C12.666 79.1445 12.9727 79.5 13.1797 79.957C13.3906 80.4141 13.4961 80.9453 13.4961 81.5508C13.4961 81.8164 13.4609 82.0977 13.3906 82.3945C13.3203 82.6875 13.2109 82.9687 13.0625 83.2383C12.9141 83.5039 12.7266 83.7266 12.5 83.9062L11.5039 83.1621C11.7305 82.9668 11.9062 82.7402 12.0312 82.4824C12.1602 82.2246 12.2246 81.9395 12.2246 81.627C12.2246 81.3223 12.168 81.0645 12.0547 80.8535C11.9453 80.6426 11.7832 80.4805 11.5684 80.3672C11.3574 80.2539 11.1016 80.1973 10.8008 80.1973L6.125 80.1973L4.66015 80.0332ZM7.90625 84.2988L7.7832 84.2988C7.29883 84.2988 6.85937 84.2402 6.46484 84.123C6.0664 84.002 5.72461 83.832 5.43945 83.6133C5.15429 83.3906 4.93359 83.1211 4.77734 82.8047C4.62109 82.4883 4.54297 82.1309 4.54297 81.7324C4.54297 81.3105 4.62109 80.957 4.77734 80.6719C4.93359 80.3867 5.15625 80.1523 5.44531 79.9687C5.73047 79.7852 6.06836 79.6426 6.45898 79.541C6.8457 79.4355 7.26953 79.3535 7.73047 79.2949L8 79.2949C8.4414 79.3535 8.85156 79.4414 9.23047 79.5586C9.60937 79.6758 9.9414 79.8301 10.2266 80.0215C10.5078 80.2129 10.7266 80.4512 10.8828 80.7363C11.0391 81.0176 11.1172 81.3535 11.1172 81.7441C11.1172 82.1348 11.0371 82.4883 10.877 82.8047C10.7168 83.1172 10.4922 83.3848 10.2031 83.6074C9.91406 83.8301 9.57422 84.002 9.18359 84.123C8.79297 84.2402 8.36718 84.2988 7.90625 84.2988ZM7.7832 82.6113L7.90625 82.6113C8.16797 82.6113 8.41211 82.5859 8.63867 82.5352C8.86523 82.4844 9.0664 82.4062 9.24218 82.3008C9.41406 82.1914 9.54883 82.0566 9.64648 81.8965C9.74023 81.7324 9.78711 81.5391 9.78711 81.3164C9.78711 81.0078 9.72265 80.7559 9.59375 80.5605C9.46093 80.3652 9.27929 80.2187 9.04883 80.1211C8.81836 80.0234 8.55273 79.9668 8.25195 79.9512L7.48437 79.9512C7.23828 79.959 7.01758 79.9922 6.82226 80.0508C6.62304 80.1094 6.45312 80.1914 6.3125 80.2969C6.17187 80.4023 6.0625 80.5391 5.98437 80.707C5.90625 80.875 5.86718 81.0742 5.86718 81.3047C5.86718 81.5273 5.91797 81.7207 6.01953 81.8848C6.11718 82.0449 6.25195 82.1797 6.42383 82.2891C6.5957 82.3945 6.79883 82.4746 7.0332 82.5293C7.26367 82.584 7.51367 82.6113 7.7832 82.6113ZM7.53125 74.291L7.66015 74.291C8.45703 74.291 9.1914 74.3809 9.86328 74.5605C10.5312 74.7402 11.123 74.9785 11.6387 75.2754C12.1582 75.5684 12.5898 75.8906 12.9336 76.2422C13.2773 76.5898 13.5234 76.9375 13.6719 77.2852L12.8047 77.6133C12.6406 77.3906 12.4141 77.1738 12.125 76.9629C11.8359 76.748 11.4805 76.5527 11.0586 76.377C10.6406 76.2012 10.1504 76.0625 9.58789 75.9609C9.02539 75.8555 8.38672 75.8027 7.67187 75.8027L7.51953 75.8027C6.80468 75.8027 6.16601 75.8555 5.60351 75.9609C5.04101 76.0664 4.55078 76.209 4.13281 76.3887C3.71093 76.5645 3.35742 76.7598 3.07226 76.9746C2.7832 77.1855 2.55664 77.3984 2.39258 77.6133L1.51953 77.2852C1.66797 76.9375 1.91601 76.5898 2.26367 76.2422C2.60742 75.8906 3.03711 75.5684 3.55273 75.2754C4.06836 74.9785 4.66211 74.7402 5.33398 74.5605C6.00195 74.3809 6.73437 74.291 7.53125 74.291Z" fill="#2F2F2F"/>
<path d="M197.732 81.625V82.75L193.264 93H191.084L195.553 83.25H189.771V81.625H197.732ZM206.779 89.8906C206.779 90.599 206.613 91.1979 206.279 91.6875C205.951 92.1719 205.501 92.5391 204.928 92.7891C204.36 93.0339 203.714 93.1562 202.99 93.1562C202.271 93.1562 201.623 93.0339 201.045 92.7891C200.472 92.5391 200.016 92.1719 199.678 91.6875C199.344 91.1979 199.178 90.599 199.178 89.8906C199.178 89.4167 199.271 88.987 199.459 88.6016C199.652 88.2161 199.917 87.8854 200.256 87.6094C200.594 87.3281 200.995 87.1146 201.459 86.9688C201.923 86.8177 202.428 86.7422 202.975 86.7422C203.704 86.7422 204.355 86.875 204.928 87.1406C205.506 87.401 205.959 87.7682 206.287 88.2422C206.615 88.7109 206.779 89.2604 206.779 89.8906ZM204.701 89.7656C204.701 89.401 204.628 89.0859 204.482 88.8203C204.342 88.5495 204.141 88.3411 203.881 88.1953C203.62 88.0495 203.318 87.9766 202.975 87.9766C202.626 87.9766 202.321 88.0495 202.061 88.1953C201.805 88.3411 201.605 88.5495 201.459 88.8203C201.318 89.0859 201.248 89.401 201.248 89.7656C201.248 90.1354 201.318 90.4531 201.459 90.7188C201.605 90.9792 201.808 91.1797 202.068 91.3203C202.329 91.4609 202.636 91.5312 202.99 91.5312C203.344 91.5312 203.649 91.4609 203.904 91.3203C204.16 91.1797 204.355 90.9792 204.49 90.7188C204.631 90.4531 204.701 90.1354 204.701 89.7656ZM206.529 84.625C206.529 85.1979 206.378 85.7083 206.076 86.1562C205.774 86.599 205.355 86.9453 204.818 87.1953C204.287 87.4453 203.678 87.5703 202.99 87.5703C202.303 87.5703 201.688 87.4453 201.146 87.1953C200.61 86.9453 200.188 86.599 199.881 86.1562C199.579 85.7083 199.428 85.1979 199.428 84.625C199.428 83.9479 199.581 83.375 199.889 82.9062C200.196 82.4323 200.615 82.0729 201.146 81.8281C201.683 81.5833 202.292 81.4609 202.975 81.4609C203.667 81.4609 204.282 81.5833 204.818 81.8281C205.355 82.0729 205.774 82.4323 206.076 82.9062C206.378 83.375 206.529 83.9479 206.529 84.625ZM204.467 84.7109C204.467 84.388 204.407 84.1068 204.287 83.8672C204.167 83.6224 203.995 83.4323 203.771 83.2969C203.553 83.1615 203.287 83.0938 202.975 83.0938C202.673 83.0938 202.412 83.1589 202.193 83.2891C201.975 83.4193 201.805 83.6068 201.686 83.8516C201.566 84.0911 201.506 84.3776 201.506 84.7109C201.506 85.0391 201.566 85.3255 201.686 85.5703C201.805 85.8151 201.975 86.0078 202.193 86.1484C202.417 86.2839 202.683 86.3516 202.99 86.3516C203.298 86.3516 203.561 86.2839 203.779 86.1484C203.998 86.0078 204.167 85.8151 204.287 85.5703C204.407 85.3255 204.467 85.0391 204.467 84.7109ZM211.89 85.4951V93H210.484V85.4951H211.89ZM215.22 87.7168L212.925 90.334L211.695 91.5791L211.182 90.5635L212.159 89.3232L213.531 87.7168H215.22ZM213.76 93L212.198 90.5586L213.17 89.709L215.381 93H213.76ZM219.073 87.7168H220.347V92.8242C220.347 93.306 220.24 93.7145 220.025 94.0498C219.813 94.3883 219.517 94.6439 219.136 94.8164C218.755 94.9922 218.313 95.0801 217.808 95.0801C217.587 95.0801 217.352 95.0508 217.105 94.9922C216.861 94.9336 216.627 94.8424 216.402 94.7188C216.181 94.5951 215.995 94.4388 215.845 94.25L216.465 93.4199C216.628 93.6087 216.817 93.7552 217.032 93.8594C217.247 93.9668 217.484 94.0205 217.745 94.0205C217.999 94.0205 218.213 93.9733 218.389 93.8789C218.565 93.7878 218.7 93.6527 218.795 93.4736C218.889 93.2979 218.936 93.0846 218.936 92.834V88.9375L219.073 87.7168ZM215.518 90.4219V90.3193C215.518 89.9157 215.567 89.5495 215.665 89.2207C215.766 88.8887 215.907 88.6038 216.089 88.3662C216.275 88.1286 216.5 87.9447 216.763 87.8145C217.027 87.6842 217.325 87.6191 217.657 87.6191C218.008 87.6191 218.303 87.6842 218.541 87.8145C218.778 87.9447 218.974 88.1302 219.127 88.3711C219.28 88.6087 219.398 88.8903 219.483 89.2158C219.571 89.5381 219.639 89.8913 219.688 90.2754V90.5C219.639 90.8678 219.566 91.2096 219.468 91.5254C219.371 91.8411 219.242 92.1178 219.083 92.3555C218.923 92.5898 218.725 92.7721 218.487 92.9023C218.253 93.0326 217.973 93.0977 217.647 93.0977C217.322 93.0977 217.027 93.0309 216.763 92.8975C216.503 92.764 216.28 92.5768 216.094 92.3359C215.909 92.0951 215.766 91.8118 215.665 91.4863C215.567 91.1608 215.518 90.806 215.518 90.4219ZM216.924 90.3193V90.4219C216.924 90.64 216.946 90.8434 216.988 91.0322C217.03 91.221 217.095 91.3887 217.183 91.5352C217.274 91.6784 217.387 91.7907 217.52 91.8721C217.657 91.9502 217.818 91.9893 218.004 91.9893C218.261 91.9893 218.471 91.9355 218.633 91.8281C218.796 91.7174 218.918 91.5661 219 91.374C219.081 91.182 219.128 90.9606 219.141 90.71V90.0703C219.135 89.8652 219.107 89.6813 219.058 89.5186C219.009 89.3525 218.941 89.2109 218.853 89.0938C218.765 88.9766 218.651 88.8854 218.511 88.8203C218.371 88.7552 218.205 88.7227 218.013 88.7227C217.828 88.7227 217.667 88.765 217.53 88.8496C217.396 88.931 217.284 89.0433 217.193 89.1865C217.105 89.3298 217.038 89.499 216.993 89.6943C216.947 89.8864 216.924 90.0947 216.924 90.3193Z" fill="#FF00AA"/>
<path d="M31.8711 103.469V104.377L28.5723 112H26.791L30.0898 104.787H25.8418V103.469H31.8711ZM38.7148 109.662C38.7148 110.197 38.5898 110.648 38.3398 111.016C38.0898 111.379 37.7461 111.654 37.3086 111.842C36.875 112.025 36.3828 112.117 35.832 112.117C35.2812 112.117 34.7871 112.025 34.3496 111.842C33.9121 111.654 33.5664 111.379 33.3125 111.016C33.0586 110.648 32.9316 110.197 32.9316 109.662C32.9316 109.303 33.0039 108.979 33.1484 108.689C33.293 108.396 33.4941 108.146 33.752 107.939C34.0137 107.729 34.3203 107.568 34.6719 107.459C35.0234 107.346 35.4062 107.289 35.8203 107.289C36.375 107.289 36.8711 107.387 37.3086 107.582C37.7461 107.777 38.0898 108.053 38.3398 108.408C38.5898 108.764 38.7148 109.182 38.7148 109.662ZM37.0156 109.551C37.0156 109.289 36.9648 109.064 36.8633 108.877C36.7656 108.686 36.627 108.539 36.4473 108.438C36.2676 108.336 36.0586 108.285 35.8203 108.285C35.582 108.285 35.373 108.336 35.1934 108.438C35.0137 108.539 34.873 108.686 34.7715 108.877C34.6738 109.064 34.625 109.289 34.625 109.551C34.625 109.809 34.6738 110.031 34.7715 110.219C34.873 110.406 35.0137 110.551 35.1934 110.652C35.377 110.75 35.5898 110.799 35.832 110.799C36.0742 110.799 36.2832 110.75 36.459 110.652C36.6387 110.551 36.7754 110.406 36.8691 110.219C36.9668 110.031 37.0156 109.809 37.0156 109.551ZM38.5332 105.73C38.5332 106.164 38.418 106.549 38.1875 106.885C37.957 107.217 37.6367 107.477 37.2266 107.664C36.8203 107.852 36.3555 107.945 35.832 107.945C35.3047 107.945 34.8359 107.852 34.4258 107.664C34.0156 107.477 33.6953 107.217 33.4648 106.885C33.2344 106.549 33.1191 106.164 33.1191 105.73C33.1191 105.215 33.2344 104.781 33.4648 104.43C33.6992 104.074 34.0195 103.805 34.4258 103.621C34.8359 103.438 35.3008 103.346 35.8203 103.346C36.3477 103.346 36.8145 103.438 37.2207 103.621C37.6309 103.805 37.9512 104.074 38.1816 104.43C38.416 104.781 38.5332 105.215 38.5332 105.73ZM36.8457 105.807C36.8457 105.576 36.8047 105.377 36.7227 105.209C36.6406 105.037 36.5234 104.904 36.3711 104.811C36.2227 104.717 36.0391 104.67 35.8203 104.67C35.6094 104.67 35.4277 104.715 35.2754 104.805C35.127 104.895 35.0117 105.025 34.9297 105.197C34.8516 105.365 34.8125 105.568 34.8125 105.807C34.8125 106.037 34.8516 106.24 34.9297 106.416C35.0117 106.588 35.1289 106.723 35.2812 106.82C35.4336 106.918 35.6172 106.967 35.832 106.967C36.0469 106.967 36.2285 106.918 36.377 106.82C36.5293 106.723 36.6445 106.588 36.7227 106.416C36.8047 106.24 36.8457 106.037 36.8457 105.807Z" fill="#2F2F2F"/>
<path d="M305.57 173.891V175.932H300.229V173.891H305.57ZM312.281 166.742V181H309.693V169.76L306.266 170.893V168.803L311.988 166.742H312.281ZM324.48 172.67V175.062C324.48 176.156 324.37 177.09 324.148 177.865C323.927 178.64 323.608 179.275 323.191 179.77C322.775 180.258 322.277 180.619 321.697 180.854C321.118 181.081 320.473 181.195 319.764 181.195C319.197 181.195 318.67 181.124 318.182 180.98C317.693 180.831 317.254 180.603 316.863 180.297C316.479 179.984 316.147 179.587 315.867 179.105C315.594 178.624 315.382 178.048 315.232 177.377C315.089 176.706 315.018 175.935 315.018 175.062V172.67C315.018 171.576 315.128 170.645 315.35 169.877C315.577 169.109 315.9 168.48 316.316 167.992C316.733 167.504 317.231 167.149 317.811 166.928C318.39 166.7 319.035 166.586 319.744 166.586C320.317 166.586 320.844 166.658 321.326 166.801C321.814 166.944 322.251 167.169 322.635 167.475C323.025 167.774 323.357 168.165 323.631 168.646C323.904 169.122 324.113 169.695 324.256 170.365C324.406 171.029 324.48 171.798 324.48 172.67ZM321.902 175.414V172.309C321.902 171.762 321.87 171.286 321.805 170.883C321.746 170.473 321.658 170.124 321.541 169.838C321.424 169.551 321.277 169.32 321.102 169.145C320.926 168.962 320.724 168.829 320.496 168.744C320.268 168.66 320.018 168.617 319.744 168.617C319.406 168.617 319.103 168.686 318.836 168.822C318.569 168.952 318.344 169.161 318.162 169.447C317.98 169.734 317.84 170.115 317.742 170.59C317.651 171.059 317.605 171.632 317.605 172.309V175.414C317.605 175.961 317.635 176.439 317.693 176.85C317.758 177.26 317.85 177.611 317.967 177.904C318.09 178.197 318.237 178.438 318.406 178.627C318.582 178.809 318.784 178.946 319.012 179.037C319.24 179.122 319.49 179.164 319.764 179.164C320.109 179.164 320.411 179.096 320.672 178.959C320.939 178.822 321.163 178.607 321.346 178.314C321.528 178.015 321.665 177.628 321.756 177.152C321.854 176.671 321.902 176.091 321.902 175.414Z" fill="#2F2F2F"/>
<path d="M31.8711 179.469V180.377L28.5723 188H26.791L30.0898 180.787H25.8418V179.469H31.8711ZM34.6953 183.002H35.5977C35.8867 183.002 36.125 182.953 36.3125 182.855C36.5 182.754 36.6387 182.613 36.7285 182.434C36.8223 182.25 36.8691 182.037 36.8691 181.795C36.8691 181.576 36.8262 181.383 36.7402 181.215C36.6582 181.043 36.5312 180.91 36.3594 180.816C36.1875 180.719 35.9707 180.67 35.709 180.67C35.502 180.67 35.3105 180.711 35.1348 180.793C34.959 180.875 34.8184 180.99 34.7129 181.139C34.6074 181.287 34.5547 181.467 34.5547 181.678H32.8613C32.8613 181.209 32.9863 180.801 33.2363 180.453C33.4902 180.105 33.8301 179.834 34.2559 179.639C34.6816 179.443 35.1504 179.346 35.6621 179.346C36.2402 179.346 36.7461 179.439 37.1797 179.627C37.6133 179.811 37.9512 180.082 38.1934 180.441C38.4355 180.801 38.5566 181.246 38.5566 181.777C38.5566 182.047 38.4941 182.309 38.3691 182.562C38.2441 182.812 38.0645 183.039 37.8301 183.242C37.5996 183.441 37.3184 183.602 36.9863 183.723C36.6543 183.84 36.2812 183.898 35.8672 183.898H34.6953V183.002ZM34.6953 184.285V183.412H35.8672C36.332 183.412 36.7402 183.465 37.0918 183.57C37.4434 183.676 37.7383 183.828 37.9766 184.027C38.2148 184.223 38.3945 184.455 38.5156 184.725C38.6367 184.99 38.6973 185.285 38.6973 185.609C38.6973 186.008 38.6211 186.363 38.4688 186.676C38.3164 186.984 38.1016 187.246 37.8242 187.461C37.5508 187.676 37.2305 187.84 36.8633 187.953C36.4961 188.062 36.0957 188.117 35.6621 188.117C35.3027 188.117 34.9492 188.068 34.6016 187.971C34.2578 187.869 33.9453 187.719 33.6641 187.52C33.3867 187.316 33.1641 187.062 32.9961 186.758C32.832 186.449 32.75 186.084 32.75 185.662H34.4434C34.4434 185.881 34.498 186.076 34.6074 186.248C34.7168 186.42 34.8672 186.555 35.0586 186.652C35.2539 186.75 35.4707 186.799 35.709 186.799C35.9785 186.799 36.209 186.75 36.4004 186.652C36.5957 186.551 36.7441 186.41 36.8457 186.23C36.9512 186.047 37.0039 185.834 37.0039 185.592C37.0039 185.279 36.9473 185.029 36.834 184.842C36.7207 184.65 36.5586 184.51 36.3477 184.42C36.1367 184.33 35.8867 184.285 35.5977 184.285H34.6953Z" fill="#2F2F2F"/>
<line x1="45.2715" y1="185.5" x2="289.271" y2="185.5" stroke="#FF00AA" stroke-opacity="0.1"/>
<path d="M50.9707 208.451V217H49.2832V210.396L47.2559 211.041V209.711L50.7891 208.451H50.9707Z" fill="#2F2F2F"/>
<path d="M173.693 215.682V217H167.857V215.875L170.617 212.916C170.895 212.607 171.113 212.336 171.273 212.102C171.434 211.863 171.549 211.65 171.619 211.463C171.693 211.271 171.73 211.09 171.73 210.918C171.73 210.66 171.688 210.439 171.602 210.256C171.516 210.068 171.389 209.924 171.221 209.822C171.057 209.721 170.854 209.67 170.611 209.67C170.354 209.67 170.131 209.732 169.943 209.857C169.76 209.982 169.619 210.156 169.521 210.379C169.428 210.602 169.381 210.854 169.381 211.135H167.688C167.688 210.627 167.809 210.162 168.051 209.74C168.293 209.314 168.635 208.977 169.076 208.727C169.518 208.473 170.041 208.346 170.646 208.346C171.244 208.346 171.748 208.443 172.158 208.639C172.572 208.83 172.885 209.107 173.096 209.471C173.311 209.83 173.418 210.26 173.418 210.76C173.418 211.041 173.373 211.316 173.283 211.586C173.193 211.852 173.064 212.117 172.896 212.383C172.732 212.645 172.533 212.91 172.299 213.18C172.064 213.449 171.805 213.729 171.52 214.018L170.037 215.682H173.693Z" fill="#2F2F2F"/>
<path d="M289.586 212.002H290.488C290.777 212.002 291.016 211.953 291.203 211.855C291.391 211.754 291.529 211.613 291.619 211.434C291.713 211.25 291.76 211.037 291.76 210.795C291.76 210.576 291.717 210.383 291.631 210.215C291.549 210.043 291.422 209.91 291.25 209.816C291.078 209.719 290.861 209.67 290.6 209.67C290.393 209.67 290.201 209.711 290.025 209.793C289.85 209.875 289.709 209.99 289.604 210.139C289.498 210.287 289.445 210.467 289.445 210.678H287.752C287.752 210.209 287.877 209.801 288.127 209.453C288.381 209.105 288.721 208.834 289.146 208.639C289.572 208.443 290.041 208.346 290.553 208.346C291.131 208.346 291.637 208.439 292.07 208.627C292.504 208.811 292.842 209.082 293.084 209.441C293.326 209.801 293.447 210.246 293.447 210.777C293.447 211.047 293.385 211.309 293.26 211.562C293.135 211.812 292.955 212.039 292.721 212.242C292.49 212.441 292.209 212.602 291.877 212.723C291.545 212.84 291.172 212.898 290.758 212.898H289.586V212.002ZM289.586 213.285V212.412H290.758C291.223 212.412 291.631 212.465 291.982 212.57C292.334 212.676 292.629 212.828 292.867 213.027C293.105 213.223 293.285 213.455 293.406 213.725C293.527 213.99 293.588 214.285 293.588 214.609C293.588 215.008 293.512 215.363 293.359 215.676C293.207 215.984 292.992 216.246 292.715 216.461C292.441 216.676 292.121 216.84 291.754 216.953C291.387 217.062 290.986 217.117 290.553 217.117C290.193 217.117 289.84 217.068 289.492 216.971C289.148 216.869 288.836 216.719 288.555 216.52C288.277 216.316 288.055 216.062 287.887 215.758C287.723 215.449 287.641 215.084 287.641 214.662H289.334C289.334 214.881 289.389 215.076 289.498 215.248C289.607 215.42 289.758 215.555 289.949 215.652C290.145 215.75 290.361 215.799 290.6 215.799C290.869 215.799 291.1 215.75 291.291 215.652C291.486 215.551 291.635 215.41 291.736 215.23C291.842 215.047 291.895 214.834 291.895 214.592C291.895 214.279 291.838 214.029 291.725 213.842C291.611 213.65 291.449 213.51 291.238 213.42C291.027 213.33 290.777 213.285 290.488 213.285H289.586Z" fill="#2F2F2F"/>
<path d="M154.732 233.66V233.531C154.732 232.707 154.818 231.959 154.99 231.287C155.166 230.615 155.396 230.025 155.682 229.518C155.971 229.006 156.285 228.582 156.625 228.246C156.965 227.91 157.303 227.668 157.639 227.52L157.961 228.41C157.738 228.574 157.52 228.801 157.305 229.09C157.09 229.375 156.895 229.727 156.719 230.145C156.547 230.559 156.408 231.047 156.303 231.609C156.197 232.168 156.145 232.805 156.145 233.52V233.672C156.145 234.387 156.197 235.025 156.303 235.588C156.408 236.146 156.547 236.635 156.719 237.053C156.895 237.475 157.09 237.83 157.305 238.119C157.52 238.408 157.738 238.637 157.961 238.805L157.639 239.672C157.303 239.523 156.965 239.281 156.625 238.945C156.285 238.613 155.971 238.191 155.682 237.68C155.396 237.172 155.166 236.582 154.99 235.91C154.818 235.234 154.732 234.484 154.732 233.66ZM160.539 231.973V237H158.846V230.66H160.434L160.539 231.973ZM160.305 233.607H159.836C159.836 233.166 159.889 232.76 159.994 232.389C160.104 232.014 160.262 231.689 160.469 231.416C160.68 231.139 160.939 230.924 161.248 230.771C161.557 230.619 161.914 230.543 162.32 230.543C162.602 230.543 162.859 230.586 163.094 230.672C163.328 230.754 163.529 230.885 163.697 231.064C163.869 231.24 164.002 231.471 164.096 231.756C164.189 232.037 164.236 232.375 164.236 232.77V237H162.549V232.957C162.549 232.668 162.51 232.445 162.432 232.289C162.354 232.133 162.242 232.023 162.098 231.961C161.957 231.898 161.787 231.867 161.588 231.867C161.369 231.867 161.178 231.912 161.014 232.002C160.854 232.092 160.721 232.217 160.615 232.377C160.51 232.533 160.432 232.717 160.381 232.928C160.33 233.139 160.305 233.365 160.305 233.607ZM164.078 233.414L163.475 233.49C163.475 233.076 163.525 232.691 163.627 232.336C163.732 231.98 163.887 231.668 164.09 231.398C164.297 231.129 164.553 230.92 164.857 230.771C165.162 230.619 165.514 230.543 165.912 230.543C166.217 230.543 166.494 230.588 166.744 230.678C166.994 230.764 167.207 230.902 167.383 231.094C167.562 231.281 167.699 231.527 167.793 231.832C167.891 232.137 167.939 232.51 167.939 232.951V237H166.246V232.951C166.246 232.658 166.207 232.436 166.129 232.283C166.055 232.127 165.945 232.02 165.801 231.961C165.66 231.898 165.492 231.867 165.297 231.867C165.094 231.867 164.916 231.908 164.764 231.99C164.611 232.068 164.484 232.178 164.383 232.318C164.281 232.459 164.205 232.623 164.154 232.811C164.104 232.994 164.078 233.195 164.078 233.414ZM168.977 233.895V233.771C168.977 233.307 169.043 232.879 169.176 232.488C169.309 232.094 169.502 231.752 169.756 231.463C170.01 231.174 170.322 230.949 170.693 230.789C171.064 230.625 171.49 230.543 171.971 230.543C172.451 230.543 172.879 230.625 173.254 230.789C173.629 230.949 173.943 231.174 174.197 231.463C174.455 231.752 174.65 232.094 174.783 232.488C174.916 232.879 174.982 233.307 174.982 233.771V233.895C174.982 234.355 174.916 234.783 174.783 235.178C174.65 235.568 174.455 235.91 174.197 236.203C173.943 236.492 173.631 236.717 173.26 236.877C172.889 237.037 172.463 237.117 171.982 237.117C171.502 237.117 171.074 237.037 170.699 236.877C170.328 236.717 170.014 236.492 169.756 236.203C169.502 235.91 169.309 235.568 169.176 235.178C169.043 234.783 168.977 234.355 168.977 233.895ZM170.664 233.771V233.895C170.664 234.16 170.688 234.408 170.734 234.639C170.781 234.869 170.855 235.072 170.957 235.248C171.062 235.42 171.199 235.555 171.367 235.652C171.535 235.75 171.74 235.799 171.982 235.799C172.217 235.799 172.418 235.75 172.586 235.652C172.754 235.555 172.889 235.42 172.99 235.248C173.092 235.072 173.166 234.869 173.213 234.639C173.264 234.408 173.289 234.16 173.289 233.895V233.771C173.289 233.514 173.264 233.271 173.213 233.045C173.166 232.814 173.09 232.611 172.984 232.436C172.883 232.256 172.748 232.115 172.58 232.014C172.412 231.912 172.209 231.861 171.971 231.861C171.732 231.861 171.529 231.912 171.361 232.014C171.197 232.115 171.062 232.256 170.957 232.436C170.855 232.611 170.781 232.814 170.734 233.045C170.688 233.271 170.664 233.514 170.664 233.771ZM177.801 230.66V237H176.107V230.66H177.801ZM176.002 229.008C176.002 228.762 176.088 228.559 176.26 228.398C176.432 228.238 176.662 228.158 176.951 228.158C177.236 228.158 177.465 228.238 177.637 228.398C177.812 228.559 177.9 228.762 177.9 229.008C177.9 229.254 177.812 229.457 177.637 229.617C177.465 229.777 177.236 229.857 176.951 229.857C176.662 229.857 176.432 229.777 176.26 229.617C176.088 229.457 176.002 229.254 176.002 229.008ZM182.623 235.248C182.623 235.127 182.588 235.018 182.518 234.92C182.447 234.822 182.316 234.732 182.125 234.65C181.938 234.564 181.666 234.486 181.311 234.416C180.99 234.346 180.691 234.258 180.414 234.152C180.141 234.043 179.902 233.912 179.699 233.76C179.5 233.607 179.344 233.428 179.23 233.221C179.117 233.01 179.061 232.77 179.061 232.5C179.061 232.234 179.117 231.984 179.23 231.75C179.348 231.516 179.514 231.309 179.729 231.129C179.947 230.945 180.213 230.803 180.525 230.701C180.842 230.596 181.197 230.543 181.592 230.543C182.143 230.543 182.615 230.631 183.01 230.807C183.408 230.982 183.713 231.225 183.924 231.533C184.139 231.838 184.246 232.186 184.246 232.576H182.559C182.559 232.412 182.523 232.266 182.453 232.137C182.387 232.004 182.281 231.9 182.137 231.826C181.996 231.748 181.812 231.709 181.586 231.709C181.398 231.709 181.236 231.742 181.1 231.809C180.963 231.871 180.857 231.957 180.783 232.066C180.713 232.172 180.678 232.289 180.678 232.418C180.678 232.516 180.697 232.604 180.736 232.682C180.779 232.756 180.848 232.824 180.941 232.887C181.035 232.949 181.156 233.008 181.305 233.062C181.457 233.113 181.645 233.16 181.867 233.203C182.324 233.297 182.732 233.42 183.092 233.572C183.451 233.721 183.736 233.924 183.947 234.182C184.158 234.436 184.264 234.77 184.264 235.184C184.264 235.465 184.201 235.723 184.076 235.957C183.951 236.191 183.771 236.396 183.537 236.572C183.303 236.744 183.021 236.879 182.693 236.977C182.369 237.07 182.004 237.117 181.598 237.117C181.008 237.117 180.508 237.012 180.098 236.801C179.691 236.59 179.383 236.322 179.172 235.998C178.965 235.67 178.861 235.334 178.861 234.99H180.461C180.469 235.221 180.527 235.406 180.637 235.547C180.75 235.688 180.893 235.789 181.064 235.852C181.24 235.914 181.43 235.945 181.633 235.945C181.852 235.945 182.033 235.916 182.178 235.857C182.322 235.795 182.432 235.713 182.506 235.611C182.584 235.506 182.623 235.385 182.623 235.248ZM188.26 233.531V233.66C188.26 234.457 188.17 235.191 187.99 235.863C187.811 236.531 187.572 237.123 187.275 237.639C186.982 238.158 186.66 238.59 186.309 238.934C185.961 239.277 185.613 239.523 185.266 239.672L184.938 238.805C185.16 238.641 185.377 238.414 185.588 238.125C185.803 237.836 185.998 237.48 186.174 237.059C186.35 236.641 186.488 236.15 186.59 235.588C186.695 235.025 186.748 234.387 186.748 233.672V233.52C186.748 232.805 186.695 232.166 186.59 231.604C186.484 231.041 186.342 230.551 186.162 230.133C185.986 229.711 185.791 229.357 185.576 229.072C185.365 228.783 185.152 228.557 184.938 228.393L185.266 227.52C185.613 227.668 185.961 227.916 186.309 228.264C186.66 228.607 186.982 229.037 187.275 229.553C187.572 230.068 187.811 230.662 187.99 231.334C188.17 232.002 188.26 232.734 188.26 233.531Z" fill="#2F2F2F"/>
<defs>
<linearGradient id="paint0_linear_756_2014" x1="171.5" y1="20.7366" x2="171.5" y2="203" gradientUnits="userSpaceOnUse">
<stop stop-color="#FF00AA" stop-opacity="0"/>
<stop offset="1" stop-color="#FF00AA"/>
</linearGradient>
<linearGradient id="paint1_linear_756_2014" x1="290.771" y1="2.18557e-08" x2="290.771" y2="203" gradientUnits="userSpaceOnUse">
<stop stop-color="#FF00AA" stop-opacity="0"/>
<stop offset="1" stop-color="#FF00AA"/>
</linearGradient>
<linearGradient id="paint2_linear_756_2014" x1="137.416" y1="60.9709" x2="42.631" y2="202.376" gradientUnits="userSpaceOnUse">
<stop stop-color="#FF6849" stop-opacity="0.1"/>
<stop offset="1" stop-color="#FF6849" stop-opacity="0"/>
</linearGradient>
<linearGradient id="paint3_linear_756_2014" x1="138.119" y1="60.8755" x2="43.4616" y2="201.702" gradientUnits="userSpaceOnUse">
<stop stop-color="#FF00AA" stop-opacity="0.1"/>
<stop offset="1" stop-color="#FF00AA" stop-opacity="0"/>
</linearGradient>
<linearGradient id="paint4_linear_756_2014" x1="299" y1="21.5" x2="45" y2="21.5" gradientUnits="userSpaceOnUse">
<stop stop-color="#FF00AA" stop-opacity="0"/>
<stop offset="1" stop-color="#FF00AA"/>
</linearGradient>
<linearGradient id="paint5_linear_756_2014" x1="232.687" y1="110.5" x2="45" y2="110.5" gradientUnits="userSpaceOnUse">
<stop stop-color="#FF00AA" stop-opacity="0"/>
<stop offset="1" stop-color="#FF00AA"/>
</linearGradient>
<linearGradient id="paint6_linear_756_2014" x1="197.771" y1="106" x2="197.771" y2="182" gradientUnits="userSpaceOnUse">
<stop stop-color="#FF00AA"/>
<stop offset="1" stop-color="#FF00AA" stop-opacity="0"/>
</linearGradient>
</defs>
</svg>
