<svg width="25" height="26" viewBox="0 0 25 26" fill="none" xmlns="http://www.w3.org/2000/svg">
<path d="M7.56579 0.117188C3.39894 0.117188 0 3.51613 0 7.68297V17.5514C0 21.7177 3.39882 25.1172 7.56579 25.1172H17.4342C21.6006 25.1172 25 21.7178 25 17.5514V7.68297C25 3.51601 21.6005 0.117188 17.4342 0.117188H7.56579ZM7.56579 2.09087H17.4342C20.5337 2.09087 23.0263 4.58284 23.0263 7.68297V17.5514C23.0263 20.6508 20.5336 23.1435 17.4342 23.1435H7.56579C4.46565 23.1435 1.97368 20.6509 1.97368 17.5514V7.68297C1.97368 4.58272 4.46553 2.09087 7.56579 2.09087ZM19.0789 4.72245C18.352 4.72245 17.7632 5.31126 17.7632 6.03824C17.7632 6.76521 18.352 7.35403 19.0789 7.35403C19.8059 7.35403 20.3947 6.76521 20.3947 6.03824C20.3947 5.31126 19.8059 4.72245 19.0789 4.72245ZM12.5 6.03824C8.87841 6.03824 5.92105 8.99559 5.92105 12.6172C5.92105 16.2388 8.87841 19.1961 12.5 19.1961C16.1216 19.1961 19.0789 16.2388 19.0789 12.6172C19.0789 8.99559 16.1216 6.03824 12.5 6.03824ZM12.5 8.01192C15.0547 8.01192 17.1053 10.0625 17.1053 12.6172C17.1053 15.1719 15.0547 17.2224 12.5 17.2224C9.94528 17.2224 7.89474 15.1719 7.89474 12.6172C7.89474 10.0625 9.94528 8.01192 12.5 8.01192Z" fill="#FF00AA"/>
</svg>
