<svg width="84" height="52" viewBox="0 0 84 52" fill="none" xmlns="http://www.w3.org/2000/svg">
<path d="M59.456 22.368L58.096 23.28C57.568 22.512 56.496 22.048 55.328 22.032C53.824 22.032 52.736 22.656 52.736 23.728C52.736 24.816 53.984 25.12 55.456 25.328C57.76 25.648 59.952 26.288 59.952 28.8C59.936 31.312 57.648 32.256 55.312 32.256C53.168 32.256 51.52 31.6 50.496 29.712L51.84 28.816C52.64 30.176 54.032 30.656 55.328 30.656C56.672 30.656 58.16 30.208 58.16 28.8C58.16 27.584 56.864 27.168 55.296 26.96C53.072 26.656 50.96 26.096 50.96 23.696C50.944 21.376 53.264 20.48 55.28 20.48C56.896 20.48 58.512 20.864 59.456 22.368ZM63.7465 27.04V30.336H67.1065C68.0985 30.336 69.4745 30.016 69.4745 28.784C69.4745 27.584 68.1465 27.04 67.1225 27.04C65.9865 27.04 64.8825 27.04 63.7465 27.04ZM63.7465 22.416V25.44H67.1225C68.4665 25.44 69.1385 24.912 69.1385 24.032C69.1385 23.248 68.4505 22.416 67.1065 22.416H63.7465ZM61.9705 20.8H67.1065C69.2345 20.8 70.9145 21.776 70.9145 24C70.9145 24.944 70.4185 25.792 69.3625 26.224C70.7065 26.624 71.2665 27.952 71.2665 28.8C71.2665 31.248 69.3145 32 67.1065 32C65.3625 32 63.7145 32 61.9705 32V20.8ZM82.7676 22.224L81.6476 23.376C80.8476 22.592 79.6636 22.176 78.6236 22.176C75.9996 22.176 74.4796 24.144 74.4956 26.512C74.4956 28.56 75.7116 30.544 78.6236 30.544C79.5836 30.544 80.4636 30.304 81.3596 29.552V27.28H78.2396V25.68H83.0236V30.272C81.9036 31.504 80.5116 32.224 78.6236 32.224C74.5116 32.224 72.7356 29.488 72.7356 26.512C72.7356 23.28 74.7996 20.528 78.6236 20.528C80.1116 20.528 81.6156 21.088 82.7676 22.224Z" fill="#2F2F2F"/>
<path d="M3.58524 40.7285H2.89209C1.84301 40.7285 1 39.8872 1 38.8403V14.2007C1 13.1538 1.84301 12.3125 2.89209 12.3125H3.58524C4.63432 12.3125 5.47733 13.1538 5.47733 14.2007V38.8216C5.47733 39.8685 4.63432 40.7285 3.58524 40.7285Z" stroke="#2F2F2F" stroke-width="0.4" stroke-miterlimit="10"/>
<path d="M8.98023 44.3958H7.59395C6.43246 44.3958 5.47705 43.4424 5.47705 42.2833V10.7453C5.47705 9.58624 6.43246 8.63281 7.59395 8.63281H8.98023C10.1417 8.63281 11.0971 9.58624 11.0971 10.7453V42.2833C11.1159 43.4424 10.1605 44.3958 8.98023 44.3958Z" stroke="#2F2F2F" stroke-width="0.4" stroke-miterlimit="10"/>
<path d="M23.82 25.0234H11.1187V28.0146H23.82V25.0234Z" stroke="#2F2F2F" stroke-width="0.4" stroke-miterlimit="10"/>
<path d="M31.3496 40.7285H32.0428C33.0918 40.7285 33.9348 39.8872 33.9348 38.8403V14.2007C33.9348 13.1538 33.0918 12.3125 32.0428 12.3125H31.3496C30.3005 12.3125 29.4575 13.1538 29.4575 14.2007V38.8216C29.4575 39.8685 30.3005 40.7285 31.3496 40.7285Z" stroke="#2F2F2F" stroke-miterlimit="10"/>
<path d="M25.9362 44.3958H27.3225C28.484 44.3958 29.4394 43.4424 29.4394 42.2833V10.7453C29.4394 9.58624 28.484 8.63281 27.3225 8.63281H25.9362C24.7747 8.63281 23.8193 9.58624 23.8193 10.7453V42.2833C23.8193 43.4424 24.7747 44.3958 25.9362 44.3958Z" stroke="#2F2F2F" stroke-miterlimit="10"/>
<path d="M23.8188 10.6465V1" stroke="#2F2F2F" stroke-miterlimit="10" stroke-linecap="round"/>
<path d="M33.9331 38.9297V50.2774C33.9331 50.913 33.3711 51.4178 32.6592 51.4178H27.9008C27.2077 51.4178 26.627 50.913 26.627 50.2774V49.1744" stroke="#2F2F2F" stroke-miterlimit="10" stroke-linecap="round"/>
<path d="M19.997 15.6472V9.51538C19.997 8.87976 19.435 8.375 18.7232 8.375H16.2129C15.5197 8.375 14.939 8.87976 14.939 9.51538V18.7319C14.939 18.788 14.9577 18.844 14.9764 18.9001L16.4377 22.9195" stroke="#FF00AA" stroke-width="2" stroke-miterlimit="10" stroke-linecap="round"/>
<path d="M14.939 36.7792V42.911C14.939 43.5466 15.501 44.0514 16.2129 44.0514H18.7419C19.435 44.0514 20.0158 43.5466 20.0158 42.911V33.6945C20.0158 33.6384 19.997 33.5824 19.9783 33.5263L19.1355 31.1172" stroke="#FF00AA" stroke-width="2" stroke-miterlimit="10" stroke-linecap="round"/>
</svg>
