<svg width="26" height="26" viewBox="0 0 26 26" fill="none" xmlns="http://www.w3.org/2000/svg">
<path d="M8.21748 0.4375C4.00823 0.4375 0.574707 3.87711 0.574707 8.09382V18.0803C0.574707 22.2965 4.00811 25.7366 8.21748 25.7366H18.1863C22.3951 25.7366 25.8291 22.2966 25.8291 18.0803V8.09382C25.8291 3.87699 22.395 0.4375 18.1863 0.4375H8.21748ZM8.21748 2.4348H18.1863C21.3173 2.4348 23.8353 4.95658 23.8353 8.09382V18.0803C23.8353 21.2168 21.3172 23.7393 18.1863 23.7393H8.21748C5.0858 23.7393 2.56847 21.2169 2.56847 18.0803V8.09382C2.56847 4.95646 5.08568 2.4348 8.21748 2.4348ZM19.8478 5.09787C19.1134 5.09787 18.5186 5.69373 18.5186 6.4294C18.5186 7.16507 19.1134 7.76093 19.8478 7.76093C20.5822 7.76093 21.177 7.16507 21.177 6.4294C21.177 5.69373 20.5822 5.09787 19.8478 5.09787ZM13.2019 6.4294C9.54345 6.4294 6.55601 9.42214 6.55601 13.0871C6.55601 16.752 9.54345 19.7447 13.2019 19.7447C16.8603 19.7447 19.8478 16.752 19.8478 13.0871C19.8478 9.42214 16.8603 6.4294 13.2019 6.4294ZM13.2019 8.4267C15.7826 8.4267 17.854 10.5018 17.854 13.0871C17.854 15.6724 15.7826 17.7474 13.2019 17.7474C10.6212 17.7474 8.54977 15.6724 8.54977 13.0871C8.54977 10.5018 10.6212 8.4267 13.2019 8.4267Z" fill="white"/>
</svg>
