<svg width="101" height="31" viewBox="0 0 101 31" fill="none" xmlns="http://www.w3.org/2000/svg">
<path d="M100.354 16.3536C100.549 16.1583 100.549 15.8417 100.354 15.6464L97.1716 12.4645C96.9763 12.2692 96.6597 12.2692 96.4645 12.4645C96.2692 12.6597 96.2692 12.9763 96.4645 13.1716L99.2929 16L96.4645 18.8284C96.2692 19.0237 96.2692 19.3403 96.4645 19.5355C96.6597 19.7308 96.9763 19.7308 97.1716 19.5355L100.354 16.3536ZM66 16.5H100V15.5H66V16.5Z" fill="white"/>
<path d="M6.28906 18.8438C6.28906 18.6146 6.23177 18.388 6.11719 18.1641C6.0026 17.9401 5.78125 17.7344 5.45312 17.5469C5.13021 17.3594 4.65365 17.2005 4.02344 17.0703C3.55469 16.9661 3.13542 16.849 2.76562 16.7188C2.40104 16.5885 2.09375 16.4323 1.84375 16.25C1.59375 16.0677 1.40365 15.849 1.27344 15.5938C1.14323 15.3385 1.07812 15.0365 1.07812 14.6875C1.07812 14.375 1.14583 14.0807 1.28125 13.8047C1.42188 13.5234 1.61979 13.2786 1.875 13.0703C2.13542 12.8568 2.44792 12.6901 2.8125 12.5703C3.18229 12.4505 3.59635 12.3906 4.05469 12.3906C4.70573 12.3906 5.26302 12.5026 5.72656 12.7266C6.19531 12.9453 6.55208 13.2448 6.79688 13.625C7.04688 14.0052 7.17188 14.4349 7.17188 14.9141H6.24219C6.24219 14.6224 6.15625 14.3464 5.98438 14.0859C5.81771 13.8255 5.57031 13.612 5.24219 13.4453C4.91927 13.2786 4.52344 13.1953 4.05469 13.1953C3.57031 13.1953 3.17708 13.2682 2.875 13.4141C2.57292 13.5599 2.35156 13.7448 2.21094 13.9688C2.07552 14.1927 2.00781 14.4245 2.00781 14.6641C2.00781 14.8516 2.03646 15.0234 2.09375 15.1797C2.15625 15.3307 2.26562 15.4714 2.42188 15.6016C2.58333 15.7318 2.8125 15.8542 3.10938 15.9688C3.40625 16.0833 3.79167 16.1953 4.26562 16.3047C4.94792 16.4557 5.50521 16.6406 5.9375 16.8594C6.375 17.0729 6.69792 17.3385 6.90625 17.6562C7.11458 17.9688 7.21875 18.349 7.21875 18.7969C7.21875 19.1458 7.14583 19.4661 7 19.7578C6.85417 20.0443 6.64323 20.2917 6.36719 20.5C6.09635 20.7083 5.76823 20.8698 5.38281 20.9844C5.0026 21.099 4.57552 21.1562 4.10156 21.1562C3.38802 21.1562 2.78385 21.0391 2.28906 20.8047C1.79948 20.5651 1.42708 20.2526 1.17188 19.8672C0.921875 19.4766 0.796875 19.0625 0.796875 18.625H1.72656C1.75781 19.0625 1.89583 19.4089 2.14062 19.6641C2.38542 19.9141 2.6849 20.0911 3.03906 20.1953C3.39844 20.2995 3.7526 20.3516 4.10156 20.3516C4.58073 20.3516 4.98177 20.2812 5.30469 20.1406C5.6276 20 5.8724 19.8151 6.03906 19.5859C6.20573 19.3568 6.28906 19.1094 6.28906 18.8438ZM14.75 19.0469V12.5469H15.6875V21H14.7891L14.75 19.0469ZM14.9219 17.4844L15.4062 17.4688C15.4062 18 15.3438 18.4896 15.2188 18.9375C15.0938 19.3854 14.8984 19.776 14.6328 20.1094C14.3672 20.4427 14.0234 20.7005 13.6016 20.8828C13.1797 21.0651 12.6719 21.1562 12.0781 21.1562C11.6667 21.1562 11.2891 21.099 10.9453 20.9844C10.6068 20.8646 10.3151 20.6771 10.0703 20.4219C9.82552 20.1667 9.63542 19.8359 9.5 19.4297C9.36979 19.0234 9.30469 18.5312 9.30469 17.9531V12.5469H10.2344V17.9688C10.2344 18.4219 10.2839 18.7995 10.3828 19.1016C10.487 19.4036 10.6276 19.6458 10.8047 19.8281C10.987 20.0104 11.1953 20.1406 11.4297 20.2188C11.6641 20.2969 11.9167 20.3359 12.1875 20.3359C12.875 20.3359 13.4167 20.2031 13.8125 19.9375C14.2135 19.6719 14.4974 19.3229 14.6641 18.8906C14.8359 18.4531 14.9219 17.9844 14.9219 17.4844ZM19.1719 12.5469V21H18.2422V12.5469H19.1719ZM18.0781 10.1016C18.0781 9.92448 18.1328 9.77604 18.2422 9.65625C18.3568 9.53125 18.513 9.46875 18.7109 9.46875C18.9089 9.46875 19.0651 9.53125 19.1797 9.65625C19.2995 9.77604 19.3594 9.92448 19.3594 10.1016C19.3594 10.2734 19.2995 10.4219 19.1797 10.5469C19.0651 10.6667 18.9089 10.7266 18.7109 10.7266C18.513 10.7266 18.3568 10.6667 18.2422 10.5469C18.1328 10.4219 18.0781 10.2734 18.0781 10.1016ZM24.2188 20.1016L26.9297 12.5469H27.8906L24.7266 21H24.0469L24.2188 20.1016ZM21.7656 12.5469L24.5078 20.125L24.6562 21H23.9688L20.7969 12.5469H21.7656ZM34.4453 19.4844V15.125C34.4453 14.724 34.362 14.3776 34.1953 14.0859C34.0286 13.7943 33.7839 13.5703 33.4609 13.4141C33.138 13.2578 32.7396 13.1797 32.2656 13.1797C31.8281 13.1797 31.4375 13.2578 31.0938 13.4141C30.7552 13.5651 30.487 13.7708 30.2891 14.0312C30.0964 14.2865 30 14.5703 30 14.8828L29.0625 14.875C29.0625 14.5573 29.1406 14.25 29.2969 13.9531C29.4531 13.6562 29.6745 13.3906 29.9609 13.1562C30.2474 12.9219 30.5885 12.737 30.9844 12.6016C31.3854 12.4609 31.8255 12.3906 32.3047 12.3906C32.9089 12.3906 33.4401 12.4922 33.8984 12.6953C34.362 12.8984 34.724 13.2031 34.9844 13.6094C35.2448 14.0156 35.375 14.526 35.375 15.1406V19.2266C35.375 19.5182 35.3958 19.8203 35.4375 20.1328C35.4844 20.4453 35.5495 20.7031 35.6328 20.9062V21H34.6406C34.5781 20.8125 34.5286 20.5781 34.4922 20.2969C34.4609 20.0104 34.4453 19.7396 34.4453 19.4844ZM34.6641 16.0781L34.6797 16.7969H32.8438C32.3646 16.7969 31.9349 16.8411 31.5547 16.9297C31.1797 17.013 30.862 17.138 30.6016 17.3047C30.3411 17.4661 30.1406 17.6615 30 17.8906C29.8646 18.1198 29.7969 18.3802 29.7969 18.6719C29.7969 18.974 29.8724 19.25 30.0234 19.5C30.1797 19.75 30.3984 19.9505 30.6797 20.1016C30.9661 20.2474 31.3047 20.3203 31.6953 20.3203C32.2161 20.3203 32.6745 20.224 33.0703 20.0312C33.4714 19.8385 33.8021 19.5859 34.0625 19.2734C34.3229 18.9609 34.4974 18.6198 34.5859 18.25L34.9922 18.7891C34.9245 19.0495 34.7995 19.3177 34.6172 19.5938C34.4401 19.8646 34.2083 20.1198 33.9219 20.3594C33.6354 20.5938 33.2969 20.7865 32.9062 20.9375C32.5208 21.0833 32.0833 21.1562 31.5938 21.1562C31.0417 21.1562 30.5599 21.0521 30.1484 20.8438C29.7422 20.6354 29.4245 20.3516 29.1953 19.9922C28.9714 19.6276 28.8594 19.2161 28.8594 18.7578C28.8594 18.3411 28.9479 17.9688 29.125 17.6406C29.3021 17.3073 29.5573 17.026 29.8906 16.7969C30.2292 16.5625 30.6354 16.3854 31.1094 16.2656C31.5885 16.1406 32.125 16.0781 32.7188 16.0781H34.6641ZM38.8125 14.3516V21H37.8828V12.5469H38.7734L38.8125 14.3516ZM38.6016 16.25L38.1875 16.0156C38.2188 15.5156 38.3203 15.0469 38.4922 14.6094C38.6641 14.1719 38.8958 13.7865 39.1875 13.4531C39.4844 13.1198 39.8307 12.8594 40.2266 12.6719C40.6276 12.4844 41.0703 12.3906 41.5547 12.3906C41.9766 12.3906 42.3542 12.4479 42.6875 12.5625C43.0208 12.6771 43.3047 12.8594 43.5391 13.1094C43.7734 13.3594 43.9505 13.6797 44.0703 14.0703C44.1953 14.4609 44.2578 14.9375 44.2578 15.5V21H43.3203V15.4922C43.3203 14.9089 43.2396 14.4531 43.0781 14.125C42.9167 13.7917 42.6875 13.5547 42.3906 13.4141C42.0938 13.2734 41.7422 13.2031 41.3359 13.2031C40.888 13.2031 40.4948 13.3021 40.1562 13.5C39.8229 13.6927 39.5417 13.9453 39.3125 14.2578C39.0885 14.5651 38.9167 14.8958 38.7969 15.25C38.6771 15.599 38.612 15.9323 38.6016 16.25ZM49.875 12.5469V13.3125H45.6406V12.5469H49.875ZM47.1953 10.375H48.125V18.9453C48.125 19.3359 48.1771 19.6302 48.2812 19.8281C48.3854 20.026 48.5208 20.1589 48.6875 20.2266C48.8542 20.2943 49.0339 20.3281 49.2266 20.3281C49.3672 20.3281 49.5026 20.3203 49.6328 20.3047C49.763 20.2839 49.8802 20.263 49.9844 20.2422L50.0234 21.0312C49.9089 21.0677 49.7604 21.0964 49.5781 21.1172C49.3958 21.1432 49.2135 21.1562 49.0312 21.1562C48.6719 21.1562 48.3542 21.0911 48.0781 20.9609C47.8021 20.8255 47.5859 20.5964 47.4297 20.2734C47.2734 19.9453 47.1953 19.5 47.1953 18.9375V10.375Z" fill="white" fill-opacity="0.5"/>
</svg>
