<svg width="25" height="25" viewBox="0 0 25 25" fill="none" xmlns="http://www.w3.org/2000/svg">
<path fill-rule="evenodd" clip-rule="evenodd" d="M12.5 0C19.4036 0 25 5.59643 25 12.5C25 18.7391 20.4289 23.9104 14.4531 24.8481V24.8328C14.4533 24.8327 14.4534 24.8327 14.4536 24.8327V16.1133H17.3657L17.9199 12.5H17.918L17.9204 12.4846H14.4536V10.1398C14.4536 10.1139 14.4539 10.0881 14.4546 10.0624C14.4845 9.10723 14.986 8.20312 16.4902 8.20312H18.0664V8.18769H18.0669V5.11151C18.0669 5.11151 16.6364 4.86738 15.2688 4.86738C12.4816 4.86738 10.6369 6.51629 10.5505 9.50895C10.5481 9.58708 10.5469 9.66613 10.5469 9.7461V12.4846H7.37351V12.5H7.37305V16.1133H10.5469V24.8481C4.57106 23.9104 0 18.7391 0 12.5C0 5.59643 5.59644 0 12.5 0Z" fill="white"/>
</svg>
