<svg width="83" height="53" viewBox="0 0 83 53" fill="none" xmlns="http://www.w3.org/2000/svg">
<path d="M58.456 22.368L57.096 23.28C56.568 22.512 55.496 22.048 54.328 22.032C52.824 22.032 51.736 22.656 51.736 23.728C51.736 24.816 52.984 25.12 54.456 25.328C56.76 25.648 58.952 26.288 58.952 28.8C58.936 31.312 56.648 32.256 54.312 32.256C52.168 32.256 50.52 31.6 49.496 29.712L50.84 28.816C51.64 30.176 53.032 30.656 54.328 30.656C55.672 30.656 57.16 30.208 57.16 28.8C57.16 27.584 55.864 27.168 54.296 26.96C52.072 26.656 49.96 26.096 49.96 23.696C49.944 21.376 52.264 20.48 54.28 20.48C55.896 20.48 57.512 20.864 58.456 22.368ZM62.7465 27.04V30.336H66.1065C67.0985 30.336 68.4745 30.016 68.4745 28.784C68.4745 27.584 67.1465 27.04 66.1225 27.04C64.9865 27.04 63.8825 27.04 62.7465 27.04ZM62.7465 22.416V25.44H66.1225C67.4665 25.44 68.1385 24.912 68.1385 24.032C68.1385 23.248 67.4505 22.416 66.1065 22.416H62.7465ZM60.9705 20.8H66.1065C68.2345 20.8 69.9145 21.776 69.9145 24C69.9145 24.944 69.4185 25.792 68.3625 26.224C69.7065 26.624 70.2665 27.952 70.2665 28.8C70.2665 31.248 68.3145 32 66.1065 32C64.3625 32 62.7145 32 60.9705 32V20.8ZM81.7676 22.224L80.6476 23.376C79.8476 22.592 78.6636 22.176 77.6236 22.176C74.9996 22.176 73.4796 24.144 73.4956 26.512C73.4956 28.56 74.7116 30.544 77.6236 30.544C78.5836 30.544 79.4636 30.304 80.3596 29.552V27.28H77.2396V25.68H82.0236V30.272C80.9036 31.504 79.5116 32.224 77.6236 32.224C73.5116 32.224 71.7356 29.488 71.7356 26.512C71.7356 23.28 73.7996 20.528 77.6236 20.528C79.1116 20.528 80.6156 21.088 81.7676 22.224Z" fill="white"/>
<path d="M3.60319 41.0105H2.90523C1.84887 41.0105 1 40.1633 1 39.109V14.296C1 13.2417 1.84887 12.3945 2.90523 12.3945H3.60319C4.65956 12.3945 5.50842 13.2417 5.50842 14.296V39.0902C5.50842 40.1445 4.65956 41.0105 3.60319 41.0105Z" stroke="white" stroke-width="0.4" stroke-miterlimit="10"/>
<path d="M9.03581 44.7022H7.6399C6.47035 44.7022 5.5083 43.742 5.5083 42.5748V10.8149C5.5083 9.64764 6.47035 8.6875 7.6399 8.6875H9.03581C10.2054 8.6875 11.1674 9.64764 11.1674 10.8149V42.5748C11.1863 43.742 10.2242 44.7022 9.03581 44.7022Z" stroke="white" stroke-width="0.4" stroke-miterlimit="10"/>
<path d="M23.9786 25.1875H11.189V28.1997H23.9786V25.1875Z" stroke="white" stroke-width="0.4" stroke-miterlimit="10"/>
<path d="M31.56 41.0105H32.258C33.3143 41.0105 34.1632 40.1633 34.1632 39.109V14.296C34.1632 13.2417 33.3143 12.3945 32.258 12.3945H31.56C30.5037 12.3945 29.6548 13.2417 29.6548 14.296V39.0902C29.6548 40.1445 30.5037 41.0105 31.56 41.0105Z" stroke="white" stroke-miterlimit="10"/>
<path d="M26.1091 44.7022H27.5051C28.6746 44.7022 29.6366 43.742 29.6366 42.5748V10.8149C29.6366 9.64764 28.6746 8.6875 27.5051 8.6875H26.1091C24.9396 8.6875 23.9775 9.64764 23.9775 10.8149V42.5748C23.9775 43.742 24.9396 44.7022 26.1091 44.7022Z" stroke="white" stroke-miterlimit="10"/>
<path d="M23.9775 10.7144V1" stroke="white" stroke-miterlimit="10" stroke-linecap="round"/>
<path d="M34.1615 39.1992V50.6268C34.1615 51.2669 33.5956 51.7752 32.8788 51.7752H28.0874C27.3895 51.7752 26.8047 51.2669 26.8047 50.6268V49.516" stroke="white" stroke-miterlimit="10" stroke-linecap="round"/>
<path d="M20.1288 15.7531V9.57809C20.1288 8.938 19.5629 8.42969 18.8461 8.42969H16.3184C15.6204 8.42969 15.0356 8.938 15.0356 9.57809V18.8595C15.0356 18.9159 15.0545 18.9724 15.0734 19.0289L16.5447 23.0765" stroke="#FF00AA" stroke-width="2" stroke-miterlimit="10" stroke-linecap="round"/>
<path d="M15.0356 37.026V43.2011C15.0356 43.8411 15.6016 44.3495 16.3184 44.3495H18.865C19.5629 44.3495 20.1477 43.8411 20.1477 43.2011V33.9197C20.1477 33.8632 20.1288 33.8067 20.11 33.7503L19.2613 31.3242" stroke="#FF00AA" stroke-width="2" stroke-miterlimit="10" stroke-linecap="round"/>
</svg>
