<svg width="496" height="499" viewBox="0 0 496 499" fill="none" xmlns="http://www.w3.org/2000/svg">
<circle cx="244.5" cy="262.5" r="60" fill="#1F1F1F" stroke="#252525"/>
<path fill-rule="evenodd" clip-rule="evenodd" d="M252.881 239.455C252.881 243.573 249.577 246.911 245.5 246.911C241.423 246.911 238.119 243.573 238.119 239.455C238.119 235.338 241.423 232 245.5 232C249.577 232 252.881 235.338 252.881 239.455ZM253.329 254.829C258.807 254.523 264.012 253.891 268.359 252.933C270.17 252.534 271.317 250.728 270.922 248.9C270.527 247.071 268.739 245.912 266.929 246.311C255.098 248.918 235.902 248.918 224.071 246.311C222.261 245.912 220.473 247.071 220.078 248.9C219.683 250.728 220.83 252.534 222.641 252.933C227.106 253.917 232.477 254.557 238.119 254.853V254.867V254.909V254.953V254.996V255.039V255.082V255.125V255.168V255.211V255.254V255.298V255.341V255.384V255.427V255.471V255.514V255.557V255.601V255.644V255.687V255.731V255.774V255.817V255.861V255.904V255.948V255.991V256.035V256.078V256.122V256.165V256.209V256.252V256.296V256.34V256.383V256.427V256.47V256.514V256.557V256.601V256.645V256.688V256.732V256.776V256.819V256.863V256.907V256.95V256.994V257.037V257.081V257.125V257.168V257.212V257.256V257.299V257.343V257.387V257.43V257.474V257.517V257.561V257.605V257.648V257.692V257.736V257.779V257.823V257.866V257.91V257.953V257.997V258.041V258.084V258.128V258.171V258.215V258.258V258.302V258.345V258.388V258.432V258.475V258.519V258.562V258.605V258.649V258.692V258.735V258.779V258.822V258.865V258.908V258.952V258.995V259.038V259.081V259.124V259.167V259.21V259.254V259.297V259.34V259.383V259.426V259.469V259.511V259.554V259.597V259.64V259.683V259.726V259.768V259.811V259.854V259.896V259.939V259.981V260.024V260.066V260.109V260.151V260.194V260.236V260.279V260.321V260.363V260.405V260.448V260.49V260.532V260.574V260.616V260.658V260.7V260.742V260.784V260.826V260.867V260.909V260.951V260.992V261.034V261.076V261.117V261.159V261.2V261.242V261.283V261.324V261.365V261.407V261.448V261.489V261.53V261.571V261.612V261.653V261.694V261.734V261.775V261.816V261.856V261.897V261.937V261.978V262.018V262.059V262.099V262.139V262.179V262.22V262.26V262.3V262.34V262.379V262.419V262.459V262.499V262.538V262.578V262.617V262.657V262.696V262.735V262.775V262.814V262.853V262.892V262.931V262.97V263.009V263.048V263.086V263.125V263.163V263.202V263.24V263.279V263.317V263.355V263.393V263.431V263.469V263.507V263.545V263.583V263.621V263.658V263.696V263.733V263.77V263.808V263.845V263.882V263.919V263.956V263.993V264.03V264.066V264.103V264.14V264.176V264.213V264.249V264.285V264.321V264.357V264.393V264.429V264.465V264.501V264.536V264.572V264.607V264.642V264.678V264.713V264.748V264.783V264.818V264.853V264.887V264.922V264.956V264.991V265.025V265.059V265.093V265.127V265.161V265.195V265.229V265.263V265.296V265.33V265.363V265.396V265.429V265.462V265.495V265.528V265.561V265.593V265.626V265.658V265.691V265.723V265.755V265.787V265.819V265.851V265.882V265.914V265.945V265.977V266.008V266.039V266.07V266.101V266.131V266.162V266.193V266.223V266.253V266.284V266.314V266.344V266.374V266.403V266.433V266.462V266.492V266.521V266.55V266.579V266.608V266.637V266.666V266.694V266.723V266.751V266.779V266.807V266.835V266.863V266.891V266.918V266.946V266.973V267V267.027V267.054V267.081V267.107V267.134V267.16V267.187V267.213V267.239V267.265V267.29V267.316V267.342V267.367V267.392V267.417V267.442V267.467V267.492V267.516V267.541V267.565V267.589V267.613V267.637V267.66V267.684V267.707V267.731V267.754V267.777V267.8V267.822V267.845V267.867V267.89V267.912V267.934V267.956V267.977V267.999V268.02V268.041V268.063V268.083V268.104V268.125V268.145V268.166V268.186V268.206V268.226V268.246V268.265V268.285V268.304V268.323V268.342V268.361V268.38V268.398V268.416V268.435V268.453V268.47V268.488V268.506V268.523V268.54V268.557V268.574V268.591V268.608V268.624V268.64V268.656V268.672V268.688V268.704V268.719V268.734V268.749V268.764V268.779V268.794V268.808V268.822V268.836V268.85V268.864V268.878V268.891V268.904V268.917V268.93V268.943V268.955V268.968V268.979L233.51 288.837C233.087 290.659 234.207 292.483 236.011 292.91C237.815 293.337 239.62 292.206 240.043 290.384L244.133 272.759H247.314L251.404 290.384C251.827 292.206 253.632 293.337 255.437 292.91C257.241 292.483 258.36 290.659 257.937 288.837L253.329 268.979V268.968V268.955V268.943V268.93V268.917V268.904V268.891V268.878V268.864V268.85V268.836V268.822V268.808V268.794V268.779V268.764V268.749V268.734V268.719V268.704V268.688V268.672V268.656V268.64V268.624V268.608V268.591V268.574V268.557V268.54V268.523V268.506V268.488V268.47V268.453V268.435V268.416V268.398V268.38V268.361V268.342V268.323V268.304V268.285V268.265V268.246V268.226V268.206V268.186V268.166V268.145V268.125V268.104V268.083V268.063V268.041V268.02V267.999V267.977V267.956V267.934V267.912V267.89V267.867V267.845V267.822V267.8V267.777V267.754V267.731V267.707V267.684V267.66V267.637V267.613V267.589V267.565V267.541V267.516V267.492V267.467V267.442V267.417V267.392V267.367V267.342V267.316V267.29V267.265V267.239V267.213V267.187V267.16V267.134V267.107V267.081V267.054V267.027V267V266.973V266.946V266.918V266.891V266.863V266.835V266.807V266.779V266.751V266.723V266.694V266.666V266.637V266.608V266.579V266.55V266.521V266.492V266.462V266.433V266.403V266.374V266.344V266.314V266.284V266.253V266.223V266.193V266.162V266.131V266.101V266.07V266.039V266.008V265.977V265.945V265.914V265.882V265.851V265.819V265.787V265.755V265.723V265.691V265.658V265.626V265.593V265.561V265.528V265.495V265.462V265.429V265.396V265.363V265.33V265.296V265.263V265.229V265.195V265.161V265.127V265.093V265.059V265.025V264.991V264.956V264.922V264.887V264.853V264.818V264.783V264.748V264.713V264.678V264.642V264.607V264.572V264.536V264.501V264.465V264.429V264.393V264.357V264.321V264.285V264.249V264.213V264.176V264.14V264.103V264.066V264.03V263.993V263.956V263.919V263.882V263.845V263.808V263.77V263.733V263.696V263.658V263.621V263.583V263.545V263.507V263.469V263.431V263.393V263.355V263.317V263.279V263.24V263.202V263.163V263.125V263.086V263.048V263.009V262.97V262.931V262.892V262.853V262.814V262.775V262.735V262.696V262.657V262.617V262.578V262.538V262.499V262.459V262.419V262.379V262.34V262.3V262.26V262.22V262.179V262.139V262.099V262.059V262.018V261.978V261.937V261.897V261.856V261.816V261.775V261.734V261.694V261.653V261.612V261.571V261.53V261.489V261.448V261.407V261.365V261.324V261.283V261.242V261.2V261.159V261.117V261.076V261.034V260.992V260.951V260.909V260.867V260.826V260.784V260.742V260.7V260.658V260.616V260.574V260.532V260.49V260.448V260.405V260.363V260.321V260.279V260.236V260.194V260.151V260.109V260.066V260.024V259.981V259.939V259.896V259.854V259.811V259.768V259.726V259.683V259.64V259.597V259.554V259.511V259.469V259.426V259.383V259.34V259.297V259.254V259.21V259.167V259.124V259.081V259.038V258.995V258.952V258.908V258.865V258.822V258.779V258.735V258.692V258.649V258.605V258.562V258.519V258.475V258.432V258.388V258.345V258.302V258.258V258.215V258.171V258.128V258.084V258.041V257.997V257.953V257.91V257.866V257.823V257.779V257.736V257.692V257.648V257.605V257.561V257.517V257.474V257.43V257.387V257.343V257.299V257.256V257.212V257.168V257.125V257.081V257.037V256.994V256.95V256.907V256.863V256.819V256.776V256.732V256.688V256.645V256.601V256.557V256.514V256.47V256.427V256.383V256.34V256.296V256.252V256.209V256.165V256.122V256.078V256.035V255.991V255.948V255.904V255.861V255.817V255.774V255.731V255.687V255.644V255.601V255.557V255.514V255.471V255.427V255.384V255.341V255.298V255.254V255.211V255.168V255.125V255.082V255.039V254.996V254.953V254.909V254.867V254.829Z" fill="black"/>
<circle cx="246.5" cy="277.5" r="155" stroke="white" stroke-opacity="0.1"/>
<circle cx="245" cy="276" r="222.5" stroke="white" stroke-opacity="0.5"/>
<path d="M245 53L438.124 387.5H51.8763L245 53Z" fill="url(#paint0_radial_1155_2060)" fill-opacity="0.09"/>
<circle cx="244.5" cy="52.5" r="17.5" fill="#FF00AA"/>
<circle cx="440.5" cy="386.5" r="17.5" fill="#FF00AA"/>
<circle cx="52.5" cy="386.5" r="17.5" fill="#FF00AA"/>
<path d="M240.286 18V15.312H242.806V4.08H240.19V1.2H245.95V15.312H248.278V18H240.286Z" fill="white"/>
<path d="M484.241 384.072H481.097C481.121 380.52 484.481 378.984 487.577 378.984C490.937 378.984 494.585 380.352 494.585 384.336C494.585 388.608 491.369 389.424 487.841 389.424C486.449 389.424 484.193 389.784 484.193 391.608V393.048H494.633V396H481.025C481.025 394.536 481.025 393.072 481.025 391.584C481.025 387.72 484.529 386.568 487.841 386.568C489.113 386.568 491.441 386.352 491.441 384.408C491.441 382.584 489.785 381.72 487.625 381.72C485.969 381.72 484.265 382.56 484.241 384.072Z" fill="white"/>
<path d="M7.46844 388.68H4.85244V386.088H7.27644C8.98044 386.088 10.7804 385.632 10.8044 384.072C10.8044 383.112 10.0364 381.84 7.34844 381.84C5.86044 381.84 3.84444 382.368 3.84444 383.904H0.676438C0.676438 380.28 4.27644 378.96 7.37244 378.96C10.5404 378.96 13.9484 380.496 13.9724 384.072C13.9724 385.392 13.1084 386.928 11.6444 387.384C13.2524 387.912 14.3804 389.496 14.3804 390.912C14.3804 395.016 10.5164 396.24 7.27644 396.24C4.08444 396.24 0.436438 394.896 0.412438 391.08H3.60444C3.60444 392.808 5.93244 393.408 7.30044 393.408C8.90844 393.408 11.0444 392.736 11.0444 390.936C11.0444 389.928 10.4924 388.68 7.46844 388.68Z" fill="white"/>
<defs>
<radialGradient id="paint0_radial_1155_2060" cx="0" cy="0" r="1" gradientUnits="userSpaceOnUse" gradientTransform="translate(245 276) rotate(90) scale(223)">
<stop offset="0.175" stop-color="white"/>
<stop offset="1" stop-color="#2C2C2C" stop-opacity="0"/>
</radialGradient>
</defs>
</svg>
