<svg width="346" height="498" viewBox="0 0 346 498" fill="none" xmlns="http://www.w3.org/2000/svg">
<rect width="346" height="498" fill="#1E1E1E" fill-opacity="0.65"/>
<g clip-path="url(#clip0_0_1)">
<rect width="390" height="10024" transform="translate(-24 -1717)" fill="white"/>
<rect x="-24" y="-231" width="390" height="2474" fill="#F0F0F0"/>
<rect width="346" height="498" rx="5" fill="white"/>
<rect x="0.5" y="0.5" width="345" height="497" rx="4.5" stroke="#2F2F2F" stroke-opacity="0.2"/>
<path d="M1 256H345V493C345 495.761 342.761 498 340 498H6C3.23858 498 1 495.761 1 493V256Z" fill="#2F2F2F"/>
<line x1="113.683" y1="171.828" x2="53.6382" y2="206.494" stroke="#2F2F2F"/>
<path d="M292.628 206.141L232.584 171.474" stroke="#2F2F2F"/>
<line y1="-0.5" x2="69.3333" y2="-0.5" transform="matrix(-0.866025 -0.5 -0.5 0.866025 113.433 98.375)" stroke="#2F2F2F"/>
<path d="M292.628 63.6328L232.584 98.2995" stroke="#2F2F2F"/>
<path d="M40.3198 201.365H41.1621C41.6776 201.365 42.108 201.277 42.4532 201.101C42.803 200.921 43.0653 200.684 43.2402 200.388C43.4197 200.093 43.5095 199.765 43.5095 199.405C43.5095 198.999 43.4335 198.644 43.2817 198.339C43.1298 198.03 42.8973 197.79 42.5843 197.619C42.276 197.444 41.8801 197.356 41.3968 197.356C40.9734 197.356 40.596 197.439 40.2646 197.605C39.9332 197.771 39.6708 198.009 39.4775 198.318C39.2842 198.628 39.1875 198.997 39.1875 199.426H38.3659C38.3659 198.877 38.4971 198.395 38.7595 197.979C39.0218 197.559 39.3831 197.231 39.8434 196.996C40.3037 196.761 40.8215 196.643 41.3968 196.643C41.9906 196.643 42.5061 196.751 42.9434 196.968C43.3852 197.185 43.7258 197.501 43.9652 197.917C44.2091 198.332 44.3311 198.838 44.3311 199.433C44.3311 199.738 44.2643 200.038 44.1309 200.333C44.002 200.628 43.8087 200.896 43.5509 201.136C43.2932 201.371 42.9733 201.561 42.5912 201.704C42.2092 201.847 41.7651 201.918 41.2587 201.918H40.3198V201.365ZM40.3198 202.078V201.531H41.2587C41.8341 201.531 42.3266 201.598 42.7362 201.731C43.1459 201.861 43.4819 202.045 43.7442 202.285C44.0112 202.521 44.2068 202.795 44.3311 203.109C44.4554 203.423 44.5175 203.76 44.5175 204.12C44.5175 204.582 44.4416 204.99 44.2897 205.345C44.1378 205.701 43.9214 206.003 43.6407 206.252C43.3645 206.497 43.0377 206.684 42.6603 206.813C42.2875 206.938 41.8778 207 41.4314 207C41.0263 207 40.6305 206.94 40.2438 206.82C39.8618 206.7 39.5166 206.522 39.2082 206.287C38.9044 206.047 38.6628 205.747 38.4833 205.387C38.3038 205.022 38.214 204.602 38.214 204.127H39.0356C39.0356 204.552 39.1369 204.928 39.3394 205.255C39.5419 205.578 39.8227 205.832 40.1817 206.017C40.5453 206.197 40.9619 206.287 41.4314 206.287C41.9054 206.287 42.3105 206.206 42.6465 206.045C42.9871 205.878 43.2471 205.636 43.4266 205.318C43.6062 204.999 43.6959 204.609 43.6959 204.148C43.6959 203.663 43.5877 203.268 43.3714 202.964C43.1597 202.659 42.8628 202.435 42.4808 202.292C42.1034 202.149 41.6638 202.078 41.1621 202.078H40.3198Z" fill="#FF00AA"/>
<path d="M304 206.148V206.862H297.71V206.218L301.004 202.472C301.413 202.006 301.74 201.598 301.984 201.247C302.228 200.891 302.403 200.568 302.509 200.278C302.619 199.982 302.674 199.696 302.674 199.419C302.674 199.013 302.594 198.655 302.433 198.346C302.276 198.037 302.042 197.795 301.729 197.619C301.416 197.444 301.029 197.356 300.569 197.356C300.108 197.356 299.708 197.455 299.367 197.654C299.027 197.852 298.764 198.129 298.58 198.485C298.401 198.835 298.311 199.235 298.311 199.682H297.489C297.489 199.128 297.611 198.621 297.855 198.159C298.104 197.698 298.458 197.331 298.919 197.058C299.379 196.781 299.929 196.643 300.569 196.643C301.176 196.643 301.699 196.751 302.136 196.968C302.573 197.181 302.909 197.488 303.144 197.889C303.383 198.291 303.503 198.775 303.503 199.343C303.503 199.648 303.448 199.955 303.337 200.264C303.231 200.573 303.084 200.882 302.895 201.191C302.711 201.496 302.5 201.798 302.26 202.098C302.025 202.398 301.779 202.694 301.521 202.985L298.718 206.148H304Z" fill="#FF00AA"/>
<path d="M45.1182 58.8678V59.5739H38V59.0962L42.6465 52.0415H43.3369L42.3565 53.7516L39.008 58.8678H45.1182ZM43.5509 52.0415V62.1216H42.7293V52.0415H43.5509Z" fill="#FF00AA"/>
<path d="M301.549 52V62.1216H300.727V53.0454L297.993 54.0631V53.2808L301.411 52L301.549 52Z" fill="#FF00AA"/>
<path d="M86.5391 168.453C75.3101 144.937 76.5267 113.953 92.2349 86.7457C107.943 59.5384 134.168 42.9927 160.148 40.9593" stroke="url(#paint0_linear_0_1)" stroke-opacity="0.13" stroke-width="4" stroke-linecap="square"/>
<path d="M261.634 99.5508C272.863 123.067 271.646 154.051 255.938 181.258C240.23 208.465 214.005 225.011 188.025 227.045" stroke="url(#paint1_linear_0_1)" stroke-opacity="0.13" stroke-width="4" stroke-linecap="square"/>
<path d="M228.5 134C228.5 165.768 202.968 191.5 171.5 191.5C140.032 191.5 114.5 165.768 114.5 134C114.5 102.232 140.032 76.5 171.5 76.5C202.968 76.5 228.5 102.232 228.5 134Z" stroke="url(#paint2_angular_0_1)" stroke-width="3"/>
<line x1="174.5" y1="64" x2="174.5" y2="95" stroke="white" stroke-width="5"/>
<line x1="174.5" y1="179" x2="174.5" y2="211" stroke="white" stroke-width="5"/>
<line x1="251" y1="136.5" x2="100" y2="136.5" stroke="white" stroke-width="5"/>
<path fill-rule="evenodd" clip-rule="evenodd" d="M175.342 120.4C175.342 122.83 173.398 124.8 171 124.8C168.602 124.8 166.658 122.83 166.658 120.4C166.658 117.97 168.602 116 171 116C173.398 116 175.342 117.97 175.342 120.4ZM175.605 129.473C178.828 129.292 181.889 128.919 184.447 128.354C185.512 128.118 186.187 127.053 185.954 125.974C185.722 124.894 184.67 124.21 183.605 124.446C176.646 125.985 165.354 125.985 158.395 124.446C157.33 124.21 156.278 124.894 156.046 125.974C155.813 127.053 156.488 128.118 157.553 128.354C160.18 128.935 163.339 129.312 166.658 129.487V129.495V129.52V129.546V129.571V129.597V129.622V129.647V129.673V129.698V129.724V129.749V129.775V129.8V129.826V129.852V129.877V129.903V129.928V129.954V129.979V130.005V130.031V130.056V130.082V130.108V130.133V130.159V130.185V130.21V130.236V130.262V130.287V130.313V130.339V130.364V130.39V130.416V130.442V130.467V130.493V130.519V130.544V130.57V130.596V130.622V130.647V130.673V130.699V130.725V130.75V130.776V130.802V130.828V130.853V130.879V130.905V130.931V130.956V130.982V131.008V131.034V131.059V131.085V131.111V131.137V131.162V131.188V131.214V131.24V131.265V131.291V131.317V131.342V131.368V131.394V131.42V131.445V131.471V131.497V131.522V131.548V131.573V131.599V131.625V131.65V131.676V131.702V131.727V131.753V131.778V131.804V131.829V131.855V131.88V131.906V131.931V131.957V131.982V132.008V132.033V132.059V132.084V132.109V132.135V132.16V132.186V132.211V132.236V132.262V132.287V132.312V132.337V132.363V132.388V132.413V132.438V132.463V132.489V132.514V132.539V132.564V132.589V132.614V132.639V132.664V132.689V132.714V132.739V132.764V132.789V132.814V132.838V132.863V132.888V132.913V132.938V132.962V132.987V133.012V133.036V133.061V133.086V133.11V133.135V133.159V133.184V133.208V133.233V133.257V133.282V133.306V133.33V133.355V133.379V133.403V133.427V133.452V133.476V133.5V133.524V133.548V133.572V133.596V133.62V133.644V133.668V133.692V133.716V133.74V133.763V133.787V133.811V133.835V133.858V133.882V133.905V133.929V133.952V133.976V133.999V134.023V134.046V134.069V134.093V134.116V134.139V134.162V134.185V134.208V134.231V134.254V134.277V134.3V134.323V134.346V134.369V134.392V134.414V134.437V134.46V134.482V134.505V134.527V134.55V134.572V134.594V134.617V134.639V134.661V134.683V134.706V134.728V134.75V134.772V134.794V134.816V134.838V134.859V134.881V134.903V134.924V134.946V134.968V134.989V135.011V135.032V135.053V135.075V135.096V135.117V135.138V135.16V135.181V135.202V135.223V135.244V135.264V135.285V135.306V135.327V135.347V135.368V135.388V135.409V135.429V135.45V135.47V135.49V135.51V135.531V135.551V135.571V135.591V135.611V135.63V135.65V135.67V135.69V135.709V135.729V135.748V135.768V135.787V135.806V135.826V135.845V135.864V135.883V135.902V135.921V135.94V135.959V135.977V135.996V136.015V136.033V136.052V136.07V136.088V136.107V136.125V136.143V136.161V136.179V136.197V136.215V136.233V136.251V136.268V136.286V136.304V136.321V136.338V136.356V136.373V136.39V136.407V136.425V136.442V136.458V136.475V136.492V136.509V136.525V136.542V136.558V136.575V136.591V136.607V136.624V136.64V136.656V136.672V136.688V136.703V136.719V136.735V136.75V136.766V136.781V136.797V136.812V136.827V136.842V136.857V136.872V136.887V136.902V136.917V136.931V136.946V136.96V136.975V136.989V137.003V137.017V137.032V137.046V137.059V137.073V137.087V137.101V137.114V137.128V137.141V137.154V137.168V137.181V137.194V137.207V137.22V137.233V137.245V137.258V137.27V137.283V137.295V137.307V137.32V137.332V137.344V137.356V137.367V137.379V137.391V137.402V137.414V137.425V137.437V137.448V137.459V137.47V137.481V137.492V137.502V137.513V137.524V137.534V137.544V137.555V137.565V137.575V137.585V137.595V137.604V137.614V137.624V137.633V137.643V137.652V137.661V137.67V137.679V137.688V137.697V137.706V137.714V137.723V137.731V137.739V137.748V137.756V137.764V137.772V137.779V137.787V137.795V137.802V137.81V137.817V137.823L163.947 149.543C163.698 150.619 164.357 151.695 165.418 151.947C166.479 152.199 167.541 151.531 167.79 150.456L170.196 140.055H172.067L174.473 150.456C174.722 151.531 175.784 152.199 176.845 151.947C177.906 151.695 178.565 150.619 178.316 149.543L175.605 137.823V137.817V137.81V137.802V137.795V137.787V137.779V137.772V137.764V137.756V137.748V137.739V137.731V137.723V137.714V137.706V137.697V137.688V137.679V137.67V137.661V137.652V137.643V137.633V137.624V137.614V137.604V137.595V137.585V137.575V137.565V137.555V137.544V137.534V137.524V137.513V137.502V137.492V137.481V137.47V137.459V137.448V137.437V137.425V137.414V137.402V137.391V137.379V137.367V137.356V137.344V137.332V137.32V137.307V137.295V137.283V137.27V137.258V137.245V137.233V137.22V137.207V137.194V137.181V137.168V137.154V137.141V137.128V137.114V137.101V137.087V137.073V137.059V137.046V137.032V137.017V137.003V136.989V136.975V136.96V136.946V136.931V136.917V136.902V136.887V136.872V136.857V136.842V136.827V136.812V136.797V136.781V136.766V136.75V136.735V136.719V136.703V136.688V136.672V136.656V136.64V136.624V136.607V136.591V136.575V136.558V136.542V136.525V136.509V136.492V136.475V136.458V136.442V136.425V136.407V136.39V136.373V136.356V136.338V136.321V136.304V136.286V136.268V136.251V136.233V136.215V136.197V136.179V136.161V136.143V136.125V136.107V136.088V136.07V136.052V136.033V136.015V135.996V135.977V135.959V135.94V135.921V135.902V135.883V135.864V135.845V135.826V135.806V135.787V135.768V135.748V135.729V135.709V135.69V135.67V135.65V135.63V135.611V135.591V135.571V135.551V135.531V135.51V135.49V135.47V135.45V135.429V135.409V135.388V135.368V135.347V135.327V135.306V135.285V135.264V135.244V135.223V135.202V135.181V135.16V135.138V135.117V135.096V135.075V135.053V135.032V135.011V134.989V134.968V134.946V134.924V134.903V134.881V134.859V134.838V134.816V134.794V134.772V134.75V134.728V134.706V134.683V134.661V134.639V134.617V134.594V134.572V134.55V134.527V134.505V134.482V134.46V134.437V134.414V134.392V134.369V134.346V134.323V134.3V134.277V134.254V134.231V134.208V134.185V134.162V134.139V134.116V134.093V134.069V134.046V134.023V133.999V133.976V133.952V133.929V133.905V133.882V133.858V133.835V133.811V133.787V133.763V133.74V133.716V133.692V133.668V133.644V133.62V133.596V133.572V133.548V133.524V133.5V133.476V133.452V133.427V133.403V133.379V133.355V133.33V133.306V133.282V133.257V133.233V133.208V133.184V133.159V133.135V133.11V133.086V133.061V133.036V133.012V132.987V132.962V132.938V132.913V132.888V132.863V132.838V132.814V132.789V132.764V132.739V132.714V132.689V132.664V132.639V132.614V132.589V132.564V132.539V132.514V132.489V132.463V132.438V132.413V132.388V132.363V132.337V132.312V132.287V132.262V132.236V132.211V132.186V132.16V132.135V132.109V132.084V132.059V132.033V132.008V131.982V131.957V131.931V131.906V131.88V131.855V131.829V131.804V131.778V131.753V131.727V131.702V131.676V131.65V131.625V131.599V131.573V131.548V131.522V131.497V131.471V131.445V131.42V131.394V131.368V131.342V131.317V131.291V131.265V131.24V131.214V131.188V131.162V131.137V131.111V131.085V131.059V131.034V131.008V130.982V130.956V130.931V130.905V130.879V130.853V130.828V130.802V130.776V130.75V130.725V130.699V130.673V130.647V130.622V130.596V130.57V130.544V130.519V130.493V130.467V130.442V130.416V130.39V130.364V130.339V130.313V130.287V130.262V130.236V130.21V130.185V130.159V130.133V130.108V130.082V130.056V130.031V130.005V129.979V129.954V129.928V129.903V129.877V129.852V129.826V129.8V129.775V129.749V129.724V129.698V129.673V129.647V129.622V129.597V129.571V129.546V129.52V129.495V129.473Z" fill="#2F2F2F"/>
<line x1="20" y1="341.891" x2="325.502" y2="341.891" stroke="white" stroke-opacity="0.2"/>
<path d="M55.9592 392.591H23.9359C22.4961 392.591 21.2122 391.844 20.5079 390.585C19.8036 389.326 19.8348 387.842 20.5827 386.614L36.9122 359.97C37.6352 358.792 38.8818 358.094 40.2592 358.094C40.2716 358.094 40.2841 358.094 40.2966 358.094C41.6865 358.106 42.9392 358.829 43.6435 360.026L59.3373 386.67C60.0603 387.898 60.0728 389.375 59.3622 390.609C58.658 391.85 57.3865 392.591 55.9592 392.591ZM40.2654 359.297C39.3118 359.297 38.4455 359.783 37.9469 360.593L21.6173 387.244C21.0938 388.091 21.0751 389.12 21.5612 389.992C22.0474 390.865 22.9324 391.382 23.9296 391.382H55.953C56.9377 391.382 57.8228 390.871 58.3152 390.011C58.8075 389.151 58.8013 388.135 58.2965 387.281L42.6027 360.637C42.1165 359.808 41.2502 359.303 40.2841 359.297C40.2779 359.297 40.2716 359.297 40.2654 359.297Z" fill="white"/>
<path d="M41.7546 379.971H38.1397C37.8093 379.971 37.5413 379.709 37.5351 379.379L37.3232 369.855C37.3169 369.693 37.3793 369.537 37.4977 369.419C37.6099 369.301 37.7657 369.238 37.9277 369.238H41.9603C42.1223 369.238 42.2781 369.307 42.3903 369.419C42.5025 369.537 42.5648 369.693 42.5648 369.855L42.3529 379.379C42.3467 379.703 42.0787 379.971 41.7546 379.971ZM38.7318 378.762H41.1625L41.3495 370.447H38.551L38.7318 378.762Z" fill="#FF00AA"/>
<path d="M39.947 387.261C38.5945 387.261 37.4976 386.164 37.4976 384.805C37.4976 383.452 38.6007 382.355 39.947 382.355C41.2995 382.355 42.3964 383.452 42.3964 384.805C42.3964 386.157 41.2995 387.261 39.947 387.261ZM39.947 383.565C39.2614 383.565 38.7005 384.119 38.7005 384.811C38.7005 385.503 39.2552 386.058 39.947 386.058C40.6326 386.058 41.1873 385.497 41.1873 384.811C41.1873 384.126 40.6326 383.565 39.947 383.565Z" fill="#FF00AA"/>
<circle cx="39.9472" cy="384.692" r="2.49306" fill="#FF00AA"/>
<rect x="38.0776" y="369.734" width="3.73959" height="9.97224" fill="#FF00AA"/>
<line x1="20" y1="411.691" x2="325.502" y2="411.691" stroke="white" stroke-opacity="0.2"/>
<path d="M45.2805 316.172C45.2805 318.133 44.4813 319.908 43.1891 321.194C41.897 322.479 40.1119 323.274 38.1402 323.274C36.1686 323.274 34.3836 322.479 33.0914 321.194C31.7992 319.908 31 318.133 31 316.172C31 314.211 31.7992 312.436 33.0914 311.15C34.3835 309.865 36.1686 309.07 38.1402 309.07C40.1119 309.07 41.897 309.865 43.1891 311.15C44.4813 312.436 45.2805 314.211 45.2805 316.172ZM42.1065 320.117C43.1214 319.107 43.7492 317.713 43.7492 316.172C43.7492 314.631 43.1214 313.237 42.1065 312.227C41.0915 311.218 39.6892 310.593 38.1403 310.593C36.5913 310.593 35.189 311.218 34.174 312.227C33.1591 313.237 32.5313 314.631 32.5313 316.172C32.5313 317.713 33.1591 319.107 34.174 320.117C35.189 321.126 36.5913 321.751 38.1403 321.751C39.6892 321.751 41.0915 321.126 42.1065 320.117Z" fill="#FF00AA"/>
<path d="M47.8435 310.038C47.8435 310.458 48.1863 310.799 48.6091 310.799C49.0319 310.799 49.3747 310.458 49.3747 310.038V305.761H48.6091L49.1504 306.3L49.1457 306.305C49.287 306.166 49.3747 305.974 49.3747 305.761C49.3747 305.341 49.0319 305 48.6091 305H44.3098C43.887 305 43.5442 305.341 43.5442 305.761C43.5442 306.182 43.887 306.523 44.3098 306.523H46.7608L42.1061 311.153C41.8071 311.45 41.8071 311.932 42.1061 312.229C42.405 312.527 42.8897 312.527 43.1887 312.229L47.8434 307.6L47.8435 310.038Z" fill="#FF00AA"/>
<circle cx="170.948" cy="133.5" r="33" transform="rotate(98.4365 170.948 133.5)" stroke="#FF00AA" stroke-opacity="0.5"/>
<path d="M80.702 290.127L78.3949 296.871H77L79.9064 289.09H80.7975L80.702 290.127ZM82.6326 296.871L80.3201 290.127L80.2194 289.09H81.1157L84.0328 296.871H82.6326ZM82.5212 293.985V295.049H78.3206V293.985H82.5212ZM80.9035 287L82.3727 288.475V288.534H81.3385L80.527 287.695L79.7155 288.534H78.7025V288.464L80.1504 287H80.9035Z" fill="white"/>
<path d="M88.4455 291.089H89.607V296.711C89.607 297.231 89.4974 297.673 89.2781 298.036C89.0589 298.4 88.7531 298.676 88.3606 298.865C87.9681 299.057 87.5138 299.153 86.9975 299.153C86.7783 299.153 86.5343 299.121 86.2656 299.057C86.0004 298.993 85.7423 298.89 85.4913 298.747C85.2438 298.608 85.0369 298.425 84.8707 298.197L85.4701 297.438C85.6751 297.684 85.9014 297.864 86.1489 297.978C86.3965 298.092 86.6563 298.149 86.9286 298.149C87.2221 298.149 87.4713 298.093 87.6764 297.983C87.885 297.876 88.0459 297.717 88.1591 297.507C88.2722 297.297 88.3288 297.041 88.3288 296.738V292.398L88.4455 291.089ZM84.5472 294.044V293.932C84.5472 293.494 84.6003 293.095 84.7063 292.735C84.8124 292.371 84.9644 292.059 85.1624 291.799C85.3605 291.536 85.6009 291.334 85.8838 291.195C86.1666 291.053 86.4866 290.982 86.8437 290.982C87.215 290.982 87.5315 291.049 87.7931 291.185C88.0583 291.32 88.2793 291.514 88.4561 291.767C88.6329 292.017 88.7708 292.316 88.8698 292.665C88.9723 293.011 89.0483 293.396 89.0978 293.82V294.178C89.0519 294.591 88.9741 294.969 88.8645 295.311C88.7548 295.653 88.6099 295.948 88.4295 296.198C88.2492 296.447 88.0265 296.64 87.7613 296.775C87.4996 296.91 87.1902 296.978 86.8331 296.978C86.4831 296.978 86.1666 296.905 85.8838 296.759C85.6044 296.613 85.364 296.408 85.1624 296.144C84.9644 295.881 84.8124 295.571 84.7063 295.214C84.6003 294.855 84.5472 294.464 84.5472 294.044ZM85.8254 293.932V294.044C85.8254 294.308 85.8502 294.554 85.8997 294.782C85.9527 295.01 86.0323 295.211 86.1383 295.386C86.2479 295.557 86.3858 295.692 86.552 295.792C86.7217 295.888 86.9215 295.936 87.1513 295.936C87.4519 295.936 87.6976 295.872 87.8886 295.744C88.083 295.615 88.2315 295.443 88.3341 295.225C88.4402 295.004 88.5144 294.758 88.5568 294.488V293.52C88.5356 293.31 88.4914 293.114 88.4242 292.932C88.3606 292.751 88.274 292.592 88.1644 292.457C88.0548 292.318 87.9169 292.211 87.7507 292.136C87.5845 292.058 87.3882 292.018 87.162 292.018C86.9321 292.018 86.7324 292.068 86.5626 292.168C86.3929 292.268 86.2532 292.405 86.1436 292.58C86.0376 292.754 85.958 292.957 85.905 293.189C85.8519 293.421 85.8254 293.668 85.8254 293.932Z" fill="white"/>
<path d="M93.4628 296.978C93.0385 296.978 92.6549 296.909 92.3119 296.77C91.9724 296.627 91.6825 296.429 91.4421 296.177C91.2052 295.924 91.0231 295.626 90.8958 295.284C90.7685 294.942 90.7049 294.573 90.7049 294.178V293.964C90.7049 293.511 90.7703 293.102 90.9011 292.735C91.0319 292.368 91.214 292.054 91.4474 291.794C91.6807 291.53 91.9565 291.329 92.2748 291.19C92.593 291.051 92.9377 290.982 93.309 290.982C93.7191 290.982 94.078 291.051 94.3856 291.19C94.6933 291.329 94.9478 291.525 95.1494 291.778C95.3545 292.027 95.5065 292.325 95.6055 292.671C95.708 293.016 95.7593 293.397 95.7593 293.814V294.365H91.3254V293.44H94.497V293.339C94.49 293.107 94.444 292.89 94.3591 292.687C94.2778 292.483 94.1523 292.32 93.9826 292.195C93.8128 292.07 93.5865 292.008 93.3037 292.008C93.0915 292.008 92.9024 292.054 92.7362 292.147C92.5735 292.236 92.4374 292.366 92.3278 292.537C92.2182 292.708 92.1333 292.915 92.0732 293.157C92.0166 293.396 91.9884 293.665 91.9884 293.964V294.178C91.9884 294.431 92.0219 294.666 92.0891 294.883C92.1598 295.097 92.2624 295.284 92.3967 295.444C92.5311 295.605 92.6938 295.731 92.8847 295.824C93.0756 295.913 93.2931 295.957 93.537 295.957C93.8447 295.957 94.1187 295.895 94.3591 295.77C94.5996 295.646 94.8082 295.469 94.985 295.241L95.6585 295.899C95.5348 296.08 95.3739 296.255 95.1759 296.422C94.9779 296.586 94.7357 296.72 94.4493 296.823C94.1664 296.927 93.8376 296.978 93.4628 296.978Z" fill="white"/>
<path d="M81.0892 314.291H82.6697C83.2284 314.291 83.688 314.195 84.0487 314.002C84.4164 313.803 84.6886 313.532 84.8654 313.19C85.0493 312.841 85.1412 312.438 85.1412 311.982C85.1412 311.533 85.0599 311.145 84.8973 310.817C84.7346 310.482 84.4871 310.225 84.1547 310.047C83.8294 309.862 83.4122 309.769 82.9031 309.769C82.4929 309.769 82.1146 309.851 81.7681 310.015C81.4286 310.179 81.1564 310.414 80.9513 310.721C80.7533 311.02 80.6543 311.38 80.6543 311.8H77.8433C77.8433 310.959 78.0625 310.222 78.501 309.588C78.9465 308.946 79.5476 308.444 80.3042 308.08C81.0609 307.717 81.906 307.535 82.8394 307.535C83.8577 307.535 84.7488 307.706 85.5125 308.048C86.2833 308.383 86.8809 308.879 87.3052 309.534C87.7365 310.19 87.9522 311.002 87.9522 311.971C87.9522 312.434 87.8426 312.898 87.6234 313.361C87.4112 313.817 87.0965 314.23 86.6793 314.601C86.2692 314.964 85.7635 315.26 85.1624 315.488C84.5684 315.709 83.886 315.819 83.1152 315.819H81.0892V314.291ZM81.0892 316.471V314.964H83.1152C83.985 314.964 84.7381 315.068 85.3746 315.274C86.0181 315.474 86.5485 315.759 86.9657 316.129C87.3829 316.493 87.6906 316.917 87.8886 317.401C88.0936 317.886 88.1962 318.406 88.1962 318.962C88.1962 319.689 88.0618 320.337 87.7931 320.907C87.5244 321.47 87.146 321.948 86.6581 322.34C86.1772 322.732 85.6115 323.031 84.9609 323.237C84.3103 323.437 83.6067 323.537 82.85 323.537C82.1924 323.537 81.5524 323.448 80.9301 323.27C80.3148 323.084 79.7597 322.81 79.2647 322.446C78.7697 322.076 78.3772 321.613 78.0873 321.057C77.7973 320.494 77.6524 319.842 77.6524 319.101H80.4633C80.4633 319.528 80.5659 319.91 80.771 320.245C80.9831 320.579 81.273 320.843 81.6408 321.036C82.0156 321.221 82.4363 321.313 82.9031 321.313C83.4193 321.313 83.8613 321.221 84.229 321.036C84.6038 320.843 84.8902 320.572 85.0882 320.223C85.2862 319.867 85.3852 319.443 85.3852 318.951C85.3852 318.367 85.2756 317.893 85.0564 317.53C84.8372 317.166 84.5225 316.899 84.1123 316.728C83.7092 316.557 83.2284 316.471 82.6697 316.471H81.0892Z" fill="white"/>
<path d="M101.159 317.647V319.87H90.0313L89.9146 318.16L96.4594 307.76H98.6976L96.2791 311.896L92.768 317.647H101.159ZM99.3234 307.76V323.323H96.5124V307.76H99.3234Z" fill="white"/>
<path d="M109.445 322.252V319.027C109.445 318.78 109.395 318.566 109.295 318.384C109.199 318.199 109.054 318.056 108.859 317.956C108.663 317.855 108.422 317.805 108.135 317.805C107.866 317.805 107.631 317.852 107.428 317.944C107.229 318.037 107.072 318.158 106.957 318.309C106.846 318.459 106.79 318.622 106.79 318.795H105.727C105.727 318.571 105.785 318.349 105.9 318.129C106.014 317.909 106.179 317.711 106.394 317.533C106.612 317.352 106.872 317.209 107.175 317.105C107.482 316.997 107.822 316.943 108.198 316.943C108.65 316.943 109.048 317.02 109.393 317.174C109.741 317.329 110.013 317.562 110.209 317.875C110.408 318.184 110.508 318.571 110.508 319.038V321.957C110.508 322.165 110.525 322.387 110.559 322.622C110.598 322.858 110.653 323.061 110.726 323.23V323.323H109.617C109.563 323.199 109.521 323.035 109.491 322.831C109.46 322.622 109.445 322.429 109.445 322.252ZM109.628 319.525L109.64 320.278H108.566C108.263 320.278 107.993 320.303 107.755 320.353C107.518 320.399 107.319 320.471 107.158 320.567C106.997 320.664 106.874 320.785 106.79 320.932C106.706 321.075 106.664 321.242 106.664 321.435C106.664 321.632 106.708 321.812 106.796 321.974C106.884 322.136 107.016 322.265 107.192 322.362C107.372 322.455 107.593 322.501 107.853 322.501C108.179 322.501 108.466 322.431 108.715 322.292C108.964 322.153 109.161 321.984 109.307 321.783C109.456 321.582 109.537 321.387 109.548 321.198L110.002 321.713C109.975 321.876 109.902 322.055 109.784 322.252C109.665 322.449 109.506 322.638 109.307 322.819C109.111 322.997 108.878 323.145 108.606 323.265C108.338 323.381 108.035 323.439 107.698 323.439C107.277 323.439 106.907 323.356 106.589 323.19C106.275 323.024 106.03 322.802 105.854 322.524C105.681 322.242 105.595 321.928 105.595 321.58C105.595 321.244 105.66 320.949 105.79 320.694C105.921 320.436 106.108 320.222 106.353 320.052C106.599 319.878 106.894 319.747 107.238 319.658C107.583 319.569 107.968 319.525 108.393 319.525H109.628Z" fill="white"/>
<path d="M113.243 318.396V323.323H112.18V317.058H113.185L113.243 318.396ZM112.99 319.953L112.547 319.936C112.551 319.507 112.614 319.112 112.737 318.749C112.859 318.382 113.032 318.064 113.254 317.794C113.476 317.523 113.741 317.315 114.047 317.168C114.357 317.018 114.7 316.943 115.075 316.943C115.382 316.943 115.658 316.985 115.903 317.07C116.148 317.151 116.357 317.282 116.529 317.464C116.705 317.645 116.839 317.881 116.931 318.17C117.023 318.456 117.069 318.805 117.069 319.218V323.323H116V319.206C116 318.878 115.953 318.616 115.857 318.419C115.761 318.218 115.621 318.074 115.437 317.985C115.254 317.892 115.028 317.846 114.759 317.846C114.495 317.846 114.254 317.902 114.035 318.014C113.821 318.126 113.635 318.28 113.478 318.477C113.325 318.674 113.204 318.9 113.116 319.154C113.032 319.405 112.99 319.672 112.99 319.953Z" fill="white"/>
<path d="M122.304 321.661C122.304 321.507 122.269 321.364 122.2 321.233C122.135 321.098 121.999 320.976 121.792 320.868C121.589 320.756 121.283 320.66 120.873 320.579C120.528 320.505 120.216 320.418 119.936 320.318C119.661 320.218 119.425 320.096 119.23 319.953C119.038 319.81 118.891 319.643 118.787 319.45C118.684 319.257 118.632 319.031 118.632 318.772C118.632 318.525 118.686 318.292 118.793 318.072C118.904 317.852 119.059 317.657 119.258 317.487C119.461 317.317 119.705 317.184 119.988 317.087C120.271 316.991 120.587 316.943 120.936 316.943C121.434 316.943 121.859 317.031 122.212 317.209C122.564 317.386 122.834 317.624 123.022 317.921C123.209 318.214 123.303 318.541 123.303 318.9H122.24C122.24 318.726 122.189 318.558 122.085 318.396C121.986 318.23 121.838 318.093 121.643 317.985C121.451 317.877 121.216 317.823 120.936 317.823C120.641 317.823 120.402 317.869 120.218 317.962C120.038 318.05 119.906 318.164 119.821 318.303C119.741 318.442 119.701 318.589 119.701 318.743C119.701 318.859 119.72 318.963 119.758 319.056C119.8 319.145 119.873 319.228 119.977 319.305C120.08 319.378 120.225 319.448 120.413 319.513C120.601 319.579 120.84 319.644 121.131 319.71C121.641 319.826 122.06 319.965 122.39 320.127C122.719 320.289 122.964 320.488 123.125 320.723C123.286 320.959 123.366 321.244 123.366 321.58C123.366 321.854 123.309 322.105 123.194 322.333C123.083 322.561 122.92 322.758 122.706 322.923C122.495 323.086 122.242 323.213 121.947 323.306C121.656 323.394 121.329 323.439 120.965 323.439C120.417 323.439 119.954 323.34 119.574 323.143C119.195 322.947 118.908 322.692 118.712 322.379C118.517 322.067 118.419 321.737 118.419 321.389H119.488C119.503 321.683 119.588 321.916 119.741 322.09C119.894 322.26 120.082 322.381 120.304 322.455C120.526 322.524 120.746 322.559 120.965 322.559C121.256 322.559 121.499 322.52 121.694 322.443C121.894 322.366 122.045 322.26 122.148 322.124C122.252 321.989 122.304 321.835 122.304 321.661Z" fill="white"/>
<path d="M171.389 289.09V296.871H170.068V289.09H171.389ZM173.813 289.09V290.159H167.666V289.09H173.813Z" fill="white"/>
<path d="M177.228 295.712V292.954C177.228 292.747 177.191 292.569 177.117 292.419C177.043 292.27 176.929 292.154 176.777 292.072C176.629 291.99 176.441 291.949 176.215 291.949C176.007 291.949 175.826 291.985 175.674 292.056C175.522 292.127 175.404 292.223 175.319 292.344C175.234 292.466 175.192 292.603 175.192 292.756H173.919C173.919 292.528 173.973 292.307 174.083 292.093C174.193 291.88 174.352 291.689 174.56 291.521C174.769 291.354 175.018 291.222 175.308 291.126C175.598 291.03 175.924 290.982 176.284 290.982C176.716 290.982 177.097 291.055 177.43 291.201C177.766 291.347 178.029 291.568 178.22 291.863C178.414 292.156 178.512 292.523 178.512 292.964V295.535C178.512 295.799 178.529 296.036 178.565 296.246C178.604 296.453 178.658 296.633 178.729 296.786V296.871H177.419C177.359 296.732 177.311 296.556 177.276 296.342C177.244 296.125 177.228 295.915 177.228 295.712ZM177.414 293.355L177.424 294.151H176.507C176.27 294.151 176.061 294.174 175.881 294.22C175.701 294.263 175.55 294.327 175.43 294.413C175.31 294.498 175.22 294.602 175.16 294.723C175.1 294.844 175.07 294.981 175.07 295.134C175.07 295.288 175.105 295.428 175.176 295.557C175.246 295.681 175.349 295.779 175.483 295.85C175.621 295.922 175.787 295.957 175.982 295.957C176.243 295.957 176.472 295.904 176.666 295.797C176.864 295.687 177.02 295.553 177.133 295.396C177.246 295.236 177.306 295.084 177.313 294.942L177.727 295.514C177.684 295.66 177.612 295.817 177.509 295.984C177.407 296.152 177.272 296.312 177.106 296.465C176.944 296.615 176.747 296.738 176.518 296.834C176.291 296.93 176.03 296.978 175.733 296.978C175.358 296.978 175.024 296.903 174.73 296.754C174.437 296.6 174.207 296.396 174.041 296.139C173.874 295.879 173.791 295.585 173.791 295.257C173.791 294.951 173.848 294.68 173.961 294.445C174.078 294.206 174.248 294.007 174.47 293.846C174.697 293.686 174.972 293.565 175.298 293.483C175.623 293.397 175.994 293.355 176.411 293.355H177.414Z" fill="white"/>
<path d="M181.217 291.089V296.871H179.933V291.089H181.217ZM179.848 289.571C179.848 289.375 179.912 289.213 180.039 289.084C180.17 288.953 180.35 288.887 180.58 288.887C180.806 288.887 180.985 288.953 181.116 289.084C181.247 289.213 181.312 289.375 181.312 289.571C181.312 289.763 181.247 289.923 181.116 290.052C180.985 290.18 180.806 290.244 180.58 290.244C180.35 290.244 180.17 290.18 180.039 290.052C179.912 289.923 179.848 289.763 179.848 289.571Z" fill="white"/>
<path d="M183.985 288.662V296.871H182.702V288.662H183.985Z" fill="white"/>
<path d="M186.754 288.662V296.871H185.47V288.662H186.754Z" fill="white"/>
<path d="M190.684 296.978C190.259 296.978 189.876 296.909 189.533 296.77C189.193 296.627 188.904 296.429 188.663 296.177C188.426 295.924 188.244 295.626 188.117 295.284C187.989 294.942 187.926 294.573 187.926 294.178V293.964C187.926 293.511 187.991 293.102 188.122 292.735C188.253 292.368 188.435 292.054 188.668 291.794C188.902 291.53 189.178 291.329 189.496 291.19C189.814 291.051 190.159 290.982 190.53 290.982C190.94 290.982 191.299 291.051 191.607 291.19C191.914 291.329 192.169 291.525 192.37 291.778C192.575 292.027 192.728 292.325 192.827 292.671C192.929 293.016 192.98 293.397 192.98 293.814V294.365H188.546V293.44H191.718V293.339C191.711 293.107 191.665 292.89 191.58 292.687C191.499 292.483 191.373 292.32 191.204 292.195C191.034 292.07 190.808 292.008 190.525 292.008C190.313 292.008 190.123 292.054 189.957 292.147C189.795 292.236 189.658 292.366 189.549 292.537C189.439 292.708 189.354 292.915 189.294 293.157C189.238 293.396 189.209 293.665 189.209 293.964V294.178C189.209 294.431 189.243 294.666 189.31 294.883C189.381 295.097 189.483 295.284 189.618 295.444C189.752 295.605 189.915 295.731 190.106 295.824C190.297 295.913 190.514 295.957 190.758 295.957C191.066 295.957 191.34 295.895 191.58 295.77C191.821 295.646 192.029 295.469 192.206 295.241L192.88 295.899C192.756 296.08 192.595 296.255 192.397 296.422C192.199 296.586 191.957 296.72 191.67 296.823C191.387 296.927 191.059 296.978 190.684 296.978Z" fill="white"/>
<path d="M175.754 307.717V323.323H172.943V311.02L169.22 312.26V309.972L175.436 307.717H175.754Z" fill="white"/>
<path d="M183.741 320.779L183.72 322.735C183.72 323.498 183.533 324.271 183.158 325.055C182.783 325.838 182.299 326.487 181.705 327L180.22 326.177C180.41 325.856 180.587 325.532 180.75 325.204C180.92 324.876 181.054 324.52 181.153 324.135C181.259 323.758 181.312 323.334 181.312 322.863V320.779H183.741Z" fill="white"/>
<path d="M193.861 307.632H194.243V309.908H194.062C193.207 309.908 192.453 310.04 191.803 310.304C191.159 310.567 190.622 310.938 190.191 311.415C189.766 311.886 189.444 312.445 189.225 313.094C189.006 313.735 188.896 314.437 188.896 315.199V317.722C188.896 318.313 188.957 318.834 189.077 319.283C189.204 319.724 189.377 320.098 189.597 320.405C189.823 320.704 190.084 320.929 190.381 321.078C190.686 321.228 191.018 321.303 191.379 321.303C191.739 321.303 192.065 321.228 192.354 321.078C192.644 320.929 192.892 320.718 193.097 320.448C193.309 320.17 193.468 319.845 193.574 319.475C193.687 319.104 193.744 318.698 193.744 318.256C193.744 317.822 193.691 317.419 193.585 317.049C193.479 316.678 193.323 316.354 193.118 316.076C192.913 315.791 192.659 315.573 192.354 315.424C192.057 315.267 191.718 315.189 191.336 315.189C190.841 315.189 190.399 315.306 190.01 315.541C189.621 315.769 189.314 316.069 189.087 316.439C188.861 316.81 188.737 317.202 188.716 317.615L187.772 317.145C187.807 316.539 187.935 315.983 188.154 315.477C188.38 314.971 188.681 314.53 189.056 314.152C189.437 313.774 189.886 313.482 190.403 313.275C190.926 313.069 191.506 312.965 192.142 312.965C192.878 312.965 193.521 313.108 194.073 313.393C194.624 313.671 195.081 314.052 195.441 314.537C195.809 315.021 196.085 315.581 196.269 316.215C196.452 316.842 196.544 317.505 196.544 318.203C196.544 318.951 196.424 319.65 196.184 320.298C195.95 320.946 195.611 321.513 195.165 321.998C194.72 322.482 194.182 322.86 193.553 323.131C192.924 323.401 192.217 323.537 191.432 323.537C190.604 323.537 189.862 323.38 189.204 323.066C188.553 322.753 187.995 322.318 187.528 321.762C187.061 321.207 186.704 320.558 186.457 319.817C186.209 319.076 186.085 318.274 186.085 317.412V316.279C186.085 315.06 186.252 313.927 186.584 312.88C186.916 311.832 187.408 310.917 188.058 310.133C188.716 309.342 189.529 308.729 190.498 308.294C191.467 307.852 192.588 307.632 193.861 307.632Z" fill="white"/>
<path d="M208.849 307.76V309.299L202.782 323.323H199.822L205.89 309.983H198.04V307.76H208.849Z" fill="white"/>
<path d="M212.561 318.689V323.323H211.574V317.54H212.508L212.561 318.689ZM212.359 320.212L211.903 320.196C211.907 319.801 211.958 319.436 212.057 319.101C212.156 318.762 212.303 318.468 212.497 318.219C212.691 317.97 212.934 317.777 213.224 317.642C213.514 317.503 213.849 317.433 214.231 317.433C214.5 317.433 214.748 317.473 214.974 317.551C215.2 317.626 215.396 317.745 215.563 317.909C215.729 318.073 215.858 318.283 215.95 318.54C216.042 318.796 216.088 319.106 216.088 319.47V323.323H215.106V319.518C215.106 319.215 215.055 318.973 214.953 318.791C214.854 318.609 214.712 318.477 214.528 318.395C214.344 318.31 214.129 318.267 213.881 318.267C213.591 318.267 213.349 318.319 213.155 318.422C212.96 318.525 212.805 318.668 212.688 318.85C212.571 319.031 212.486 319.24 212.433 319.475C212.384 319.707 212.359 319.952 212.359 320.212ZM216.077 319.667L215.419 319.87C215.423 319.553 215.474 319.249 215.573 318.957C215.676 318.664 215.822 318.404 216.013 318.176C216.208 317.948 216.447 317.768 216.729 317.636C217.012 317.501 217.336 317.433 217.7 317.433C218.008 317.433 218.28 317.474 218.517 317.556C218.757 317.638 218.959 317.765 219.121 317.936C219.288 318.103 219.413 318.319 219.498 318.582C219.583 318.846 219.625 319.16 219.625 319.523V323.323H218.639V319.512C218.639 319.188 218.587 318.937 218.485 318.759C218.386 318.577 218.244 318.451 218.061 318.379C217.88 318.305 217.665 318.267 217.414 318.267C217.198 318.267 217.007 318.305 216.841 318.379C216.675 318.454 216.535 318.557 216.422 318.689C216.309 318.818 216.222 318.965 216.162 319.133C216.105 319.3 216.077 319.479 216.077 319.667Z" fill="white"/>
<path d="M267.093 293.969H265.083V292.906H267.093C267.443 292.906 267.726 292.849 267.942 292.735C268.157 292.621 268.315 292.464 268.414 292.264C268.516 292.061 268.567 291.83 268.567 291.57C268.567 291.324 268.516 291.094 268.414 290.88C268.315 290.663 268.157 290.488 267.942 290.356C267.726 290.225 267.443 290.159 267.093 290.159H265.491V296.871H264.16V289.09H267.093C267.69 289.09 268.198 289.197 268.615 289.41C269.036 289.621 269.356 289.913 269.575 290.287C269.794 290.657 269.904 291.081 269.904 291.559C269.904 292.061 269.794 292.492 269.575 292.852C269.356 293.212 269.036 293.488 268.615 293.681C268.198 293.873 267.69 293.969 267.093 293.969Z" fill="white"/>
<path d="M270.652 294.044V293.921C270.652 293.504 270.712 293.118 270.832 292.761C270.952 292.402 271.126 292.09 271.352 291.826C271.582 291.559 271.861 291.352 272.19 291.206C272.522 291.056 272.897 290.982 273.314 290.982C273.735 290.982 274.11 291.056 274.439 291.206C274.771 291.352 275.052 291.559 275.282 291.826C275.512 292.09 275.687 292.402 275.807 292.761C275.927 293.118 275.987 293.504 275.987 293.921V294.044C275.987 294.461 275.927 294.848 275.807 295.204C275.687 295.56 275.512 295.872 275.282 296.139C275.052 296.403 274.773 296.609 274.444 296.759C274.115 296.905 273.742 296.978 273.325 296.978C272.904 296.978 272.527 296.905 272.195 296.759C271.866 296.609 271.587 296.403 271.357 296.139C271.127 295.872 270.952 295.56 270.832 295.204C270.712 294.848 270.652 294.461 270.652 294.044ZM271.93 293.921V294.044C271.93 294.304 271.956 294.55 272.01 294.782C272.063 295.013 272.146 295.216 272.259 295.391C272.372 295.565 272.517 295.703 272.694 295.802C272.87 295.902 273.081 295.952 273.325 295.952C273.562 295.952 273.767 295.902 273.94 295.802C274.117 295.703 274.262 295.565 274.375 295.391C274.488 295.216 274.571 295.013 274.624 294.782C274.681 294.55 274.709 294.304 274.709 294.044V293.921C274.709 293.665 274.681 293.422 274.624 293.194C274.571 292.963 274.486 292.758 274.37 292.58C274.257 292.402 274.112 292.263 273.935 292.163C273.762 292.059 273.555 292.008 273.314 292.008C273.074 292.008 272.865 292.059 272.688 292.163C272.515 292.263 272.372 292.402 272.259 292.58C272.146 292.758 272.063 292.963 272.01 293.194C271.956 293.422 271.93 293.665 271.93 293.921Z" fill="white"/>
<path d="M278.427 291.089V296.871H277.144V291.089H278.427ZM277.059 289.571C277.059 289.375 277.122 289.213 277.25 289.084C277.38 288.953 277.561 288.887 277.791 288.887C278.017 288.887 278.195 288.953 278.326 289.084C278.457 289.213 278.522 289.375 278.522 289.571C278.522 289.763 278.457 289.923 278.326 290.052C278.195 290.18 278.017 290.244 277.791 290.244C277.561 290.244 277.38 290.18 277.25 290.052C277.122 289.923 277.059 289.763 277.059 289.571Z" fill="white"/>
<path d="M283.328 295.674V288.662H284.611V296.871H283.45L283.328 295.674ZM279.594 294.044V293.932C279.594 293.494 279.645 293.095 279.748 292.735C279.85 292.371 279.999 292.059 280.193 291.799C280.388 291.536 280.625 291.334 280.904 291.195C281.183 291.053 281.498 290.982 281.848 290.982C282.194 290.982 282.499 291.049 282.76 291.185C283.022 291.32 283.245 291.514 283.428 291.767C283.612 292.017 283.759 292.316 283.869 292.665C283.978 293.011 284.056 293.396 284.102 293.82V294.178C284.056 294.591 283.978 294.969 283.869 295.311C283.759 295.653 283.612 295.948 283.428 296.198C283.245 296.447 283.02 296.64 282.755 296.775C282.493 296.91 282.187 296.978 281.837 296.978C281.491 296.978 281.178 296.905 280.899 296.759C280.623 296.613 280.388 296.408 280.193 296.144C279.999 295.881 279.85 295.571 279.748 295.214C279.645 294.855 279.594 294.464 279.594 294.044ZM280.872 293.932V294.044C280.872 294.308 280.895 294.554 280.941 294.782C280.99 295.01 281.067 295.211 281.169 295.386C281.272 295.557 281.404 295.692 281.567 295.792C281.733 295.888 281.931 295.936 282.161 295.936C282.451 295.936 282.689 295.872 282.877 295.744C283.064 295.615 283.211 295.443 283.317 295.225C283.427 295.004 283.501 294.758 283.54 294.488V293.52C283.519 293.31 283.474 293.114 283.407 292.932C283.344 292.751 283.257 292.592 283.147 292.457C283.038 292.318 282.902 292.211 282.739 292.136C282.58 292.058 282.391 292.018 282.171 292.018C281.938 292.018 281.74 292.068 281.577 292.168C281.415 292.268 281.28 292.405 281.174 292.58C281.072 292.754 280.996 292.957 280.946 293.189C280.897 293.421 280.872 293.668 280.872 293.932Z" fill="white"/>
<path d="M289.167 295.305C289.167 295.177 289.135 295.061 289.072 294.958C289.008 294.851 288.886 294.755 288.706 294.669C288.529 294.584 288.267 294.505 287.921 294.434C287.617 294.366 287.337 294.286 287.083 294.194C286.832 294.097 286.616 293.982 286.436 293.846C286.255 293.711 286.116 293.551 286.017 293.365C285.918 293.18 285.868 292.966 285.868 292.724C285.868 292.489 285.919 292.266 286.022 292.056C286.125 291.846 286.271 291.66 286.462 291.5C286.653 291.34 286.885 291.213 287.157 291.121C287.433 291.028 287.74 290.982 288.08 290.982C288.561 290.982 288.973 291.064 289.316 291.227C289.662 291.388 289.927 291.607 290.111 291.885C290.295 292.159 290.387 292.469 290.387 292.815H289.109C289.109 292.662 289.07 292.519 288.992 292.387C288.918 292.252 288.805 292.143 288.653 292.061C288.501 291.976 288.31 291.933 288.08 291.933C287.861 291.933 287.679 291.969 287.534 292.04C287.392 292.108 287.286 292.197 287.215 292.307C287.148 292.418 287.115 292.539 287.115 292.671C287.115 292.767 287.132 292.854 287.168 292.932C287.206 293.007 287.27 293.077 287.359 293.141C287.447 293.201 287.567 293.258 287.719 293.312C287.875 293.365 288.069 293.417 288.303 293.467C288.741 293.559 289.118 293.679 289.432 293.825C289.75 293.967 289.994 294.153 290.164 294.381C290.334 294.605 290.419 294.89 290.419 295.236C290.419 295.492 290.364 295.728 290.254 295.941C290.148 296.152 289.993 296.335 289.788 296.492C289.583 296.645 289.337 296.764 289.05 296.85C288.768 296.935 288.449 296.978 288.096 296.978C287.576 296.978 287.136 296.886 286.775 296.7C286.414 296.511 286.14 296.271 285.953 295.979C285.769 295.683 285.677 295.377 285.677 295.06H286.913C286.927 295.298 286.993 295.489 287.109 295.631C287.229 295.77 287.378 295.872 287.555 295.936C287.735 295.997 287.921 296.027 288.112 296.027C288.341 296.027 288.534 295.997 288.69 295.936C288.845 295.872 288.964 295.786 289.045 295.679C289.126 295.569 289.167 295.444 289.167 295.305Z" fill="white"/>
<path d="M274.736 319.069C274.736 320.038 274.509 320.857 274.057 321.527C273.611 322.19 273 322.692 272.222 323.034C271.451 323.369 270.574 323.537 269.591 323.537C268.615 323.537 267.735 323.369 266.95 323.034C266.172 322.692 265.553 322.19 265.093 321.527C264.641 320.857 264.415 320.038 264.415 319.069C264.415 318.42 264.542 317.832 264.796 317.305C265.058 316.778 265.419 316.325 265.878 315.948C266.338 315.563 266.883 315.271 267.512 315.071C268.141 314.864 268.827 314.761 269.57 314.761C270.56 314.761 271.444 314.943 272.222 315.306C273.007 315.663 273.622 316.165 274.067 316.813C274.513 317.455 274.736 318.207 274.736 319.069ZM271.914 318.898C271.914 318.399 271.815 317.968 271.617 317.604C271.426 317.234 271.154 316.949 270.8 316.749C270.447 316.55 270.037 316.45 269.57 316.45C269.096 316.45 268.682 316.55 268.329 316.749C267.982 316.949 267.71 317.234 267.512 317.604C267.321 317.968 267.226 318.399 267.226 318.898C267.226 319.404 267.321 319.838 267.512 320.202C267.71 320.558 267.986 320.832 268.339 321.025C268.693 321.217 269.11 321.313 269.591 321.313C270.072 321.313 270.486 321.217 270.832 321.025C271.179 320.832 271.444 320.558 271.628 320.202C271.819 319.838 271.914 319.404 271.914 318.898ZM274.396 311.864C274.396 312.648 274.191 313.347 273.781 313.959C273.371 314.565 272.802 315.039 272.073 315.381C271.352 315.723 270.524 315.894 269.591 315.894C268.658 315.894 267.823 315.723 267.088 315.381C266.359 315.039 265.786 314.565 265.369 313.959C264.959 313.347 264.754 312.648 264.754 311.864C264.754 310.938 264.963 310.154 265.38 309.513C265.797 308.864 266.366 308.373 267.088 308.038C267.816 307.703 268.643 307.535 269.57 307.535C270.51 307.535 271.345 307.703 272.073 308.038C272.802 308.373 273.371 308.864 273.781 309.513C274.191 310.154 274.396 310.938 274.396 311.864ZM271.596 311.982C271.596 311.54 271.514 311.155 271.352 310.828C271.189 310.493 270.956 310.233 270.652 310.047C270.355 309.862 269.994 309.769 269.57 309.769C269.16 309.769 268.806 309.858 268.509 310.037C268.212 310.215 267.982 310.471 267.82 310.806C267.657 311.134 267.576 311.526 267.576 311.982C267.576 312.431 267.657 312.823 267.82 313.158C267.982 313.493 268.212 313.756 268.509 313.949C268.813 314.134 269.174 314.227 269.591 314.227C270.008 314.227 270.365 314.134 270.662 313.949C270.959 313.756 271.189 313.493 271.352 313.158C271.514 312.823 271.596 312.431 271.596 311.982Z" fill="white"/>
<path d="M279.965 314.291H281.546C282.104 314.291 282.564 314.195 282.925 314.002C283.292 313.803 283.565 313.532 283.741 313.19C283.925 312.841 284.017 312.438 284.017 311.982C284.017 311.533 283.936 311.145 283.773 310.817C283.611 310.482 283.363 310.225 283.031 310.047C282.705 309.862 282.288 309.769 281.779 309.769C281.369 309.769 280.99 309.851 280.644 310.015C280.305 310.179 280.032 310.414 279.827 310.721C279.629 311.02 279.53 311.38 279.53 311.8H276.719C276.719 310.959 276.938 310.222 277.377 309.588C277.822 308.946 278.423 308.444 279.18 308.08C279.937 307.717 280.782 307.535 281.715 307.535C282.734 307.535 283.625 307.706 284.388 308.048C285.159 308.383 285.757 308.879 286.181 309.534C286.612 310.19 286.828 311.002 286.828 311.971C286.828 312.434 286.719 312.898 286.499 313.361C286.287 313.817 285.972 314.23 285.555 314.601C285.145 314.964 284.639 315.26 284.038 315.488C283.444 315.709 282.762 315.819 281.991 315.819H279.965V314.291ZM279.965 316.471V314.964H281.991C282.861 314.964 283.614 315.068 284.251 315.274C284.894 315.474 285.424 315.759 285.842 316.129C286.259 316.493 286.566 316.917 286.764 317.401C286.97 317.886 287.072 318.406 287.072 318.962C287.072 319.689 286.938 320.337 286.669 320.907C286.4 321.47 286.022 321.948 285.534 322.34C285.053 322.732 284.487 323.031 283.837 323.237C283.186 323.437 282.483 323.537 281.726 323.537C281.068 323.537 280.428 323.448 279.806 323.27C279.191 323.084 278.636 322.81 278.141 322.446C277.646 322.076 277.253 321.613 276.963 321.057C276.673 320.494 276.528 319.842 276.528 319.101H279.339C279.339 319.528 279.442 319.91 279.647 320.245C279.859 320.579 280.149 320.843 280.517 321.036C280.891 321.221 281.312 321.313 281.779 321.313C282.295 321.313 282.737 321.221 283.105 321.036C283.48 320.843 283.766 320.572 283.964 320.223C284.162 319.867 284.261 319.443 284.261 318.951C284.261 318.367 284.152 317.893 283.932 317.53C283.713 317.166 283.398 316.899 282.988 316.728C282.585 316.557 282.104 316.471 281.546 316.471H279.965Z" fill="white"/>
<path d="M292.227 314.43V323.323H291.158V314.43H292.227ZM296.024 317.058L293.312 319.982L291.796 321.569L291.709 320.428L292.795 319.12L294.726 317.058H296.024ZM295.053 323.323L292.836 320.335L293.387 319.38L296.306 323.323H295.053Z" fill="white"/>
<path d="M301.035 317.058H302V323.19C302 323.742 301.889 324.213 301.667 324.603C301.445 324.992 301.134 325.288 300.736 325.488C300.341 325.693 299.886 325.795 299.368 325.795C299.154 325.795 298.901 325.761 298.61 325.691C298.323 325.625 298.039 325.512 297.76 325.349C297.484 325.191 297.252 324.977 297.064 324.707L297.622 324.07C297.882 324.386 298.154 324.606 298.438 324.73C298.725 324.853 299.008 324.915 299.288 324.915C299.625 324.915 299.916 324.852 300.161 324.724C300.407 324.597 300.596 324.408 300.73 324.157C300.868 323.91 300.937 323.605 300.937 323.242V318.436L301.035 317.058ZM296.754 320.26V320.139C296.754 319.66 296.81 319.226 296.921 318.836C297.036 318.442 297.198 318.104 297.409 317.823C297.624 317.541 297.882 317.325 298.185 317.174C298.487 317.02 298.828 316.943 299.208 316.943C299.598 316.943 299.939 317.012 300.23 317.151C300.525 317.286 300.774 317.485 300.977 317.747C301.184 318.006 301.347 318.319 301.466 318.685C301.584 319.052 301.667 319.467 301.713 319.93V320.463C301.671 320.922 301.588 321.335 301.466 321.702C301.347 322.069 301.184 322.381 300.977 322.64C300.774 322.898 300.525 323.097 300.23 323.236C299.935 323.371 299.591 323.439 299.196 323.439C298.825 323.439 298.487 323.36 298.185 323.201C297.886 323.043 297.629 322.821 297.415 322.536C297.2 322.25 297.036 321.914 296.921 321.528C296.81 321.138 296.754 320.716 296.754 320.26ZM297.817 320.139V320.26C297.817 320.573 297.848 320.866 297.909 321.14C297.974 321.414 298.072 321.656 298.202 321.864C298.336 322.072 298.507 322.236 298.713 322.356C298.92 322.472 299.167 322.53 299.455 322.53C299.807 322.53 300.098 322.455 300.328 322.304C300.558 322.153 300.74 321.955 300.874 321.708C301.012 321.461 301.119 321.192 301.196 320.903V319.507C301.153 319.295 301.088 319.091 301 318.894C300.916 318.693 300.805 318.515 300.667 318.361C300.533 318.203 300.366 318.077 300.167 317.985C299.968 317.892 299.734 317.846 299.466 317.846C299.175 317.846 298.924 317.908 298.713 318.031C298.507 318.151 298.336 318.317 298.202 318.529C298.072 318.737 297.974 318.981 297.909 319.258C297.848 319.533 297.817 319.826 297.817 320.139Z" fill="white"/>
<path d="M78.8901 376.241V378.91H81.8269C82.612 378.91 83.7316 378.643 83.7316 377.664C83.7316 376.73 82.612 376.241 81.8269 376.241H78.8901ZM78.8901 372.135V374.522H81.8269C83.0337 374.522 83.4262 374.003 83.4262 373.41C83.4262 372.935 83.0482 372.135 81.8269 372.135H78.8901ZM81.8269 370.356C83.8333 370.356 85.3308 371.275 85.3308 373.365C85.3308 374.166 84.9528 374.937 84.0078 375.367C85.2 375.737 85.6362 377.027 85.6362 377.679C85.6362 379.992 83.9351 380.733 81.8269 380.733C80.2131 380.733 78.6138 380.733 77 380.733V370.356C78.5993 370.356 80.2131 370.356 81.8269 370.356Z" fill="#FF00AA"/>
<path d="M87.4925 370.356H89.4116V378.925H94.6457V380.733H87.4925V370.356Z" fill="#FF00AA"/>
<path d="M103.715 378.806V380.733H96.0966C96.0966 377.279 96.0966 373.81 96.0966 370.356H103.715V372.253H98.0012V374.64H103.512V376.464H98.0012V378.806H103.715Z" fill="#FF00AA"/>
<path d="M113.355 372.061L111.828 372.861C111.479 372.268 110.52 371.705 109.415 371.705C107.99 371.705 107.307 372.313 107.307 373.084C107.307 373.988 108.354 374.24 109.575 374.388C111.698 374.655 113.675 375.218 113.675 377.694C113.675 380.007 111.668 381 109.4 381C107.321 381 105.722 380.348 104.966 378.45L106.565 377.605C107.016 378.747 108.194 379.251 109.429 379.251C110.636 379.251 111.77 378.821 111.77 377.694C111.77 376.716 110.767 376.315 109.415 376.167C107.336 375.915 105.417 375.352 105.417 373.024C105.417 370.889 107.481 370.015 109.357 370C110.941 370 112.584 370.46 113.355 372.061Z" fill="#FF00AA"/>
<path d="M123.01 372.061L121.483 372.861C121.134 372.268 120.175 371.705 119.07 371.705C117.645 371.705 116.962 372.313 116.962 373.084C116.962 373.988 118.008 374.24 119.23 374.388C121.352 374.655 123.33 375.218 123.33 377.694C123.33 380.007 121.323 381 119.055 381C116.976 381 115.377 380.348 114.621 378.45L116.22 377.605C116.671 378.747 117.848 379.251 119.084 379.251C120.291 379.251 121.425 378.821 121.425 377.694C121.425 376.716 120.422 376.315 119.07 376.167C116.991 375.915 115.071 375.352 115.071 373.024C115.071 370.889 117.136 370.015 119.012 370C120.596 370 122.239 370.46 123.01 372.061Z" fill="#FF00AA"/>
<path d="M131.967 370.371H133.871V376.315C133.871 379.384 132.025 380.956 129.466 380.956C127.023 380.956 124.944 379.443 124.944 376.315V370.371H126.849V376.315C126.849 378.183 127.896 379.177 129.481 379.177C131.065 379.177 131.967 378.094 131.967 376.315V370.371Z" fill="#FF00AA"/>
<path d="M145.164 380.6V380.733H142.969L140.017 377.264H138.069V380.733H136.15V370.341C137.764 370.341 139.377 370.356 140.991 370.356C143.39 370.371 144.655 372.001 144.655 373.795C144.655 375.218 144.015 376.656 142.082 377.057L145.164 380.6ZM140.991 372.179H138.069V375.5H140.991C142.213 375.5 142.736 374.67 142.736 373.84C142.736 373.009 142.198 372.179 140.991 372.179Z" fill="#FF00AA"/>
<path d="M154.346 378.806V380.733H146.728C146.728 377.279 146.728 373.81 146.728 370.356H154.346V372.253H148.632V374.64H154.142V376.464H148.632V378.806H154.346Z" fill="#FF00AA"/>
<path d="M159.612 379.799C159.612 378.406 161.677 378.406 161.677 379.799C161.677 381.178 159.612 381.178 159.612 379.799ZM159.612 375.5C159.612 374.106 161.677 374.106 161.677 375.5C161.677 376.879 159.612 376.879 159.612 375.5Z" fill="#FF00AA"/>
<path d="M175.864 371.646L174.672 372.891C173.989 372.224 172.971 371.853 172.084 371.853C169.903 371.853 168.58 373.543 168.58 375.678C168.58 377.383 169.554 379.147 172.084 379.147C172.884 379.147 173.582 378.969 174.381 378.317V376.478H171.779V374.729H176.14V379.102C175.137 380.274 173.872 380.97 172.084 380.97C168.26 380.97 166.705 378.406 166.705 375.678C166.705 372.757 168.493 370.059 172.084 370.059C173.451 370.059 174.817 370.593 175.864 371.646Z" fill="#FF00AA"/>
<path d="M185.724 378.806V380.733H178.106C178.106 377.279 178.106 373.81 178.106 370.356H185.724V372.253H180.01V374.64H185.52V376.464H180.01V378.806H185.724Z" fill="#FF00AA"/>
<path d="M189.33 370.356L194.739 377.338V370.356H196.658V380.733H195.102L189.694 373.825V380.733H187.775V370.356H189.33Z" fill="#FF00AA"/>
<path d="M203.758 370.148C207.233 370.178 208.963 372.906 208.934 375.604C208.905 378.287 207.291 380.97 203.714 380.97C200.138 380.97 198.48 378.346 198.48 375.619C198.48 372.342 200.807 370.148 203.758 370.148ZM200.37 375.648C200.414 377.353 201.315 379.177 203.714 379.177C206.113 379.177 207.015 377.338 207.044 375.633C207.073 373.899 206.099 371.972 203.758 371.927C201.592 371.927 200.312 373.588 200.37 375.648Z" fill="#FF00AA"/>
<path d="M217.625 370.371H219.529V376.315C219.529 379.384 217.683 380.956 215.124 380.956C212.681 380.956 210.602 379.443 210.602 376.315V370.371H212.507V376.315C212.507 378.183 213.554 379.177 215.138 379.177C216.723 379.177 217.625 378.094 217.625 376.315V370.371Z" fill="#FF00AA"/>
<path d="M233.892 371.646L232.7 372.891C232.017 372.224 230.999 371.853 230.112 371.853C227.931 371.853 226.608 373.543 226.608 375.678C226.608 377.383 227.582 379.147 230.112 379.147C230.912 379.147 231.61 378.969 232.409 378.317V376.478H229.807V374.729H234.169V379.102C233.165 380.274 231.901 380.97 230.112 380.97C226.288 380.97 224.733 378.406 224.733 375.678C224.733 372.757 226.521 370.059 230.112 370.059C231.479 370.059 232.846 370.593 233.892 371.646Z" fill="#FF00AA"/>
<path d="M243.917 380.733L243.059 378.776H237.737L236.865 380.733H234.786L239.351 370.356H241.445L246.01 380.733H243.917ZM242.288 376.953L240.398 372.535L238.508 376.953H242.288Z" fill="#FF00AA"/>
<path d="M253.773 370.371H255.678V376.315C255.678 379.384 253.831 380.956 251.273 380.956C248.83 380.956 246.751 379.443 246.751 376.315V370.371H248.656V376.315C248.656 378.183 249.702 379.177 251.287 379.177C252.872 379.177 253.773 378.094 253.773 376.315V370.371Z" fill="#FF00AA"/>
<path d="M265.328 378.08L266.636 379.429C265.589 380.481 264.237 380.97 262.769 380.97C258.989 380.97 257.389 378.317 257.375 375.619C257.36 372.906 259.09 370.148 262.769 370.148C264.15 370.148 265.459 370.682 266.505 371.735L265.226 372.995C264.557 372.327 263.656 372.016 262.769 372.016C260.312 372.016 259.25 373.884 259.265 375.619C259.279 377.338 260.254 379.132 262.769 379.132C263.656 379.132 264.659 378.761 265.328 378.08Z" fill="#FF00AA"/>
<path d="M276.962 380.748H275.057V376.553H270.056V380.748H268.137V370.371H270.056V374.744H275.057V370.371H276.962V380.748Z" fill="#FF00AA"/>
<path d="M287 378.806V380.733H279.382C279.382 377.279 279.382 373.81 279.382 370.356H287V372.253H281.286V374.64H286.796V376.464H281.286V378.806H287Z" fill="#FF00AA"/>
<path d="M83.4031 434.227V434.656C83.4031 435.245 83.3271 435.774 83.1752 436.241C83.0232 436.709 82.8059 437.108 82.5232 437.436C82.2441 437.765 81.9084 438.016 81.5161 438.192C81.1239 438.363 80.6892 438.449 80.2122 438.449C79.7386 438.449 79.3058 438.363 78.9135 438.192C78.5248 438.016 78.1873 437.765 77.9011 437.436C77.6149 437.108 77.3922 436.709 77.2332 436.241C77.0777 435.774 77 435.245 77 434.656V434.227C77 433.638 77.0777 433.111 77.2332 432.647C77.3887 432.179 77.6078 431.78 77.8905 431.452C78.1767 431.12 78.5142 430.868 78.9029 430.696C79.2952 430.521 79.728 430.434 80.2016 430.434C80.6786 430.434 81.1133 430.521 81.5055 430.696C81.8978 430.868 82.2352 431.12 82.5179 431.452C82.8006 431.78 83.0179 432.179 83.1699 432.647C83.3254 433.111 83.4031 433.638 83.4031 434.227ZM82.0727 434.656V434.216C82.0727 433.781 82.0303 433.397 81.9455 433.064C81.8642 432.729 81.7423 432.448 81.5797 432.223C81.4207 431.995 81.2246 431.823 80.9913 431.709C80.7581 431.591 80.4949 431.532 80.2016 431.532C79.9083 431.532 79.6468 431.591 79.4171 431.709C79.1874 431.823 78.9913 431.995 78.8287 432.223C78.6697 432.448 78.5478 432.729 78.463 433.064C78.3782 433.397 78.3358 433.781 78.3358 434.216V434.656C78.3358 435.091 78.3782 435.477 78.463 435.813C78.5478 436.149 78.6715 436.432 78.834 436.665C79.0001 436.893 79.198 437.066 79.4277 437.184C79.6574 437.299 79.9189 437.356 80.2122 437.356C80.509 437.356 80.7723 437.299 81.002 437.184C81.2316 437.066 81.426 436.893 81.585 436.665C81.744 436.432 81.8642 436.149 81.9455 435.813C82.0303 435.477 82.0727 435.091 82.0727 434.656Z" fill="white"/>
<path d="M84.6117 430.113H85.8891V437.104L85.7672 438.342H84.6117V430.113ZM89.6313 435.39V435.502C89.6313 435.931 89.5836 436.325 89.4882 436.686C89.3963 437.043 89.255 437.354 89.0642 437.618C88.8769 437.883 88.6436 438.088 88.3645 438.234C88.0889 438.377 87.769 438.449 87.4051 438.449C87.0482 438.449 86.7372 438.381 86.4722 438.245C86.2071 438.109 85.9845 437.916 85.8043 437.666C85.6276 437.416 85.4845 437.118 85.3749 436.772C85.2654 436.425 85.1877 436.043 85.1417 435.625V435.266C85.1877 434.845 85.2654 434.463 85.3749 434.12C85.4845 433.773 85.6276 433.475 85.8043 433.225C85.9845 432.972 86.2054 432.777 86.4669 432.641C86.7319 432.505 87.0411 432.438 87.3945 432.438C87.762 432.438 88.0853 432.509 88.3645 432.652C88.6472 432.795 88.8822 432.998 89.0695 433.263C89.2567 433.523 89.3963 433.834 89.4882 434.195C89.5836 434.556 89.6313 434.954 89.6313 435.39ZM88.3539 435.502V435.39C88.3539 435.129 88.3327 434.884 88.2903 434.656C88.2479 434.423 88.1772 434.22 88.0782 434.045C87.9828 433.87 87.8521 433.732 87.686 433.632C87.5235 433.529 87.3203 433.477 87.0764 433.477C86.8503 433.477 86.6559 433.516 86.4934 433.595C86.3308 433.673 86.1948 433.781 86.0852 433.916C85.9757 434.052 85.8891 434.209 85.8255 434.388C85.7654 434.566 85.7248 434.759 85.7036 434.966V435.936C85.7354 436.204 85.8025 436.45 85.905 436.675C86.011 436.897 86.1594 437.075 86.3503 437.211C86.5411 437.343 86.7867 437.409 87.087 437.409C87.3238 437.409 87.5235 437.361 87.686 437.265C87.8486 437.168 87.9775 437.034 88.0729 436.863C88.1719 436.688 88.2426 436.484 88.285 436.252C88.3309 436.02 88.3539 435.77 88.3539 435.502Z" fill="white"/>
<path d="M90.7763 432.545H92.059V438.845C92.059 439.242 91.9919 439.576 91.8576 439.847C91.7233 440.122 91.5254 440.329 91.2639 440.468C91.0024 440.611 90.6826 440.683 90.3045 440.683C90.1914 440.683 90.0748 440.674 89.9547 440.656C89.831 440.642 89.7144 440.62 89.6048 440.592L89.6101 439.584C89.6843 439.599 89.7638 439.609 89.8486 439.617C89.9299 439.627 90.0077 439.633 90.0819 439.633C90.2338 439.633 90.361 439.606 90.4635 439.552C90.566 439.499 90.6437 439.415 90.6967 439.3C90.7497 439.186 90.7763 439.034 90.7763 438.845V432.545ZM90.6649 431.023C90.6649 430.827 90.7303 430.664 90.8611 430.536C90.9918 430.404 91.1703 430.338 91.3964 430.338C91.6261 430.338 91.8046 430.404 91.9318 430.536C92.0625 430.664 92.1279 430.827 92.1279 431.023C92.1279 431.216 92.0625 431.377 91.9318 431.505C91.8046 431.634 91.6261 431.698 91.3964 431.698C91.1703 431.698 90.9918 431.634 90.8611 431.505C90.7303 431.377 90.6649 431.216 90.6649 431.023Z" fill="white"/>
<path d="M95.9655 438.449C95.5415 438.449 95.1581 438.379 94.8153 438.24C94.4761 438.097 94.1863 437.899 93.946 437.645C93.7093 437.391 93.5273 437.093 93.4 436.75C93.2728 436.407 93.2092 436.038 93.2092 435.641V435.427C93.2092 434.973 93.2746 434.563 93.4053 434.195C93.5361 433.827 93.7181 433.513 93.9513 433.252C94.1845 432.988 94.4602 432.786 94.7782 432.647C95.0962 432.507 95.4408 432.438 95.8118 432.438C96.2217 432.438 96.5804 432.507 96.8878 432.647C97.1953 432.786 97.4497 432.982 97.6511 433.236C97.8561 433.486 98.008 433.784 98.107 434.131C98.2095 434.477 98.2607 434.859 98.2607 435.277V435.829H93.8294V434.902H96.9992V434.8C96.9921 434.568 96.9461 434.35 96.8613 434.147C96.7801 433.943 96.6546 433.779 96.485 433.654C96.3154 433.529 96.0892 433.466 95.8065 433.466C95.5945 433.466 95.4054 433.513 95.2394 433.606C95.0768 433.695 94.9408 433.825 94.8312 433.997C94.7217 434.168 94.6369 434.375 94.5768 434.618C94.5202 434.857 94.492 435.127 94.492 435.427V435.641C94.492 435.895 94.5255 436.131 94.5927 436.349C94.6634 436.563 94.7658 436.75 94.9001 436.911C95.0344 437.072 95.197 437.199 95.3878 437.291C95.5786 437.381 95.7959 437.425 96.0397 437.425C96.3472 437.425 96.621 437.363 96.8613 437.238C97.1016 437.113 97.3101 436.936 97.4868 436.707L98.16 437.366C98.0363 437.549 97.8755 437.724 97.6776 437.891C97.4797 438.056 97.2377 438.19 96.9514 438.293C96.6688 438.397 96.3401 438.449 95.9655 438.449Z" fill="white"/>
<path d="M101.6 437.42C101.809 437.42 101.996 437.379 102.162 437.297C102.332 437.211 102.468 437.093 102.57 436.943C102.676 436.793 102.734 436.62 102.745 436.424H103.948C103.941 436.799 103.832 437.14 103.62 437.447C103.408 437.754 103.127 437.999 102.777 438.181C102.427 438.359 102.04 438.449 101.616 438.449C101.178 438.449 100.796 438.374 100.471 438.224C100.146 438.07 99.8756 437.859 99.6601 437.591C99.4445 437.324 99.2819 437.015 99.1724 436.665C99.0664 436.315 99.0134 435.94 99.0134 435.54V435.352C99.0134 434.952 99.0664 434.577 99.1724 434.227C99.2819 433.873 99.4445 433.563 99.6601 433.295C99.8756 433.027 100.146 432.818 100.471 432.668C100.796 432.514 101.176 432.438 101.611 432.438C102.07 432.438 102.473 432.53 102.819 432.716C103.166 432.898 103.438 433.154 103.636 433.482C103.837 433.807 103.941 434.186 103.948 434.618H102.745C102.734 434.404 102.681 434.211 102.586 434.039C102.494 433.864 102.363 433.725 102.194 433.622C102.028 433.518 101.828 433.466 101.595 433.466C101.337 433.466 101.123 433.52 100.953 433.627C100.784 433.731 100.651 433.873 100.556 434.056C100.46 434.234 100.392 434.436 100.349 434.661C100.31 434.882 100.291 435.113 100.291 435.352V435.54C100.291 435.779 100.31 436.011 100.349 436.236C100.388 436.461 100.455 436.663 100.551 436.841C100.649 437.016 100.784 437.158 100.953 437.265C101.123 437.368 101.339 437.42 101.6 437.42Z" fill="white"/>
<path d="M107.558 432.545V433.488H104.325V432.545H107.558ZM105.257 431.125H106.535V436.74C106.535 436.918 106.56 437.056 106.609 437.152C106.662 437.245 106.735 437.308 106.826 437.34C106.918 437.372 107.026 437.388 107.15 437.388C107.238 437.388 107.323 437.383 107.404 437.372C107.486 437.361 107.551 437.35 107.6 437.34L107.606 438.325C107.5 438.358 107.376 438.386 107.235 438.411C107.097 438.436 106.938 438.449 106.758 438.449C106.464 438.449 106.205 438.397 105.978 438.293C105.752 438.186 105.576 438.013 105.448 437.774C105.321 437.534 105.257 437.216 105.257 436.82V431.125Z" fill="white"/>
<path d="M109.911 432.545V438.342H108.629V432.545H109.911ZM108.544 431.023C108.544 430.827 108.607 430.664 108.735 430.536C108.865 430.404 109.046 430.338 109.275 430.338C109.501 430.338 109.68 430.404 109.811 430.536C109.941 430.664 110.007 430.827 110.007 431.023C110.007 431.216 109.941 431.377 109.811 431.505C109.68 431.634 109.501 431.698 109.275 431.698C109.046 431.698 108.865 431.634 108.735 431.505C108.607 431.377 108.544 431.216 108.544 431.023Z" fill="white"/>
<path d="M113.039 438.342H111.761V431.988C111.761 431.555 111.841 431.193 112 430.9C112.162 430.604 112.394 430.38 112.694 430.23C112.995 430.077 113.35 430 113.76 430C113.887 430 114.012 430.009 114.136 430.027C114.26 430.041 114.38 430.064 114.496 430.096L114.465 431.093C114.394 431.075 114.316 431.063 114.231 431.055C114.15 431.048 114.062 431.045 113.966 431.045C113.772 431.045 113.604 431.082 113.463 431.157C113.325 431.229 113.219 431.334 113.145 431.473C113.074 431.613 113.039 431.784 113.039 431.988V438.342ZM114.221 432.545V433.488H110.881V432.545H114.221Z" fill="white"/>
<path d="M79.8482 452.482V464H77.5071V450.624H79.6715L79.8482 452.482ZM85.988 455.357V455.544C85.988 456.247 85.9056 456.898 85.7407 457.5C85.5817 458.095 85.3461 458.616 85.0339 459.062C84.7218 459.503 84.3331 459.848 83.8678 460.098C83.4084 460.342 82.8784 460.464 82.2776 460.464C81.6887 460.464 81.1763 460.351 80.7405 460.125C80.3046 459.893 79.9365 459.565 79.6362 459.143C79.3358 458.72 79.0943 458.229 78.9117 457.669C78.7351 457.104 78.6025 456.488 78.5142 455.821V455.223C78.6025 454.514 78.7351 453.871 78.9117 453.294C79.0943 452.711 79.3358 452.208 79.6362 451.785C79.9365 451.356 80.3017 451.026 80.7316 450.794C81.1674 450.562 81.6769 450.446 82.26 450.446C82.8666 450.446 83.3996 450.562 83.859 450.794C84.3242 451.026 84.7159 451.359 85.0339 451.794C85.352 452.229 85.5905 452.746 85.7495 453.348C85.9085 453.949 85.988 454.619 85.988 455.357ZM83.6469 455.544V455.357C83.6469 454.928 83.6087 454.532 83.5321 454.169C83.4555 453.8 83.3377 453.479 83.1787 453.205C83.0197 452.925 82.8136 452.708 82.5603 452.553C82.3071 452.398 82.0008 452.321 81.6416 452.321C81.2823 452.321 80.9731 452.38 80.714 452.499C80.4548 452.618 80.2428 452.788 80.0779 453.008C79.913 453.229 79.7834 453.491 79.6892 453.794C79.6008 454.092 79.5419 454.422 79.5125 454.785V456.267C79.5655 456.708 79.6686 457.104 79.8217 457.455C79.9748 457.806 80.1986 458.086 80.4931 458.294C80.7935 458.503 81.1822 458.607 81.6592 458.607C82.0185 458.607 82.3247 458.526 82.578 458.366C82.8312 458.205 83.0374 457.985 83.1964 457.705C83.3554 457.419 83.4703 457.092 83.5409 456.723C83.6116 456.354 83.6469 455.961 83.6469 455.544Z" fill="white"/>
<path d="M91.9866 460.464C91.2621 460.464 90.6113 460.345 90.0342 460.107C89.457 459.869 88.9652 459.538 88.5588 459.116C88.1583 458.687 87.8491 458.19 87.6312 457.625C87.4192 457.053 87.3132 456.44 87.3132 455.785V455.428C87.3132 454.684 87.4192 454.008 87.6312 453.401C87.8433 452.788 88.1436 452.261 88.5323 451.821C88.921 451.38 89.3863 451.041 89.9282 450.803C90.47 450.565 91.0678 450.446 91.7215 450.446C92.3988 450.446 92.9966 450.562 93.5149 450.794C94.0332 451.02 94.4661 451.342 94.8135 451.758C95.161 452.175 95.4231 452.675 95.5998 453.258C95.7765 453.836 95.8648 454.476 95.8648 455.178V456.169H88.3733V454.544H93.5679V454.366C93.5561 453.991 93.4854 453.648 93.3559 453.339C93.2263 453.023 93.0261 452.773 92.7551 452.589C92.4842 452.398 92.1338 452.303 91.7039 452.303C91.3564 452.303 91.0531 452.38 90.7939 452.535C90.5407 452.684 90.3286 452.898 90.1578 453.178C89.9929 453.452 89.8693 453.779 89.7868 454.16C89.7044 454.541 89.6631 454.964 89.6631 455.428V455.785C89.6631 456.19 89.7161 456.565 89.8221 456.91C89.934 457.256 90.096 457.556 90.308 457.812C90.5259 458.062 90.7851 458.259 91.0855 458.401C91.3917 458.538 91.7392 458.607 92.1279 458.607C92.6167 458.607 93.0585 458.512 93.4531 458.321C93.8535 458.125 94.201 457.836 94.4955 457.455L95.6705 458.687C95.4702 458.985 95.1993 459.271 94.8577 459.544C94.522 459.818 94.1156 460.041 93.6386 460.214C93.1615 460.381 92.6108 460.464 91.9866 460.464Z" fill="white"/>
<path d="M99.7608 452.598V460.286H97.4285V450.624H99.6371L99.7608 452.598ZM102.667 450.562L102.632 452.758C102.502 452.735 102.355 452.717 102.19 452.705C102.031 452.693 101.881 452.687 101.74 452.687C101.38 452.687 101.065 452.738 100.794 452.839C100.523 452.934 100.297 453.074 100.114 453.258C99.9375 453.443 99.802 453.669 99.7078 453.937C99.6135 454.199 99.5605 454.497 99.5487 454.83L99.0452 454.767C99.0452 454.154 99.107 453.586 99.2307 453.062C99.3544 452.538 99.534 452.08 99.7696 451.687C100.005 451.294 100.3 450.99 100.653 450.776C101.012 450.556 101.425 450.446 101.89 450.446C102.019 450.446 102.158 450.458 102.305 450.481C102.458 450.499 102.579 450.526 102.667 450.562Z" fill="white"/>
<path d="M108.913 450.624V452.321H103.436V450.624H108.913ZM104.902 448.249H107.243V457.5C107.243 457.785 107.282 458.006 107.358 458.16C107.435 458.315 107.55 458.419 107.703 458.473C107.856 458.526 108.039 458.553 108.251 458.553C108.404 458.553 108.545 458.544 108.675 458.526C108.804 458.509 108.913 458.491 109.001 458.473L109.01 460.241C108.816 460.306 108.595 460.36 108.348 460.402C108.106 460.443 107.832 460.464 107.526 460.464C107.002 460.464 106.543 460.375 106.148 460.196C105.753 460.012 105.447 459.717 105.229 459.312C105.011 458.902 104.902 458.36 104.902 457.687V448.249Z" fill="white"/>
<path d="M114.761 460.464C114.037 460.464 113.386 460.345 112.809 460.107C112.232 459.869 111.74 459.538 111.334 459.116C110.933 458.687 110.624 458.19 110.406 457.625C110.194 457.053 110.088 456.44 110.088 455.785V455.428C110.088 454.684 110.194 454.008 110.406 453.401C110.618 452.788 110.919 452.261 111.307 451.821C111.696 451.38 112.161 451.041 112.703 450.803C113.245 450.565 113.843 450.446 114.496 450.446C115.174 450.446 115.772 450.562 116.29 450.794C116.808 451.02 117.241 451.342 117.588 451.758C117.936 452.175 118.198 452.675 118.375 453.258C118.551 453.836 118.64 454.476 118.64 455.178V456.169H111.148V454.544H116.343V454.366C116.331 453.991 116.26 453.648 116.131 453.339C116.001 453.023 115.801 452.773 115.53 452.589C115.259 452.398 114.909 452.303 114.479 452.303C114.131 452.303 113.828 452.38 113.569 452.535C113.316 452.684 113.104 452.898 112.933 453.178C112.768 453.452 112.644 453.779 112.562 454.16C112.479 454.541 112.438 454.964 112.438 455.428V455.785C112.438 456.19 112.491 456.565 112.597 456.91C112.709 457.256 112.871 457.556 113.083 457.812C113.301 458.062 113.56 458.259 113.86 458.401C114.167 458.538 114.514 458.607 114.903 458.607C115.392 458.607 115.833 458.512 116.228 458.321C116.628 458.125 116.976 457.836 117.27 457.455L118.445 458.687C118.245 458.985 117.974 459.271 117.633 459.544C117.297 459.818 116.891 460.041 116.413 460.214C115.936 460.381 115.386 460.464 114.761 460.464Z" fill="white"/>
<path d="M130.442 458.232V446.571H132.792V460.286H130.672L130.442 458.232ZM124.303 455.571V455.383C124.303 454.645 124.385 453.976 124.55 453.374C124.721 452.767 124.968 452.246 125.292 451.812C125.616 451.377 126.008 451.041 126.467 450.803C126.932 450.565 127.459 450.446 128.048 450.446C128.62 450.446 129.117 450.562 129.541 450.794C129.971 451.026 130.336 451.356 130.637 451.785C130.943 452.214 131.187 452.723 131.37 453.312C131.553 453.895 131.685 454.538 131.768 455.241V455.75C131.685 456.434 131.553 457.062 131.37 457.634C131.187 458.205 130.943 458.705 130.637 459.134C130.336 459.556 129.971 459.884 129.541 460.116C129.111 460.348 128.608 460.464 128.031 460.464C127.448 460.464 126.923 460.342 126.458 460.098C125.999 459.854 125.607 459.512 125.283 459.071C124.965 458.631 124.721 458.113 124.55 457.518C124.385 456.922 124.303 456.273 124.303 455.571ZM126.644 455.383V455.571C126.644 455.988 126.679 456.378 126.75 456.741C126.82 457.104 126.935 457.425 127.094 457.705C127.253 457.979 127.456 458.193 127.704 458.348C127.957 458.503 128.263 458.58 128.623 458.58C129.082 458.58 129.459 458.479 129.753 458.276C130.054 458.068 130.286 457.785 130.451 457.428C130.616 457.065 130.722 456.657 130.769 456.205V454.803C130.746 454.446 130.684 454.116 130.584 453.812C130.49 453.508 130.354 453.246 130.177 453.026C130.007 452.806 129.795 452.633 129.541 452.508C129.288 452.383 128.988 452.321 128.64 452.321C128.281 452.321 127.975 452.401 127.721 452.562C127.468 452.717 127.262 452.934 127.103 453.214C126.944 453.493 126.826 453.818 126.75 454.187C126.679 454.556 126.644 454.955 126.644 455.383Z" fill="white"/>
<path d="M139.197 460.464C138.473 460.464 137.822 460.345 137.245 460.107C136.668 459.869 136.176 459.538 135.769 459.116C135.369 458.687 135.06 458.19 134.842 457.625C134.63 457.053 134.524 456.44 134.524 455.785V455.428C134.524 454.684 134.63 454.008 134.842 453.401C135.054 452.788 135.354 452.261 135.743 451.821C136.132 451.38 136.597 451.041 137.139 450.803C137.681 450.565 138.278 450.446 138.932 450.446C139.609 450.446 140.207 450.562 140.726 450.794C141.244 451.02 141.677 451.342 142.024 451.758C142.372 452.175 142.634 452.675 142.81 453.258C142.987 453.836 143.075 454.476 143.075 455.178V456.169H135.584V454.544H140.779V454.366C140.767 453.991 140.696 453.648 140.567 453.339C140.437 453.023 140.237 452.773 139.966 452.589C139.695 452.398 139.344 452.303 138.915 452.303C138.567 452.303 138.264 452.38 138.005 452.535C137.751 452.684 137.539 452.898 137.369 453.178C137.204 453.452 137.08 453.779 136.997 454.16C136.915 454.541 136.874 454.964 136.874 455.428V455.785C136.874 456.19 136.927 456.565 137.033 456.91C137.145 457.256 137.307 457.556 137.519 457.812C137.737 458.062 137.996 458.259 138.296 458.401C138.602 458.538 138.95 458.607 139.339 458.607C139.827 458.607 140.269 458.512 140.664 458.321C141.064 458.125 141.412 457.836 141.706 457.455L142.881 458.687C142.681 458.985 142.41 459.271 142.068 459.544C141.733 459.818 141.326 460.041 140.849 460.214C140.372 460.381 139.822 460.464 139.197 460.464Z" fill="white"/>
<path d="M151.477 452.482V464H149.136V450.624H151.3L151.477 452.482ZM157.617 455.357V455.544C157.617 456.247 157.534 456.898 157.369 457.5C157.21 458.095 156.975 458.616 156.663 459.062C156.351 459.503 155.962 459.848 155.497 460.098C155.037 460.342 154.507 460.464 153.906 460.464C153.317 460.464 152.805 460.351 152.369 460.125C151.933 459.893 151.565 459.565 151.265 459.143C150.965 458.72 150.723 458.229 150.54 457.669C150.364 457.104 150.231 456.488 150.143 455.821V455.223C150.231 454.514 150.364 453.871 150.54 453.294C150.723 452.711 150.965 452.208 151.265 451.785C151.565 451.356 151.93 451.026 152.36 450.794C152.796 450.562 153.306 450.446 153.889 450.446C154.495 450.446 155.028 450.562 155.488 450.794C155.953 451.026 156.345 451.359 156.663 451.794C156.981 452.229 157.219 452.746 157.378 453.348C157.537 453.949 157.617 454.619 157.617 455.357ZM155.276 455.544V455.357C155.276 454.928 155.237 454.532 155.161 454.169C155.084 453.8 154.966 453.479 154.807 453.205C154.648 452.925 154.442 452.708 154.189 452.553C153.936 452.398 153.63 452.321 153.27 452.321C152.911 452.321 152.602 452.38 152.343 452.499C152.084 452.618 151.872 452.788 151.707 453.008C151.542 453.229 151.412 453.491 151.318 453.794C151.23 454.092 151.171 454.422 151.141 454.785V456.267C151.194 456.708 151.297 457.104 151.45 457.455C151.604 457.806 151.827 458.086 152.122 458.294C152.422 458.503 152.811 458.607 153.288 458.607C153.647 458.607 153.953 458.526 154.207 458.366C154.46 458.205 154.666 457.985 154.825 457.705C154.984 457.419 155.099 457.092 155.17 456.723C155.24 456.354 155.276 455.961 155.276 455.544Z" fill="white"/>
<path d="M158.907 455.553V455.366C158.907 454.657 159.007 454.005 159.207 453.41C159.407 452.809 159.699 452.288 160.082 451.848C160.464 451.407 160.933 451.065 161.486 450.821C162.04 450.571 162.67 450.446 163.377 450.446C164.095 450.446 164.731 450.571 165.285 450.821C165.844 451.065 166.316 451.407 166.698 451.848C167.081 452.288 167.373 452.809 167.573 453.41C167.773 454.005 167.873 454.657 167.873 455.366V455.553C167.873 456.256 167.773 456.907 167.573 457.509C167.373 458.104 167.081 458.625 166.698 459.071C166.316 459.512 165.847 459.854 165.294 460.098C164.74 460.342 164.107 460.464 163.394 460.464C162.688 460.464 162.055 460.342 161.495 460.098C160.936 459.854 160.464 459.512 160.082 459.071C159.699 458.625 159.407 458.104 159.207 457.509C159.007 456.907 158.907 456.256 158.907 455.553ZM161.239 455.366V455.553C161.239 455.976 161.28 456.372 161.363 456.741C161.445 457.11 161.572 457.434 161.742 457.714C161.913 457.994 162.134 458.214 162.405 458.375C162.682 458.529 163.012 458.607 163.394 458.607C163.771 458.607 164.095 458.529 164.366 458.375C164.637 458.214 164.858 457.994 165.029 457.714C165.205 457.434 165.335 457.11 165.418 456.741C165.5 456.372 165.541 455.976 165.541 455.553V455.366C165.541 454.949 165.5 454.559 165.418 454.196C165.335 453.827 165.205 453.502 165.029 453.223C164.858 452.937 164.634 452.714 164.357 452.553C164.086 452.386 163.76 452.303 163.377 452.303C163 452.303 162.676 452.386 162.405 452.553C162.134 452.714 161.913 452.937 161.742 453.223C161.572 453.502 161.445 453.827 161.363 454.196C161.28 454.559 161.239 454.949 161.239 455.366Z" fill="white"/>
<path d="M172.043 450.624V460.286H169.702V450.624H172.043ZM169.543 448.097C169.543 447.746 169.661 447.454 169.897 447.222C170.138 446.99 170.462 446.874 170.868 446.874C171.275 446.874 171.596 446.99 171.831 447.222C172.073 447.454 172.193 447.746 172.193 448.097C172.193 448.443 172.073 448.731 171.831 448.963C171.596 449.196 171.275 449.312 170.868 449.312C170.462 449.312 170.138 449.196 169.897 448.963C169.661 448.731 169.543 448.443 169.543 448.097Z" fill="white"/>
<path d="M180.003 458.232V446.571H182.353V460.286H180.233L180.003 458.232ZM173.863 455.571V455.383C173.863 454.645 173.946 453.976 174.11 453.374C174.281 452.767 174.529 452.246 174.853 451.812C175.176 451.377 175.568 451.041 176.028 450.803C176.493 450.565 177.02 450.446 177.609 450.446C178.18 450.446 178.678 450.562 179.102 450.794C179.532 451.026 179.897 451.356 180.197 451.785C180.504 452.214 180.748 452.723 180.931 453.312C181.113 453.895 181.246 454.538 181.328 455.241V455.75C181.246 456.434 181.113 457.062 180.931 457.634C180.748 458.205 180.504 458.705 180.197 459.134C179.897 459.556 179.532 459.884 179.102 460.116C178.672 460.348 178.168 460.464 177.591 460.464C177.008 460.464 176.484 460.342 176.019 460.098C175.559 459.854 175.168 459.512 174.844 459.071C174.526 458.631 174.281 458.113 174.11 457.518C173.946 456.922 173.863 456.273 173.863 455.571ZM176.204 455.383V455.571C176.204 455.988 176.24 456.378 176.31 456.741C176.381 457.104 176.496 457.425 176.655 457.705C176.814 457.979 177.017 458.193 177.264 458.348C177.518 458.503 177.824 458.58 178.183 458.58C178.642 458.58 179.019 458.479 179.314 458.276C179.614 458.068 179.847 457.785 180.012 457.428C180.177 457.065 180.283 456.657 180.33 456.205V454.803C180.306 454.446 180.244 454.116 180.144 453.812C180.05 453.508 179.915 453.246 179.738 453.026C179.567 452.806 179.355 452.633 179.102 452.508C178.849 452.383 178.548 452.321 178.201 452.321C177.842 452.321 177.535 452.401 177.282 452.562C177.029 452.717 176.823 452.934 176.664 453.214C176.505 453.493 176.387 453.818 176.31 454.187C176.24 454.556 176.204 454.955 176.204 455.383Z" fill="white"/>
<path d="M189.721 457.643C189.721 457.44 189.668 457.259 189.562 457.098C189.456 456.937 189.255 456.791 188.961 456.66C188.672 456.523 188.248 456.395 187.689 456.276C187.194 456.169 186.738 456.035 186.32 455.875C185.901 455.714 185.542 455.52 185.242 455.294C184.941 455.062 184.706 454.791 184.535 454.482C184.37 454.166 184.288 453.803 184.288 453.392C184.288 452.993 184.373 452.618 184.544 452.267C184.715 451.91 184.962 451.598 185.286 451.33C185.61 451.056 186.004 450.842 186.47 450.687C186.935 450.526 187.459 450.446 188.042 450.446C188.855 450.446 189.553 450.58 190.136 450.848C190.725 451.115 191.175 451.484 191.488 451.955C191.8 452.419 191.956 452.943 191.956 453.526H189.624C189.624 453.27 189.565 453.038 189.447 452.83C189.335 452.621 189.161 452.455 188.926 452.33C188.69 452.199 188.393 452.133 188.033 452.133C187.709 452.133 187.436 452.187 187.212 452.294C186.994 452.401 186.829 452.541 186.717 452.714C186.605 452.886 186.549 453.077 186.549 453.285C186.549 453.44 186.579 453.58 186.638 453.705C186.702 453.824 186.805 453.934 186.947 454.035C187.088 454.136 187.28 454.229 187.521 454.312C187.768 454.395 188.072 454.476 188.431 454.553C189.144 454.696 189.765 454.886 190.295 455.125C190.831 455.357 191.249 455.666 191.549 456.053C191.85 456.44 192 456.934 192 457.535C192 457.964 191.909 458.357 191.726 458.714C191.544 459.065 191.279 459.372 190.931 459.634C190.584 459.896 190.168 460.101 189.685 460.25C189.202 460.393 188.658 460.464 188.051 460.464C187.174 460.464 186.431 460.306 185.825 459.991C185.218 459.669 184.759 459.265 184.447 458.777C184.134 458.282 183.978 457.771 183.978 457.241H186.214C186.231 457.616 186.331 457.916 186.514 458.143C186.696 458.369 186.926 458.532 187.203 458.634C187.486 458.729 187.783 458.777 188.095 458.777C188.449 458.777 188.746 458.729 188.987 458.634C189.229 458.532 189.412 458.399 189.535 458.232C189.659 458.059 189.721 457.863 189.721 457.643Z" fill="white"/>
</g>
<defs>
<linearGradient id="paint0_linear_0_1" x1="70.9848" y1="159.473" x2="144.593" y2="31.9791" gradientUnits="userSpaceOnUse">
<stop stop-color="#B6B6B6" stop-opacity="0"/>
<stop offset="1" stop-color="#B6B6B6"/>
</linearGradient>
<linearGradient id="paint1_linear_0_1" x1="203.579" y1="236.025" x2="277.188" y2="108.531" gradientUnits="userSpaceOnUse">
<stop stop-color="#B6B6B6"/>
<stop offset="1" stop-color="#B6B6B6" stop-opacity="0"/>
</linearGradient>
<radialGradient id="paint2_angular_0_1" cx="0" cy="0" r="1" gradientUnits="userSpaceOnUse" gradientTransform="translate(171.5 134) rotate(-90) scale(59 58.5)">
<stop stop-color="#FF00AA"/>
<stop offset="1" stop-color="#970065"/>
</radialGradient>
<clipPath id="clip0_0_1">
<rect width="390" height="10024" fill="white" transform="translate(-24 -1717)"/>
</clipPath>
</defs>
</svg>
