<svg width="50" height="50" viewBox="0 0 50 50" fill="none" xmlns="http://www.w3.org/2000/svg">
<path d="M24.5833 49.1667C21.2236 49.1667 18.0483 48.5214 15.0573 47.2307C12.0663 45.9401 9.45434 44.1783 7.22135 41.9453C4.98837 39.7123 3.22656 37.1003 1.93594 34.1094C0.645313 31.1184 0 27.9431 0 24.5833C0 21.1826 0.645313 17.997 1.93594 15.0266C3.22656 12.0561 4.98837 9.45434 7.22135 7.22135C9.45434 4.98837 12.0663 3.22656 15.0573 1.93594C18.0483 0.645313 21.2236 0 24.5833 0C25.2799 0 25.8637 0.23559 26.3349 0.706771C26.8061 1.17795 27.0417 1.76181 27.0417 2.45833C27.0417 3.15486 26.8061 3.73872 26.3349 4.2099C25.8637 4.68108 25.2799 4.91667 24.5833 4.91667C19.134 4.91667 14.4939 6.83212 10.663 10.663C6.83212 14.4939 4.91667 19.134 4.91667 24.5833C4.91667 30.0326 6.83212 34.6727 10.663 38.5036C14.4939 42.3345 19.134 44.25 24.5833 44.25C30.0326 44.25 34.6727 42.3345 38.5036 38.5036C42.3345 34.6727 44.25 30.0326 44.25 24.5833C44.25 23.8868 44.4856 23.303 44.9568 22.8318C45.428 22.3606 46.0118 22.125 46.7083 22.125C47.4049 22.125 47.9887 22.3606 48.4599 22.8318C48.9311 23.303 49.1667 23.8868 49.1667 24.5833C49.1667 27.9431 48.5214 31.1184 47.2307 34.1094C45.9401 37.1003 44.1783 39.7123 41.9453 41.9453C39.7123 44.1783 37.1106 45.9401 34.1401 47.2307C31.1696 48.5214 27.984 49.1667 24.5833 49.1667Z" fill="#FF00AA"/>
</svg>
