<svg width="20" height="20" viewBox="0 0 20 20" fill="none" xmlns="http://www.w3.org/2000/svg">
<path d="M9.74348 0.335938C7.8164 0.335938 5.9326 0.902811 4.3303 1.96487C2.72799 3.02693 1.47914 4.53648 0.741682 6.30263C0.0042217 8.06877 -0.188732 10.0122 0.187223 11.8871C0.563177 13.762 1.49115 15.4843 2.8538 16.836C4.21645 18.1878 5.95257 19.1083 7.84262 19.4813C9.73267 19.8542 11.6918 19.6628 13.4721 18.9313C15.2525 18.1997 16.7743 16.9608 17.8449 15.3713C18.9155 13.7819 19.487 11.9131 19.487 10.0015C19.484 7.4389 18.4566 4.98212 16.6299 3.17011C14.8033 1.35809 12.3267 0.338835 9.74348 0.335938ZM9.74348 18.8337C7.98255 18.8337 6.26117 18.3157 4.797 17.3452C3.33284 16.3747 2.19167 14.9953 1.51779 13.3814C0.843912 11.7675 0.667594 9.99167 1.01113 8.27839C1.35468 6.56511 2.20264 4.99137 3.44781 3.75616C4.69298 2.52096 6.27942 1.67977 8.00651 1.33898C9.73361 0.998187 11.5238 1.17309 13.1507 1.84158C14.7776 2.51007 16.1681 3.64211 17.1464 5.09456C18.1247 6.54701 18.6469 8.25462 18.6469 10.0015C18.6442 12.3431 17.7053 14.588 16.0362 16.2438C14.367 17.8996 12.104 18.831 9.74348 18.8337Z" fill="white"/>
<path d="M10.1633 9.83248V6.30729C10.1633 6.19678 10.119 6.0908 10.0403 6.01266C9.9615 5.93452 9.85467 5.89062 9.74327 5.89062C9.63187 5.89062 9.52504 5.93452 9.44626 6.01266C9.36749 6.0908 9.32324 6.19678 9.32324 6.30729V10.005C9.32327 10.1155 9.36754 10.2215 9.44631 10.2996L12.1324 12.9642C12.2113 13.0414 12.3179 13.0846 12.4288 13.0842C12.5396 13.0838 12.6459 13.04 12.7243 12.9622C12.8027 12.8844 12.8469 12.779 12.8473 12.669C12.8477 12.559 12.8042 12.4533 12.7263 12.375L10.1633 9.83248Z" fill="white"/>
<path d="M2.68289 9.71875H2.04405C1.93265 9.71875 1.82582 9.76265 1.74705 9.84079C1.66828 9.91893 1.62402 10.0249 1.62402 10.1354C1.62402 10.2459 1.66828 10.3519 1.74705 10.43C1.82582 10.5082 1.93265 10.5521 2.04405 10.5521H2.68291C2.79431 10.5521 2.90114 10.5082 2.97992 10.43C3.05869 10.3519 3.10294 10.2459 3.10294 10.1354C3.10294 10.0249 3.05869 9.91893 2.97992 9.84079C2.90114 9.76265 2.79428 9.71875 2.68289 9.71875Z" fill="white"/>
<path d="M16.8038 10.5521H17.4427C17.5541 10.5521 17.6609 10.5082 17.7397 10.43C17.8185 10.3519 17.8627 10.2459 17.8627 10.1354C17.8627 10.0249 17.8185 9.91893 17.7397 9.84079C17.6609 9.76265 17.5541 9.71875 17.4427 9.71875H16.8038C16.6924 9.71875 16.5856 9.76265 16.5068 9.84079C16.428 9.91893 16.3838 10.0249 16.3838 10.1354C16.3838 10.2459 16.428 10.3519 16.5068 10.43C16.5856 10.5082 16.6924 10.5521 16.8038 10.5521Z" fill="white"/>
<path d="M9.74327 16.7266C9.63187 16.7266 9.52504 16.7705 9.44627 16.8486C9.3675 16.9267 9.32325 17.0327 9.32324 17.1432V17.7772C9.32324 17.8877 9.36749 17.9937 9.44626 18.0718C9.52504 18.15 9.63187 18.1939 9.74327 18.1939C9.85467 18.1939 9.9615 18.15 10.0403 18.0718C10.119 17.9937 10.1633 17.8877 10.1633 17.7772V17.1432C10.1633 17.0327 10.119 16.9267 10.0403 16.8486C9.9615 16.7705 9.85467 16.7266 9.74327 16.7266Z" fill="white"/>
</svg>
