<svg width="15" height="13" viewBox="0 0 15 13" fill="none" xmlns="http://www.w3.org/2000/svg">
<path d="M1.83317 12.1693C1.44359 12.1693 1.11008 12.0306 0.83265 11.7531C0.555219 11.4757 0.416504 11.1422 0.416504 10.7526V2.2526C0.416504 1.86302 0.555219 1.52951 0.83265 1.25208C1.11008 0.974653 1.44359 0.835938 1.83317 0.835938H13.1665C13.5561 0.835938 13.8896 0.974653 14.167 1.25208C14.4445 1.52951 14.5832 1.86302 14.5832 2.2526V10.7526C14.5832 11.1422 14.4445 11.4757 14.167 11.7531C13.8896 12.0306 13.5561 12.1693 13.1665 12.1693H1.83317ZM7.49984 7.21094L1.83317 3.66927V10.7526H13.1665V3.66927L7.49984 7.21094ZM7.49984 5.79427L13.1665 2.2526H1.83317L7.49984 5.79427ZM1.83317 3.66927V2.2526V10.7526V3.66927Z" fill="#2F2F2F" fill-opacity="0.5"/>
</svg>
