<svg xmlns="http://www.w3.org/2000/svg" width="584" height="266" viewBox="0 0 584 266" version="1.1">
	<path d="M 251.323 74.696 C 246.440 75.647, 245.809 81.260, 250.189 84.783 C 257.356 90.548, 274.206 107.263, 274.911 109.308 C 275.137 109.964, 277.090 112.897, 279.250 115.828 C 281.410 118.758, 282.992 121.341, 282.765 121.569 C 282.537 121.796, 279.910 121.348, 276.926 120.573 C 264.824 117.429, 237.694 111.825, 228.500 110.570 C 220.601 109.492, 198.601 105.872, 198.056 105.560 C 197.750 105.385, 192.775 104.932, 187 104.554 C 181.225 104.175, 175.600 103.681, 174.500 103.455 C 163.055 101.106, 86.562 98.282, 85.398 100.165 C 85.114 100.624, 88.396 101.089, 92.691 101.198 C 105.609 101.526, 108.100 101.639, 118 102.343 C 123.225 102.715, 134.475 103.474, 143 104.029 C 161.185 105.214, 185.786 107.586, 195 109.044 C 234.221 115.246, 245.519 117.140, 251.500 118.517 C 255.350 119.404, 261.425 120.741, 265 121.489 C 275.347 123.654, 283.131 125.864, 284.546 127.038 C 286.643 128.779, 289.080 136.982, 288.064 138.881 C 285.739 143.224, 268.618 145.459, 257 142.936 C 254.525 142.398, 250.700 141.691, 248.500 141.365 C 245.254 140.884, 227.348 135.410, 222.250 133.341 C 221.563 133.062, 221 133.300, 221 133.871 C 221 135.422, 234.449 141.488, 243 143.794 C 247.125 144.907, 254.251 146.369, 258.836 147.044 C 268.008 148.394, 283.558 147.842, 285.295 146.105 C 286.995 144.405, 288.712 144.789, 289.290 147 C 289.882 149.266, 292.479 149.550, 298.160 147.972 C 300.914 147.207, 302.083 146.200, 302.884 143.903 C 304.008 140.680, 306.162 140.663, 305.320 143.884 C 304.636 146.499, 308.535 149, 313.294 149 C 315.645 149, 318.888 147.978, 321.621 146.376 C 325.818 143.917, 326.178 143.862, 327.375 145.498 C 328.628 147.211, 335.385 148.894, 343.500 149.514 C 345.700 149.682, 348.680 150.127, 350.122 150.502 C 351.750 150.926, 353.857 150.608, 355.681 149.665 C 358.459 148.229, 359.214 148.353, 369.559 151.945 C 375.577 154.034, 386.350 158.115, 393.500 161.014 C 400.650 163.912, 408.300 166.926, 410.500 167.711 C 415.486 169.491, 427.360 174.754, 440.757 181.124 C 446.398 183.806, 451.258 186, 451.556 186 C 453.516 186, 487.940 203.618, 490.680 206.024 C 494.145 209.066, 498.048 209.994, 497.940 207.750 C 497.907 207.063, 495.391 204.475, 492.349 202 C 485.620 196.526, 476.391 188.676, 473 185.542 C 471.625 184.271, 469.142 182.391, 467.481 181.365 C 464.718 179.658, 430 151.177, 430 150.617 C 430 148.927, 435.371 139.957, 436.215 140.238 C 438.747 141.082, 439.459 143.840, 438.110 147.571 C 436.902 150.912, 436.965 151.409, 438.831 153.275 C 440.839 155.283, 440.961 155.288, 445.688 153.528 C 448.334 152.543, 450.898 151.376, 451.385 150.934 C 451.871 150.492, 453.351 150.839, 454.672 151.705 C 456.925 153.181, 457.229 153.134, 459.558 150.946 L 462.041 148.613 463.577 150.807 C 465.264 153.215, 467.945 153.655, 469.776 151.824 C 470.678 150.922, 471.393 151.046, 472.839 152.355 C 475.673 154.919, 478.590 155.090, 481.179 152.845 C 485.805 148.832, 483.529 135.709, 478.538 137.624 C 476.709 138.326, 475.023 142.517, 474.850 146.797 C 474.728 149.815, 474.623 149.992, 474.284 147.750 C 473.783 144.442, 472.427 144.251, 470.072 147.159 C 468.135 149.551, 466 148.942, 466 145.998 C 466 144.961, 465.043 143.443, 463.874 142.624 C 462.704 141.805, 459.172 138.742, 456.025 135.817 C 440.899 121.760, 422.268 109.906, 398.330 99.105 C 378.700 90.248, 369.543 87.930, 365.887 90.890 C 364.002 92.417, 363.937 92.846, 365.159 95.705 C 367.638 101.507, 376.593 110.505, 400.365 131.082 C 400.841 131.494, 399.998 133.447, 398.492 135.421 C 396.069 138.598, 395.807 139.660, 396.219 144.633 C 396.587 149.068, 397.194 150.645, 399.093 152.105 C 402.337 154.599, 406.671 154.450, 411.518 151.678 C 415.469 149.418, 415.570 149.411, 417.518 151.278 C 418.990 152.688, 420.456 153.052, 423.211 152.689 C 425.811 152.347, 427.307 152.665, 428.210 153.753 C 428.918 154.606, 431.915 157.090, 434.870 159.273 C 437.824 161.456, 441.003 163.975, 441.933 164.871 C 445.517 168.322, 455.822 176.810, 463 182.223 C 470.852 188.143, 477.207 193.465, 475.500 192.691 C 474.950 192.441, 472.250 191.231, 469.500 190 C 466.750 188.770, 461.706 186.467, 458.292 184.882 C 454.877 183.297, 451.869 182, 451.607 182 C 451.346 182, 445.139 179.123, 437.816 175.608 C 430.492 172.092, 418.650 166.898, 411.500 164.065 C 404.350 161.233, 397.150 158.296, 395.500 157.540 C 393.850 156.783, 390.628 155.420, 388.340 154.510 C 385.445 153.358, 383.990 152.096, 383.554 150.358 C 382.968 148.026, 382.552 147.876, 377.214 148.078 C 369.913 148.356, 360.091 145.364, 359.008 142.534 C 357.112 137.579, 353.697 136.318, 347 138.101 C 346.052 138.353, 345.649 137.948, 345.904 137 C 346.127 136.175, 346.517 132.685, 346.771 129.243 C 347.803 115.289, 338.897 117.549, 336.516 131.846 C 336.039 134.710, 335.455 135.855, 334.803 135.203 C 334.158 134.558, 334.153 133.571, 334.791 132.357 C 336.855 128.432, 337.219 122.361, 335.493 120.636 C 331.883 117.026, 329.563 119.019, 325.626 129.114 L 324.216 132.727 319.153 131.173 C 315.537 130.064, 314.005 129.053, 313.795 127.638 C 313.395 124.949, 311.171 124.389, 310.249 126.744 C 309.631 128.322, 308.976 128.512, 306.500 127.834 C 304.850 127.382, 301.977 125.659, 300.114 124.006 C 296.215 120.544, 296.039 120.503, 293.441 122.468 C 292.374 123.276, 290.948 123.951, 290.272 123.968 C 289.597 123.986, 285.937 119.388, 282.138 113.750 C 275.905 104.499, 267.219 95.137, 254.743 84.226 C 249.669 79.788, 249.897 78.268, 255.750 77.498 C 258.363 77.154, 261.138 76.789, 261.917 76.686 C 262.697 76.584, 263.522 75.938, 263.750 75.250 C 264.052 74.344, 262.700 74.037, 258.833 74.136 C 255.900 74.211, 252.520 74.463, 251.323 74.696 M 368.489 93.017 C 366.818 95.721, 377.970 108.139, 394.969 122.500 C 412.765 137.535, 412.017 137.106, 419.882 136.786 C 425.216 136.569, 427.219 136.886, 428.648 138.172 C 430.380 139.731, 430.646 139.721, 432.744 138.015 L 434.987 136.190 431.450 134.103 C 429.505 132.955, 426.920 131.764, 425.707 131.456 C 422.356 130.604, 413.814 124.049, 414.289 122.693 C 415.257 119.933, 428.171 123.247, 439.136 129.069 C 443.443 131.356, 445.326 131.559, 442.500 129.430 C 441.400 128.602, 438.925 126.611, 437 125.007 C 426.962 116.638, 387.160 96.314, 375.500 93.603 C 373.850 93.219, 371.750 92.683, 370.834 92.412 C 369.918 92.141, 368.863 92.413, 368.489 93.017 M 331.218 124.250 C 330.575 125.763, 329.684 127, 329.237 127 C 328.791 127, 328.323 128.350, 328.197 130 C 328.071 131.650, 328.414 133, 328.958 133 C 330.591 133, 333.147 127.063, 332.753 124.184 L 332.386 121.500 331.218 124.250 M 340.897 126.690 C 340.292 128.235, 339.559 131.188, 339.267 133.250 C 338.842 136.252, 339.058 137, 340.349 137 C 341.943 137, 342.323 136.006, 343.473 128.828 C 344.199 124.295, 342.414 122.813, 340.897 126.690 M 425.120 127.453 C 425.369 127.702, 428.481 129.433, 432.036 131.298 C 435.591 133.164, 441.114 136.110, 444.310 137.845 C 450.141 141.011, 454.760 142.039, 453.421 139.871 C 452.680 138.673, 439.122 132.178, 430.598 128.939 C 425.353 126.945, 424.336 126.669, 425.120 127.453 M 292.918 130.750 C 292.743 134.487, 293.181 144.514, 293.534 144.868 C 293.739 145.073, 295.053 144.953, 296.453 144.601 C 299.743 143.775, 299.913 139.854, 296.750 137.741 C 294.595 136.301, 294.574 136.156, 296.250 134.290 C 298.837 131.411, 298.495 129, 295.500 129 C 293.817 129, 292.973 129.572, 292.918 130.750 M 300.667 131.667 C 299.478 132.856, 299.960 136.103, 301.564 137.707 C 302.732 138.875, 303.417 138.983, 304.264 138.136 C 306.440 135.960, 307.979 137.030, 309.104 141.500 C 310.150 145.653, 310.483 146, 313.419 146 C 317.775 146, 325.166 141.138, 324.787 138.522 C 324.557 136.935, 322.600 136.002, 315 133.854 C 305.082 131.051, 301.785 130.548, 300.667 131.667 M 400.462 138.438 C 398.997 141.943, 399.380 147.353, 401.263 149.750 C 403.737 152.899, 411.309 149.889, 412.461 145.298 C 412.992 143.183, 412.415 141.986, 409.354 138.850 C 404.646 134.029, 402.348 133.922, 400.462 138.438 M 329.332 140.578 C 328.548 142.620, 331.380 145.452, 333.422 144.668 C 334.290 144.335, 335 142.924, 335 141.531 C 335 139.490, 334.510 139, 332.469 139 C 331.076 139, 329.665 139.710, 329.332 140.578 M 420.678 139.656 C 419.176 141.158, 420.165 143.746, 423.059 145.885 C 425.497 147.688, 426.411 147.904, 427.559 146.951 C 429.424 145.403, 429.375 144.655, 427.250 142.198 C 425.329 139.976, 421.744 138.589, 420.678 139.656 M 441.225 143.349 C 441.262 145.082, 441.028 147.512, 440.704 148.750 C 440.192 150.707, 440.498 151, 443.057 151 C 444.676 151, 446 150.657, 446 150.237 C 446 149.818, 447.010 149.030, 448.244 148.487 C 452.117 146.784, 451.367 144.663, 446.075 142.349 L 441.156 140.198 441.225 143.349" stroke="none" fill="#ffffff" fill-rule="evenodd"/>
</svg>