<svg width="846" height="136" viewBox="0 0 846 136" fill="none" xmlns="http://www.w3.org/2000/svg">
<path d="M30.7812 39.5625L29.3125 48H6.9375L8.40625 39.5625H30.7812ZM18.6875 2.5L10.7812 48H0.09375L7.96875 2.5H18.6875ZM50.0312 48.625C47.6979 48.5833 45.5729 48.1562 43.6562 47.3438C41.7396 46.5104 40.1146 45.3646 38.7812 43.9062C37.4479 42.4479 36.4583 40.7396 35.8125 38.7812C35.1875 36.8021 34.9583 34.6458 35.125 32.3125L35.25 31.0938C35.5 28.6354 36.0833 26.3438 37 24.2188C37.9167 22.0729 39.1458 20.1979 40.6875 18.5938C42.2292 16.9688 44.0417 15.7083 46.125 14.8125C48.2292 13.9167 50.5833 13.5 53.1875 13.5625C55.5417 13.6042 57.5729 14.0729 59.2812 14.9688C61.0104 15.8646 62.4167 17.0833 63.5 18.625C64.5833 20.1458 65.3333 21.8958 65.75 23.875C66.1875 25.8333 66.2917 27.9167 66.0625 30.125L65.4688 34.4062H38.5938L39.6562 27.8125L56.2188 27.8438L56.4062 26.9375C56.5521 25.9583 56.5104 25.0729 56.2812 24.2812C56.0521 23.4896 55.625 22.8646 55 22.4062C54.375 21.9271 53.5312 21.6667 52.4688 21.625C51.1771 21.6042 50.1042 21.8854 49.25 22.4688C48.4167 23.0521 47.7396 23.8229 47.2188 24.7812C46.7188 25.7396 46.3333 26.7812 46.0625 27.9062C45.7917 29.0104 45.5938 30.0729 45.4688 31.0938L45.3438 32.2812C45.2604 33.3021 45.2917 34.2917 45.4375 35.25C45.5833 36.2083 45.875 37.0729 46.3125 37.8438C46.7708 38.6146 47.3854 39.2396 48.1562 39.7188C48.9271 40.1771 49.8958 40.4271 51.0625 40.4688C52.625 40.5104 54.0833 40.2188 55.4375 39.5938C56.7917 38.9688 58.0104 38.1146 59.0938 37.0312L63.375 42.7188C62.4375 44.1354 61.2292 45.2812 59.75 46.1562C58.2708 47.0104 56.6771 47.6354 54.9688 48.0312C53.2812 48.4479 51.6354 48.6458 50.0312 48.625ZM102.062 38.3125C102.229 37.4375 101.969 36.7708 101.281 36.3125C100.615 35.8333 99.8125 35.4792 98.875 35.25C97.9583 35 97.2188 34.8021 96.6562 34.6562C95.3854 34.3229 94.125 33.8958 92.875 33.375C91.625 32.8333 90.4896 32.1667 89.4688 31.375C88.4688 30.5625 87.6667 29.5938 87.0625 28.4688C86.4792 27.3229 86.2188 25.9896 86.2812 24.4688C86.3438 22.5938 86.8125 20.9688 87.6875 19.5938C88.5833 18.2188 89.7396 17.0833 91.1562 16.1875C92.5729 15.2708 94.1146 14.5938 95.7812 14.1562C97.4688 13.7188 99.1458 13.5208 100.812 13.5625C103.104 13.5833 105.26 13.9896 107.281 14.7812C109.323 15.5729 110.979 16.7812 112.25 18.4062C113.542 20.0312 114.198 22.0938 114.219 24.5938L104 24.5625C104.021 23.75 103.917 23.0417 103.688 22.4375C103.479 21.8333 103.115 21.375 102.594 21.0625C102.073 20.7292 101.365 20.5625 100.469 20.5625C99.8021 20.5625 99.1458 20.6979 98.5 20.9688C97.8542 21.2396 97.2917 21.625 96.8125 22.125C96.3542 22.625 96.0625 23.2292 95.9375 23.9375C95.8125 24.5417 95.8958 25.0521 96.1875 25.4688C96.4792 25.8646 96.875 26.1875 97.375 26.4375C97.875 26.6875 98.3958 26.8958 98.9375 27.0625C99.5 27.2083 100 27.3229 100.438 27.4062C102.333 27.8646 104.167 28.4792 105.938 29.25C107.729 30 109.188 31.0729 110.312 32.4688C111.458 33.8438 112 35.6771 111.938 37.9688C111.875 39.9062 111.354 41.5625 110.375 42.9375C109.396 44.2917 108.135 45.3958 106.594 46.25C105.073 47.0833 103.427 47.6875 101.656 48.0625C99.9062 48.4583 98.2083 48.6458 96.5625 48.625C94.2708 48.5833 92.1042 48.125 90.0625 47.25C88.0208 46.3542 86.3542 45.0625 85.0625 43.375C83.7917 41.6667 83.125 39.5729 83.0625 37.0938L92.5625 37.125C92.5833 38.1042 92.7604 38.9271 93.0938 39.5938C93.4479 40.2396 93.9583 40.7396 94.625 41.0938C95.2917 41.4271 96.1146 41.5938 97.0938 41.5938C97.8229 41.5938 98.5312 41.4896 99.2188 41.2812C99.9271 41.0521 100.531 40.6979 101.031 40.2188C101.552 39.7188 101.896 39.0833 102.062 38.3125ZM131.594 48.625C129.26 48.5833 127.135 48.1562 125.219 47.3438C123.302 46.5104 121.677 45.3646 120.344 43.9062C119.01 42.4479 118.021 40.7396 117.375 38.7812C116.75 36.8021 116.521 34.6458 116.688 32.3125L116.812 31.0938C117.062 28.6354 117.646 26.3438 118.562 24.2188C119.479 22.0729 120.708 20.1979 122.25 18.5938C123.792 16.9688 125.604 15.7083 127.688 14.8125C129.792 13.9167 132.146 13.5 134.75 13.5625C137.104 13.6042 139.135 14.0729 140.844 14.9688C142.573 15.8646 143.979 17.0833 145.062 18.625C146.146 20.1458 146.896 21.8958 147.312 23.875C147.75 25.8333 147.854 27.9167 147.625 30.125L147.031 34.4062H120.156L121.219 27.8125L137.781 27.8438L137.969 26.9375C138.115 25.9583 138.073 25.0729 137.844 24.2812C137.615 23.4896 137.188 22.8646 136.562 22.4062C135.938 21.9271 135.094 21.6667 134.031 21.625C132.74 21.6042 131.667 21.8854 130.812 22.4688C129.979 23.0521 129.302 23.8229 128.781 24.7812C128.281 25.7396 127.896 26.7812 127.625 27.9062C127.354 29.0104 127.156 30.0729 127.031 31.0938L126.906 32.2812C126.823 33.3021 126.854 34.2917 127 35.25C127.146 36.2083 127.438 37.0729 127.875 37.8438C128.333 38.6146 128.948 39.2396 129.719 39.7188C130.49 40.1771 131.458 40.4271 132.625 40.4688C134.188 40.5104 135.646 40.2188 137 39.5938C138.354 38.9688 139.573 38.1146 140.656 37.0312L144.938 42.7188C144 44.1354 142.792 45.2812 141.312 46.1562C139.833 47.0104 138.24 47.6354 136.531 48.0312C134.844 48.4479 133.198 48.6458 131.594 48.625ZM169.406 39.25L173.75 14.1875H184.062L178.188 48H168.594L169.406 39.25ZM171.344 32.875L174 32.8125C173.792 34.7292 173.375 36.6354 172.75 38.5312C172.125 40.4271 171.26 42.1458 170.156 43.6875C169.052 45.2292 167.677 46.4583 166.031 47.375C164.406 48.2708 162.479 48.6979 160.25 48.6562C158.396 48.6146 156.823 48.2604 155.531 47.5938C154.26 46.9271 153.24 46.0208 152.469 44.875C151.698 43.7083 151.177 42.375 150.906 40.875C150.635 39.375 150.583 37.7708 150.75 36.0625L154.406 14.1875H164.688L160.969 36.1875C160.906 36.7917 160.906 37.3542 160.969 37.875C161.052 38.3958 161.208 38.8542 161.438 39.25C161.688 39.625 162.031 39.9271 162.469 40.1562C162.906 40.3854 163.469 40.5104 164.156 40.5312C165.719 40.5938 166.99 40.2708 167.969 39.5625C168.948 38.8333 169.698 37.875 170.219 36.6875C170.76 35.5 171.135 34.2292 171.344 32.875ZM202.969 0L194.656 48H184.344L192.656 0H202.969ZM231.562 21.9062L227.031 48H216.75L222.625 14.1875H232.219L231.562 21.9062ZM229 29.9375L226.781 30.0312C226.99 28.0104 227.417 26.0104 228.062 24.0312C228.729 22.0521 229.646 20.2604 230.812 18.6562C231.979 17.0521 233.427 15.7812 235.156 14.8438C236.885 13.9062 238.906 13.4688 241.219 13.5312C242.927 13.5729 244.344 13.9375 245.469 14.625C246.594 15.2917 247.469 16.1875 248.094 17.3125C248.74 18.4167 249.156 19.6771 249.344 21.0938C249.552 22.4896 249.583 23.9375 249.438 25.4375L245.688 48H235.406L238.938 26.75C239.042 25.875 239.062 25.0521 239 24.2812C238.938 23.5104 238.688 22.8854 238.25 22.4062C237.812 21.9062 237.073 21.6458 236.031 21.625C234.906 21.5833 233.938 21.8229 233.125 22.3438C232.312 22.8438 231.625 23.5104 231.062 24.3438C230.521 25.1771 230.073 26.0833 229.719 27.0625C229.385 28.0417 229.146 29 229 29.9375ZM247.719 29.9375L245 30.0312C245.208 28.0104 245.625 26.0208 246.25 24.0625C246.896 22.0833 247.781 20.2917 248.906 18.6875C250.052 17.0833 251.479 15.8125 253.188 14.875C254.896 13.9375 256.917 13.4896 259.25 13.5312C261.125 13.5938 262.667 14 263.875 14.75C265.083 15.5 266 16.5 266.625 17.75C267.271 19 267.688 20.3958 267.875 21.9375C268.062 23.4792 268.073 25.0729 267.906 26.7188L264.344 48H254.031L257.594 26.6875C257.698 25.8333 257.719 25.0312 257.656 24.2812C257.594 23.5104 257.344 22.8854 256.906 22.4062C256.49 21.9062 255.771 21.6458 254.75 21.625C253.583 21.5833 252.583 21.8125 251.75 22.3125C250.938 22.8125 250.26 23.4792 249.719 24.3125C249.177 25.125 248.75 26.0312 248.438 27.0312C248.125 28.0104 247.885 28.9792 247.719 29.9375ZM288.75 39.5L290.938 25.4375C291.021 24.6875 291.01 23.9688 290.906 23.2812C290.823 22.5938 290.562 22.0312 290.125 21.5938C289.708 21.1354 289.052 20.8958 288.156 20.875C287.344 20.8542 286.656 21 286.094 21.3125C285.531 21.625 285.083 22.0625 284.75 22.625C284.417 23.1875 284.177 23.8333 284.031 24.5625L273.719 24.625C273.802 22.6667 274.323 20.9792 275.281 19.5625C276.24 18.1458 277.469 16.9896 278.969 16.0938C280.469 15.1979 282.104 14.5417 283.875 14.125C285.667 13.7083 287.427 13.5208 289.156 13.5625C291.531 13.6042 293.677 14.1042 295.594 15.0625C297.531 16 299.021 17.3646 300.062 19.1562C301.125 20.9271 301.531 23.0833 301.281 25.625L299.062 39.5C298.875 40.75 298.708 42.0833 298.562 43.5C298.417 44.8958 298.625 46.1979 299.188 47.4062L299.156 48L289.125 48.0312C288.667 46.6771 288.438 45.2708 288.438 43.8125C288.438 42.3542 288.542 40.9167 288.75 39.5ZM292.094 27.3438L291.156 32.9688L287.125 32.9375C286.333 32.9583 285.573 33.0938 284.844 33.3438C284.135 33.5729 283.5 33.9062 282.938 34.3438C282.375 34.7812 281.906 35.3229 281.531 35.9688C281.177 36.6146 280.948 37.3542 280.844 38.1875C280.76 38.75 280.802 39.2604 280.969 39.7188C281.156 40.1562 281.438 40.5104 281.812 40.7812C282.208 41.0521 282.698 41.1979 283.281 41.2188C284.177 41.2396 285.042 41.0729 285.875 40.7188C286.708 40.3646 287.427 39.8646 288.031 39.2188C288.656 38.5729 289.083 37.8229 289.312 36.9688L291.125 41.375C290.583 42.4583 289.958 43.4479 289.25 44.3438C288.562 45.2396 287.781 46.0208 286.906 46.6875C286.052 47.3333 285.094 47.8333 284.031 48.1875C282.969 48.5417 281.792 48.7083 280.5 48.6875C278.646 48.6458 276.938 48.1979 275.375 47.3438C273.812 46.4896 272.573 45.3229 271.656 43.8438C270.74 42.3646 270.312 40.6562 270.375 38.7188C270.458 36.4688 271.01 34.6042 272.031 33.125C273.052 31.6458 274.375 30.4896 276 29.6562C277.646 28.8021 279.427 28.1979 281.344 27.8438C283.281 27.4896 285.198 27.3125 287.094 27.3125L292.094 27.3438ZM323.844 39.25L328.188 14.1875H338.5L332.625 48H323.031L323.844 39.25ZM325.781 32.875L328.438 32.8125C328.229 34.7292 327.812 36.6354 327.188 38.5312C326.562 40.4271 325.698 42.1458 324.594 43.6875C323.49 45.2292 322.115 46.4583 320.469 47.375C318.844 48.2708 316.917 48.6979 314.688 48.6562C312.833 48.6146 311.26 48.2604 309.969 47.5938C308.698 46.9271 307.677 46.0208 306.906 44.875C306.135 43.7083 305.615 42.375 305.344 40.875C305.073 39.375 305.021 37.7708 305.188 36.0625L308.844 14.1875H319.125L315.406 36.1875C315.344 36.7917 315.344 37.3542 315.406 37.875C315.49 38.3958 315.646 38.8542 315.875 39.25C316.125 39.625 316.469 39.9271 316.906 40.1562C317.344 40.3854 317.906 40.5104 318.594 40.5312C320.156 40.5938 321.427 40.2708 322.406 39.5625C323.385 38.8333 324.135 37.875 324.656 36.6875C325.198 35.5 325.573 34.2292 325.781 32.875ZM351.531 40.375L362 14.1875H373.094L357.062 48H350.531L351.531 40.375ZM351.781 14.1875L354.031 41.2812L352.906 48H346.625L341.188 14.1875H351.781ZM388.375 39.5L390.562 25.4375C390.646 24.6875 390.635 23.9688 390.531 23.2812C390.448 22.5938 390.188 22.0312 389.75 21.5938C389.333 21.1354 388.677 20.8958 387.781 20.875C386.969 20.8542 386.281 21 385.719 21.3125C385.156 21.625 384.708 22.0625 384.375 22.625C384.042 23.1875 383.802 23.8333 383.656 24.5625L373.344 24.625C373.427 22.6667 373.948 20.9792 374.906 19.5625C375.865 18.1458 377.094 16.9896 378.594 16.0938C380.094 15.1979 381.729 14.5417 383.5 14.125C385.292 13.7083 387.052 13.5208 388.781 13.5625C391.156 13.6042 393.302 14.1042 395.219 15.0625C397.156 16 398.646 17.3646 399.688 19.1562C400.75 20.9271 401.156 23.0833 400.906 25.625L398.688 39.5C398.5 40.75 398.333 42.0833 398.188 43.5C398.042 44.8958 398.25 46.1979 398.812 47.4062L398.781 48L388.75 48.0312C388.292 46.6771 388.062 45.2708 388.062 43.8125C388.062 42.3542 388.167 40.9167 388.375 39.5ZM391.719 27.3438L390.781 32.9688L386.75 32.9375C385.958 32.9583 385.198 33.0938 384.469 33.3438C383.76 33.5729 383.125 33.9062 382.562 34.3438C382 34.7812 381.531 35.3229 381.156 35.9688C380.802 36.6146 380.573 37.3542 380.469 38.1875C380.385 38.75 380.427 39.2604 380.594 39.7188C380.781 40.1562 381.062 40.5104 381.438 40.7812C381.833 41.0521 382.323 41.1979 382.906 41.2188C383.802 41.2396 384.667 41.0729 385.5 40.7188C386.333 40.3646 387.052 39.8646 387.656 39.2188C388.281 38.5729 388.708 37.8229 388.938 36.9688L390.75 41.375C390.208 42.4583 389.583 43.4479 388.875 44.3438C388.188 45.2396 387.406 46.0208 386.531 46.6875C385.677 47.3333 384.719 47.8333 383.656 48.1875C382.594 48.5417 381.417 48.7083 380.125 48.6875C378.271 48.6458 376.562 48.1979 375 47.3438C373.438 46.4896 372.198 45.3229 371.281 43.8438C370.365 42.3646 369.938 40.6562 370 38.7188C370.083 36.4688 370.635 34.6042 371.656 33.125C372.677 31.6458 374 30.4896 375.625 29.6562C377.271 28.8021 379.052 28.1979 380.969 27.8438C382.906 27.4896 384.823 27.3125 386.719 27.3125L391.719 27.3438ZM419.5 14.1875L413.656 48H403.344L409.219 14.1875H419.5ZM410.125 5.65625C410.083 4.03125 410.625 2.73958 411.75 1.78125C412.896 0.822917 414.24 0.333333 415.781 0.3125C417.26 0.291667 418.573 0.729167 419.719 1.625C420.865 2.5 421.448 3.71875 421.469 5.28125C421.51 6.90625 420.958 8.19792 419.812 9.15625C418.688 10.1146 417.354 10.6042 415.812 10.625C414.333 10.6458 413.021 10.2188 411.875 9.34375C410.75 8.44792 410.167 7.21875 410.125 5.65625ZM438.938 38.3125C439.104 37.4375 438.844 36.7708 438.156 36.3125C437.49 35.8333 436.688 35.4792 435.75 35.25C434.833 35 434.094 34.8021 433.531 34.6562C432.26 34.3229 431 33.8958 429.75 33.375C428.5 32.8333 427.365 32.1667 426.344 31.375C425.344 30.5625 424.542 29.5938 423.938 28.4688C423.354 27.3229 423.094 25.9896 423.156 24.4688C423.219 22.5938 423.688 20.9688 424.562 19.5938C425.458 18.2188 426.615 17.0833 428.031 16.1875C429.448 15.2708 430.99 14.5938 432.656 14.1562C434.344 13.7188 436.021 13.5208 437.688 13.5625C439.979 13.5833 442.135 13.9896 444.156 14.7812C446.198 15.5729 447.854 16.7812 449.125 18.4062C450.417 20.0312 451.073 22.0938 451.094 24.5938L440.875 24.5625C440.896 23.75 440.792 23.0417 440.562 22.4375C440.354 21.8333 439.99 21.375 439.469 21.0625C438.948 20.7292 438.24 20.5625 437.344 20.5625C436.677 20.5625 436.021 20.6979 435.375 20.9688C434.729 21.2396 434.167 21.625 433.688 22.125C433.229 22.625 432.938 23.2292 432.812 23.9375C432.688 24.5417 432.771 25.0521 433.062 25.4688C433.354 25.8646 433.75 26.1875 434.25 26.4375C434.75 26.6875 435.271 26.8958 435.812 27.0625C436.375 27.2083 436.875 27.3229 437.312 27.4062C439.208 27.8646 441.042 28.4792 442.812 29.25C444.604 30 446.062 31.0729 447.188 32.4688C448.333 33.8438 448.875 35.6771 448.812 37.9688C448.75 39.9062 448.229 41.5625 447.25 42.9375C446.271 44.2917 445.01 45.3958 443.469 46.25C441.948 47.0833 440.302 47.6875 438.531 48.0625C436.781 48.4583 435.083 48.6458 433.438 48.625C431.146 48.5833 428.979 48.125 426.938 47.25C424.896 46.3542 423.229 45.0625 421.938 43.375C420.667 41.6667 420 39.5729 419.938 37.0938L429.438 37.125C429.458 38.1042 429.635 38.9271 429.969 39.5938C430.323 40.2396 430.833 40.7396 431.5 41.0938C432.167 41.4271 432.99 41.5938 433.969 41.5938C434.698 41.5938 435.406 41.4896 436.094 41.2812C436.802 41.0521 437.406 40.6979 437.906 40.2188C438.427 39.7188 438.771 39.0833 438.938 38.3125ZM484.281 48.625C481.948 48.5833 479.823 48.1562 477.906 47.3438C475.99 46.5104 474.365 45.3646 473.031 43.9062C471.698 42.4479 470.708 40.7396 470.062 38.7812C469.438 36.8021 469.208 34.6458 469.375 32.3125L469.5 31.0938C469.75 28.6354 470.333 26.3438 471.25 24.2188C472.167 22.0729 473.396 20.1979 474.938 18.5938C476.479 16.9688 478.292 15.7083 480.375 14.8125C482.479 13.9167 484.833 13.5 487.438 13.5625C489.792 13.6042 491.823 14.0729 493.531 14.9688C495.26 15.8646 496.667 17.0833 497.75 18.625C498.833 20.1458 499.583 21.8958 500 23.875C500.438 25.8333 500.542 27.9167 500.312 30.125L499.719 34.4062H472.844L473.906 27.8125L490.469 27.8438L490.656 26.9375C490.802 25.9583 490.76 25.0729 490.531 24.2812C490.302 23.4896 489.875 22.8646 489.25 22.4062C488.625 21.9271 487.781 21.6667 486.719 21.625C485.427 21.6042 484.354 21.8854 483.5 22.4688C482.667 23.0521 481.99 23.8229 481.469 24.7812C480.969 25.7396 480.583 26.7812 480.312 27.9062C480.042 29.0104 479.844 30.0729 479.719 31.0938L479.594 32.2812C479.51 33.3021 479.542 34.2917 479.688 35.25C479.833 36.2083 480.125 37.0729 480.562 37.8438C481.021 38.6146 481.635 39.2396 482.406 39.7188C483.177 40.1771 484.146 40.4271 485.312 40.4688C486.875 40.5104 488.333 40.2188 489.688 39.5938C491.042 38.9688 492.26 38.1146 493.344 37.0312L497.625 42.7188C496.688 44.1354 495.479 45.2812 494 46.1562C492.521 47.0104 490.927 47.6354 489.219 48.0312C487.531 48.4479 485.885 48.6458 484.281 48.625ZM516.031 21.9688L511.5 48H501.219L507.094 14.1875H516.688L516.031 21.9688ZM513.469 29.9375L511.344 30.0625C511.531 28.0417 511.948 26.0417 512.594 24.0625C513.24 22.0625 514.135 20.2604 515.281 18.6562C516.448 17.0521 517.885 15.7917 519.594 14.875C521.323 13.9375 523.354 13.4896 525.688 13.5312C527.583 13.5938 529.135 14 530.344 14.75C531.573 15.5 532.51 16.5 533.156 17.75C533.802 18.9792 534.208 20.375 534.375 21.9375C534.562 23.4792 534.573 25.0729 534.406 26.7188L530.844 48H520.5L524.094 26.625C524.198 25.6458 524.167 24.7812 524 24.0312C523.854 23.2812 523.5 22.6979 522.938 22.2812C522.396 21.8646 521.583 21.6458 520.5 21.625C519.292 21.6042 518.271 21.8333 517.438 22.3125C516.625 22.7917 515.948 23.4479 515.406 24.2812C514.885 25.0938 514.469 26 514.156 27C513.865 27.9792 513.635 28.9583 513.469 29.9375ZM559.688 14.1875L558.406 21.5H538.594L539.875 14.1875H559.688ZM545.469 5.78125H555.75L550.375 37.0312C550.292 37.7604 550.292 38.3646 550.375 38.8438C550.458 39.3021 550.677 39.6562 551.031 39.9062C551.406 40.1354 551.979 40.2708 552.75 40.3125C553.188 40.3333 553.625 40.3229 554.062 40.2812C554.5 40.2396 554.938 40.1979 555.375 40.1562L554.656 47.7812C553.76 48.0729 552.844 48.2812 551.906 48.4062C550.99 48.5312 550.052 48.5938 549.094 48.5938C546.969 48.5521 545.188 48.125 543.75 47.3125C542.333 46.4792 541.302 45.3021 540.656 43.7812C540.031 42.2396 539.812 40.4062 540 38.2812L545.469 5.78125ZM572.531 23.125L568.219 48H557.938L563.812 14.1875H573.375L572.531 23.125ZM583.594 13.9062L582.25 23.7188C581.708 23.6354 581.167 23.5625 580.625 23.5C580.083 23.4375 579.531 23.3958 578.969 23.375C577.823 23.3542 576.781 23.4896 575.844 23.7812C574.927 24.0521 574.125 24.4792 573.438 25.0625C572.771 25.625 572.219 26.3333 571.781 27.1875C571.344 28.0417 571.021 29.0312 570.812 30.1562L569.094 28.9062C569.302 27.3229 569.635 25.6458 570.094 23.875C570.573 22.0833 571.24 20.3958 572.094 18.8125C572.948 17.2292 574.052 15.9479 575.406 14.9688C576.76 13.9688 578.427 13.4688 580.406 13.4688C580.948 13.4688 581.479 13.5104 582 13.5938C582.521 13.6771 583.052 13.7812 583.594 13.9062ZM599.062 39.5L601.25 25.4375C601.333 24.6875 601.323 23.9688 601.219 23.2812C601.135 22.5938 600.875 22.0312 600.438 21.5938C600.021 21.1354 599.365 20.8958 598.469 20.875C597.656 20.8542 596.969 21 596.406 21.3125C595.844 21.625 595.396 22.0625 595.062 22.625C594.729 23.1875 594.49 23.8333 594.344 24.5625L584.031 24.625C584.115 22.6667 584.635 20.9792 585.594 19.5625C586.552 18.1458 587.781 16.9896 589.281 16.0938C590.781 15.1979 592.417 14.5417 594.188 14.125C595.979 13.7083 597.74 13.5208 599.469 13.5625C601.844 13.6042 603.99 14.1042 605.906 15.0625C607.844 16 609.333 17.3646 610.375 19.1562C611.438 20.9271 611.844 23.0833 611.594 25.625L609.375 39.5C609.188 40.75 609.021 42.0833 608.875 43.5C608.729 44.8958 608.938 46.1979 609.5 47.4062L609.469 48L599.438 48.0312C598.979 46.6771 598.75 45.2708 598.75 43.8125C598.75 42.3542 598.854 40.9167 599.062 39.5ZM602.406 27.3438L601.469 32.9688L597.438 32.9375C596.646 32.9583 595.885 33.0938 595.156 33.3438C594.448 33.5729 593.812 33.9062 593.25 34.3438C592.688 34.7812 592.219 35.3229 591.844 35.9688C591.49 36.6146 591.26 37.3542 591.156 38.1875C591.073 38.75 591.115 39.2604 591.281 39.7188C591.469 40.1562 591.75 40.5104 592.125 40.7812C592.521 41.0521 593.01 41.1979 593.594 41.2188C594.49 41.2396 595.354 41.0729 596.188 40.7188C597.021 40.3646 597.74 39.8646 598.344 39.2188C598.969 38.5729 599.396 37.8229 599.625 36.9688L601.438 41.375C600.896 42.4583 600.271 43.4479 599.562 44.3438C598.875 45.2396 598.094 46.0208 597.219 46.6875C596.365 47.3333 595.406 47.8333 594.344 48.1875C593.281 48.5417 592.104 48.7083 590.812 48.6875C588.958 48.6458 587.25 48.1979 585.688 47.3438C584.125 46.4896 582.885 45.3229 581.969 43.8438C581.052 42.3646 580.625 40.6562 580.688 38.7188C580.771 36.4688 581.323 34.6042 582.344 33.125C583.365 31.6458 584.688 30.4896 586.312 29.6562C587.958 28.8021 589.74 28.1979 591.656 27.8438C593.594 27.4896 595.51 27.3125 597.406 27.3125L602.406 27.3438ZM630.531 14.1875L624.656 48H614.344L620.219 14.1875H630.531ZM630.156 0.65625L639.156 9.3125V10L631.375 9.84375L627.281 5.625L621.75 9.8125L613.562 9.9375L613.531 9.1875L624.375 0.65625H630.156ZM645.781 21.9688L641.25 48H630.969L636.844 14.1875H646.438L645.781 21.9688ZM643.219 29.9375L641.094 30.0625C641.281 28.0417 641.698 26.0417 642.344 24.0625C642.99 22.0625 643.885 20.2604 645.031 18.6562C646.198 17.0521 647.635 15.7917 649.344 14.875C651.073 13.9375 653.104 13.4896 655.438 13.5312C657.333 13.5938 658.885 14 660.094 14.75C661.323 15.5 662.26 16.5 662.906 17.75C663.552 18.9792 663.958 20.375 664.125 21.9375C664.312 23.4792 664.323 25.0729 664.156 26.7188L660.594 48H650.25L653.844 26.625C653.948 25.6458 653.917 24.7812 653.75 24.0312C653.604 23.2812 653.25 22.6979 652.688 22.2812C652.146 21.8646 651.333 21.6458 650.25 21.625C649.042 21.6042 648.021 21.8333 647.188 22.3125C646.375 22.7917 645.698 23.4479 645.156 24.2812C644.635 25.0938 644.219 26 643.906 27C643.615 27.9792 643.385 28.9583 643.219 29.9375ZM682.969 48.625C680.635 48.5833 678.51 48.1562 676.594 47.3438C674.677 46.5104 673.052 45.3646 671.719 43.9062C670.385 42.4479 669.396 40.7396 668.75 38.7812C668.125 36.8021 667.896 34.6458 668.062 32.3125L668.188 31.0938C668.438 28.6354 669.021 26.3438 669.938 24.2188C670.854 22.0729 672.083 20.1979 673.625 18.5938C675.167 16.9688 676.979 15.7083 679.062 14.8125C681.167 13.9167 683.521 13.5 686.125 13.5625C688.479 13.6042 690.51 14.0729 692.219 14.9688C693.948 15.8646 695.354 17.0833 696.438 18.625C697.521 20.1458 698.271 21.8958 698.688 23.875C699.125 25.8333 699.229 27.9167 699 30.125L698.406 34.4062H671.531L672.594 27.8125L689.156 27.8438L689.344 26.9375C689.49 25.9583 689.448 25.0729 689.219 24.2812C688.99 23.4896 688.562 22.8646 687.938 22.4062C687.312 21.9271 686.469 21.6667 685.406 21.625C684.115 21.6042 683.042 21.8854 682.188 22.4688C681.354 23.0521 680.677 23.8229 680.156 24.7812C679.656 25.7396 679.271 26.7812 679 27.9062C678.729 29.0104 678.531 30.0729 678.406 31.0938L678.281 32.2812C678.198 33.3021 678.229 34.2917 678.375 35.25C678.521 36.2083 678.812 37.0729 679.25 37.8438C679.708 38.6146 680.323 39.2396 681.094 39.7188C681.865 40.1771 682.833 40.4271 684 40.4688C685.562 40.5104 687.021 40.2188 688.375 39.5938C689.729 38.9688 690.948 38.1146 692.031 37.0312L696.312 42.7188C695.375 44.1354 694.167 45.2812 692.688 46.1562C691.208 47.0104 689.615 47.6354 687.906 48.0312C686.219 48.4479 684.573 48.6458 682.969 48.625ZM715 21.9062L710.469 48H700.188L706.062 14.1875H715.656L715 21.9062ZM712.438 29.9375L710.219 30.0312C710.427 28.0104 710.854 26.0104 711.5 24.0312C712.167 22.0521 713.083 20.2604 714.25 18.6562C715.417 17.0521 716.865 15.7812 718.594 14.8438C720.323 13.9062 722.344 13.4688 724.656 13.5312C726.365 13.5729 727.781 13.9375 728.906 14.625C730.031 15.2917 730.906 16.1875 731.531 17.3125C732.177 18.4167 732.594 19.6771 732.781 21.0938C732.99 22.4896 733.021 23.9375 732.875 25.4375L729.125 48H718.844L722.375 26.75C722.479 25.875 722.5 25.0521 722.438 24.2812C722.375 23.5104 722.125 22.8854 721.688 22.4062C721.25 21.9062 720.51 21.6458 719.469 21.625C718.344 21.5833 717.375 21.8229 716.562 22.3438C715.75 22.8438 715.062 23.5104 714.5 24.3438C713.958 25.1771 713.51 26.0833 713.156 27.0625C712.823 28.0417 712.583 29 712.438 29.9375ZM731.156 29.9375L728.438 30.0312C728.646 28.0104 729.062 26.0208 729.688 24.0625C730.333 22.0833 731.219 20.2917 732.344 18.6875C733.49 17.0833 734.917 15.8125 736.625 14.875C738.333 13.9375 740.354 13.4896 742.688 13.5312C744.562 13.5938 746.104 14 747.312 14.75C748.521 15.5 749.438 16.5 750.062 17.75C750.708 19 751.125 20.3958 751.312 21.9375C751.5 23.4792 751.51 25.0729 751.344 26.7188L747.781 48H737.469L741.031 26.6875C741.135 25.8333 741.156 25.0312 741.094 24.2812C741.031 23.5104 740.781 22.8854 740.344 22.4062C739.927 21.9062 739.208 21.6458 738.188 21.625C737.021 21.5833 736.021 21.8125 735.188 22.3125C734.375 22.8125 733.698 23.4792 733.156 24.3125C732.615 25.125 732.188 26.0312 731.875 27.0312C731.562 28.0104 731.323 28.9792 731.156 29.9375ZM770.344 48.625C768.01 48.5833 765.885 48.1562 763.969 47.3438C762.052 46.5104 760.427 45.3646 759.094 43.9062C757.76 42.4479 756.771 40.7396 756.125 38.7812C755.5 36.8021 755.271 34.6458 755.438 32.3125L755.562 31.0938C755.812 28.6354 756.396 26.3438 757.312 24.2188C758.229 22.0729 759.458 20.1979 761 18.5938C762.542 16.9688 764.354 15.7083 766.438 14.8125C768.542 13.9167 770.896 13.5 773.5 13.5625C775.854 13.6042 777.885 14.0729 779.594 14.9688C781.323 15.8646 782.729 17.0833 783.812 18.625C784.896 20.1458 785.646 21.8958 786.062 23.875C786.5 25.8333 786.604 27.9167 786.375 30.125L785.781 34.4062H758.906L759.969 27.8125L776.531 27.8438L776.719 26.9375C776.865 25.9583 776.823 25.0729 776.594 24.2812C776.365 23.4896 775.938 22.8646 775.312 22.4062C774.688 21.9271 773.844 21.6667 772.781 21.625C771.49 21.6042 770.417 21.8854 769.562 22.4688C768.729 23.0521 768.052 23.8229 767.531 24.7812C767.031 25.7396 766.646 26.7812 766.375 27.9062C766.104 29.0104 765.906 30.0729 765.781 31.0938L765.656 32.2812C765.573 33.3021 765.604 34.2917 765.75 35.25C765.896 36.2083 766.188 37.0729 766.625 37.8438C767.083 38.6146 767.698 39.2396 768.469 39.7188C769.24 40.1771 770.208 40.4271 771.375 40.4688C772.938 40.5104 774.396 40.2188 775.75 39.5938C777.104 38.9688 778.323 38.1146 779.406 37.0312L783.688 42.7188C782.75 44.1354 781.542 45.2812 780.062 46.1562C778.583 47.0104 776.99 47.6354 775.281 48.0312C773.594 48.4479 771.948 48.6458 770.344 48.625ZM802.094 21.9688L797.562 48H787.281L793.156 14.1875H802.75L802.094 21.9688ZM799.531 29.9375L797.406 30.0625C797.594 28.0417 798.01 26.0417 798.656 24.0625C799.302 22.0625 800.198 20.2604 801.344 18.6562C802.51 17.0521 803.948 15.7917 805.656 14.875C807.385 13.9375 809.417 13.4896 811.75 13.5312C813.646 13.5938 815.198 14 816.406 14.75C817.635 15.5 818.573 16.5 819.219 17.75C819.865 18.9792 820.271 20.375 820.438 21.9375C820.625 23.4792 820.635 25.0729 820.469 26.7188L816.906 48H806.562L810.156 26.625C810.26 25.6458 810.229 24.7812 810.062 24.0312C809.917 23.2812 809.562 22.6979 809 22.2812C808.458 21.8646 807.646 21.6458 806.562 21.625C805.354 21.6042 804.333 21.8333 803.5 22.3125C802.688 22.7917 802.01 23.4479 801.469 24.2812C800.948 25.0938 800.531 26 800.219 27C799.927 27.9792 799.698 28.9583 799.531 29.9375ZM845.75 14.1875L844.469 21.5H824.656L825.938 14.1875H845.75ZM831.531 5.78125H841.812L836.438 37.0312C836.354 37.7604 836.354 38.3646 836.438 38.8438C836.521 39.3021 836.74 39.6562 837.094 39.9062C837.469 40.1354 838.042 40.2708 838.812 40.3125C839.25 40.3333 839.688 40.3229 840.125 40.2812C840.562 40.2396 841 40.1979 841.438 40.1562L840.719 47.7812C839.823 48.0729 838.906 48.2812 837.969 48.4062C837.052 48.5312 836.115 48.5938 835.156 48.5938C833.031 48.5521 831.25 48.125 829.812 47.3125C828.396 46.4792 827.365 45.3021 826.719 43.7812C826.094 42.2396 825.875 40.4062 826.062 38.2812L831.531 5.78125ZM16.3438 123.625C14.0104 123.583 11.8854 123.156 9.96875 122.344C8.05208 121.51 6.42708 120.365 5.09375 118.906C3.76042 117.448 2.77083 115.74 2.125 113.781C1.5 111.802 1.27083 109.646 1.4375 107.312L1.5625 106.094C1.8125 103.635 2.39583 101.344 3.3125 99.2188C4.22917 97.0729 5.45833 95.1979 7 93.5938C8.54167 91.9688 10.3542 90.7083 12.4375 89.8125C14.5417 88.9167 16.8958 88.5 19.5 88.5625C21.8542 88.6042 23.8854 89.0729 25.5938 89.9688C27.3229 90.8646 28.7292 92.0833 29.8125 93.625C30.8958 95.1458 31.6458 96.8958 32.0625 98.875C32.5 100.833 32.6042 102.917 32.375 105.125L31.7812 109.406H4.90625L5.96875 102.812L22.5312 102.844L22.7188 101.938C22.8646 100.958 22.8229 100.073 22.5938 99.2812C22.3646 98.4896 21.9375 97.8646 21.3125 97.4062C20.6875 96.9271 19.8438 96.6667 18.7812 96.625C17.4896 96.6042 16.4167 96.8854 15.5625 97.4688C14.7292 98.0521 14.0521 98.8229 13.5312 99.7812C13.0312 100.74 12.6458 101.781 12.375 102.906C12.1042 104.01 11.9062 105.073 11.7812 106.094L11.6562 107.281C11.5729 108.302 11.6042 109.292 11.75 110.25C11.8958 111.208 12.1875 112.073 12.625 112.844C13.0833 113.615 13.6979 114.24 14.4688 114.719C15.2396 115.177 16.2083 115.427 17.375 115.469C18.9375 115.51 20.3958 115.219 21.75 114.594C23.1042 113.969 24.3229 113.115 25.4062 112.031L29.6875 117.719C28.75 119.135 27.5417 120.281 26.0625 121.156C24.5833 122.01 22.9896 122.635 21.2812 123.031C19.5938 123.448 17.9479 123.646 16.3438 123.625ZM52.5625 113.312C52.7292 112.438 52.4688 111.771 51.7812 111.312C51.1146 110.833 50.3125 110.479 49.375 110.25C48.4583 110 47.7188 109.802 47.1562 109.656C45.8854 109.323 44.625 108.896 43.375 108.375C42.125 107.833 40.9896 107.167 39.9688 106.375C38.9688 105.562 38.1667 104.594 37.5625 103.469C36.9792 102.323 36.7188 100.99 36.7812 99.4688C36.8438 97.5938 37.3125 95.9688 38.1875 94.5938C39.0833 93.2188 40.2396 92.0833 41.6562 91.1875C43.0729 90.2708 44.6146 89.5938 46.2812 89.1562C47.9688 88.7188 49.6458 88.5208 51.3125 88.5625C53.6042 88.5833 55.7604 88.9896 57.7812 89.7812C59.8229 90.5729 61.4792 91.7812 62.75 93.4062C64.0417 95.0312 64.6979 97.0938 64.7188 99.5938L54.5 99.5625C54.5208 98.75 54.4167 98.0417 54.1875 97.4375C53.9792 96.8333 53.6146 96.375 53.0938 96.0625C52.5729 95.7292 51.8646 95.5625 50.9688 95.5625C50.3021 95.5625 49.6458 95.6979 49 95.9688C48.3542 96.2396 47.7917 96.625 47.3125 97.125C46.8542 97.625 46.5625 98.2292 46.4375 98.9375C46.3125 99.5417 46.3958 100.052 46.6875 100.469C46.9792 100.865 47.375 101.188 47.875 101.438C48.375 101.688 48.8958 101.896 49.4375 102.062C50 102.208 50.5 102.323 50.9375 102.406C52.8333 102.865 54.6667 103.479 56.4375 104.25C58.2292 105 59.6875 106.073 60.8125 107.469C61.9583 108.844 62.5 110.677 62.4375 112.969C62.375 114.906 61.8542 116.562 60.875 117.938C59.8958 119.292 58.6354 120.396 57.0938 121.25C55.5729 122.083 53.9271 122.688 52.1562 123.062C50.4062 123.458 48.7083 123.646 47.0625 123.625C44.7708 123.583 42.6042 123.125 40.5625 122.25C38.5208 121.354 36.8542 120.062 35.5625 118.375C34.2917 116.667 33.625 114.573 33.5625 112.094L43.0625 112.125C43.0833 113.104 43.2604 113.927 43.5938 114.594C43.9479 115.24 44.4583 115.74 45.125 116.094C45.7917 116.427 46.6146 116.594 47.5938 116.594C48.3229 116.594 49.0312 116.49 49.7188 116.281C50.4271 116.052 51.0312 115.698 51.5312 115.219C52.0521 114.719 52.3958 114.083 52.5625 113.312ZM88.5625 89.1875L87.2812 96.5H67.4688L68.75 89.1875H88.5625ZM74.3438 80.7812H84.625L79.25 112.031C79.1667 112.76 79.1667 113.365 79.25 113.844C79.3333 114.302 79.5521 114.656 79.9062 114.906C80.2812 115.135 80.8542 115.271 81.625 115.312C82.0625 115.333 82.5 115.323 82.9375 115.281C83.375 115.24 83.8125 115.198 84.25 115.156L83.5312 122.781C82.6354 123.073 81.7188 123.281 80.7812 123.406C79.8646 123.531 78.9271 123.594 77.9688 123.594C75.8438 123.552 74.0625 123.125 72.625 122.312C71.2083 121.479 70.1771 120.302 69.5312 118.781C68.9062 117.24 68.6875 115.406 68.875 113.281L74.3438 80.7812ZM117.812 115.531C118.792 115.552 119.635 115.375 120.344 115C121.052 114.604 121.615 114.062 122.031 113.375C122.469 112.667 122.75 111.854 122.875 110.938L132.531 110.906C132.406 113.573 131.625 115.865 130.188 117.781C128.771 119.698 126.948 121.167 124.719 122.188C122.49 123.208 120.094 123.688 117.531 123.625C115.073 123.583 112.958 123.104 111.188 122.188C109.417 121.25 107.979 120 106.875 118.438C105.771 116.854 104.99 115.042 104.531 113C104.094 110.958 103.979 108.802 104.188 106.531L104.281 105.781C104.531 103.406 105.094 101.167 105.969 99.0625C106.865 96.9583 108.052 95.1146 109.531 93.5312C111.01 91.9271 112.76 90.6875 114.781 89.8125C116.823 88.9167 119.115 88.5 121.656 88.5625C124.365 88.6042 126.667 89.2083 128.562 90.375C130.479 91.5417 131.927 93.1354 132.906 95.1562C133.885 97.1771 134.344 99.5104 134.281 102.156L124.625 102.125C124.667 101.229 124.583 100.375 124.375 99.5625C124.188 98.7292 123.812 98.0521 123.25 97.5312C122.688 96.9896 121.875 96.6979 120.812 96.6562C119.583 96.6146 118.583 96.8854 117.812 97.4688C117.042 98.0521 116.427 98.8229 115.969 99.7812C115.531 100.719 115.208 101.729 115 102.812C114.792 103.875 114.635 104.875 114.531 105.812L114.5 106.531C114.417 107.281 114.333 108.167 114.25 109.188C114.188 110.188 114.219 111.167 114.344 112.125C114.49 113.083 114.823 113.885 115.344 114.531C115.865 115.156 116.688 115.49 117.812 115.531ZM151.594 123.625C149.26 123.583 147.135 123.156 145.219 122.344C143.302 121.51 141.677 120.365 140.344 118.906C139.01 117.448 138.021 115.74 137.375 113.781C136.75 111.802 136.521 109.646 136.688 107.312L136.812 106.094C137.062 103.635 137.646 101.344 138.562 99.2188C139.479 97.0729 140.708 95.1979 142.25 93.5938C143.792 91.9688 145.604 90.7083 147.688 89.8125C149.792 88.9167 152.146 88.5 154.75 88.5625C157.104 88.6042 159.135 89.0729 160.844 89.9688C162.573 90.8646 163.979 92.0833 165.062 93.625C166.146 95.1458 166.896 96.8958 167.312 98.875C167.75 100.833 167.854 102.917 167.625 105.125L167.031 109.406H140.156L141.219 102.812L157.781 102.844L157.969 101.938C158.115 100.958 158.073 100.073 157.844 99.2812C157.615 98.4896 157.188 97.8646 156.562 97.4062C155.938 96.9271 155.094 96.6667 154.031 96.625C152.74 96.6042 151.667 96.8854 150.812 97.4688C149.979 98.0521 149.302 98.8229 148.781 99.7812C148.281 100.74 147.896 101.781 147.625 102.906C147.354 104.01 147.156 105.073 147.031 106.094L146.906 107.281C146.823 108.302 146.854 109.292 147 110.25C147.146 111.208 147.438 112.073 147.875 112.844C148.333 113.615 148.948 114.24 149.719 114.719C150.49 115.177 151.458 115.427 152.625 115.469C154.188 115.51 155.646 115.219 157 114.594C158.354 113.969 159.573 113.115 160.656 112.031L164.938 117.719C164 119.135 162.792 120.281 161.312 121.156C159.833 122.01 158.24 122.635 156.531 123.031C154.844 123.448 153.198 123.646 151.594 123.625ZM187.906 75L179.594 123H169.281L177.594 75H187.906ZM206.469 114.25L210.812 89.1875H221.125L215.25 123H205.656L206.469 114.25ZM208.406 107.875L211.062 107.812C210.854 109.729 210.438 111.635 209.812 113.531C209.188 115.427 208.323 117.146 207.219 118.688C206.115 120.229 204.74 121.458 203.094 122.375C201.469 123.271 199.542 123.698 197.312 123.656C195.458 123.615 193.885 123.26 192.594 122.594C191.323 121.927 190.302 121.021 189.531 119.875C188.76 118.708 188.24 117.375 187.969 115.875C187.698 114.375 187.646 112.771 187.812 111.062L191.469 89.1875H201.75L198.031 111.188C197.969 111.792 197.969 112.354 198.031 112.875C198.115 113.396 198.271 113.854 198.5 114.25C198.75 114.625 199.094 114.927 199.531 115.156C199.969 115.385 200.531 115.51 201.219 115.531C202.781 115.594 204.052 115.271 205.031 114.562C206.01 113.833 206.76 112.875 207.281 111.688C207.823 110.5 208.198 109.229 208.406 107.875ZM237.562 89.1875L231.719 123H221.406L227.281 89.1875H237.562ZM228.188 80.6562C228.146 79.0312 228.688 77.7396 229.812 76.7812C230.958 75.8229 232.302 75.3333 233.844 75.3125C235.323 75.2917 236.635 75.7292 237.781 76.625C238.927 77.5 239.51 78.7188 239.531 80.2812C239.573 81.9062 239.021 83.1979 237.875 84.1562C236.75 85.1146 235.417 85.6042 233.875 85.625C232.396 85.6458 231.083 85.2188 229.938 84.3438C228.812 83.4479 228.229 82.2188 228.188 80.6562ZM270.312 136L277.312 95.7188L279.75 89.1875H288.781L280.656 136H270.312ZM255.375 106.625L255.438 105.969C255.688 103.885 256.146 101.802 256.812 99.7188C257.5 97.6354 258.438 95.7396 259.625 94.0312C260.833 92.3229 262.323 90.9688 264.094 89.9688C265.885 88.9479 268 88.4792 270.438 88.5625C272.562 88.625 274.292 89.2292 275.625 90.375C276.958 91.5 277.99 92.9479 278.719 94.7188C279.448 96.4688 279.938 98.3229 280.188 100.281C280.438 102.24 280.542 104.073 280.5 105.781L280.406 106.594C280.094 108.406 279.562 110.312 278.812 112.312C278.062 114.312 277.083 116.188 275.875 117.938C274.667 119.667 273.229 121.073 271.562 122.156C269.896 123.219 267.99 123.719 265.844 123.656C263.573 123.594 261.708 123.042 260.25 122C258.792 120.938 257.667 119.562 256.875 117.875C256.104 116.188 255.604 114.365 255.375 112.406C255.167 110.427 255.167 108.5 255.375 106.625ZM265.75 105.938L265.688 106.594C265.604 107.344 265.542 108.219 265.5 109.219C265.458 110.198 265.51 111.167 265.656 112.125C265.823 113.062 266.167 113.854 266.688 114.5C267.208 115.146 268 115.49 269.062 115.531C270.688 115.615 271.979 115.271 272.938 114.5C273.917 113.708 274.646 112.688 275.125 111.438C275.625 110.167 275.958 108.854 276.125 107.5L276.438 105C276.542 104.104 276.604 103.177 276.625 102.219C276.667 101.26 276.573 100.365 276.344 99.5312C276.135 98.6979 275.719 98.0208 275.094 97.5C274.49 96.9583 273.594 96.6667 272.406 96.625C271.198 96.6042 270.188 96.8958 269.375 97.5C268.562 98.0833 267.906 98.8542 267.406 99.8125C266.927 100.771 266.552 101.792 266.281 102.875C266.031 103.958 265.854 104.979 265.75 105.938ZM309.281 114.25L313.625 89.1875H323.938L318.062 123H308.469L309.281 114.25ZM311.219 107.875L313.875 107.812C313.667 109.729 313.25 111.635 312.625 113.531C312 115.427 311.135 117.146 310.031 118.688C308.927 120.229 307.552 121.458 305.906 122.375C304.281 123.271 302.354 123.698 300.125 123.656C298.271 123.615 296.698 123.26 295.406 122.594C294.135 121.927 293.115 121.021 292.344 119.875C291.573 118.708 291.052 117.375 290.781 115.875C290.51 114.375 290.458 112.771 290.625 111.062L294.281 89.1875H304.562L300.844 111.188C300.781 111.792 300.781 112.354 300.844 112.875C300.927 113.396 301.083 113.854 301.312 114.25C301.562 114.625 301.906 114.927 302.344 115.156C302.781 115.385 303.344 115.51 304.031 115.531C305.594 115.594 306.865 115.271 307.844 114.562C308.823 113.833 309.573 112.875 310.094 111.688C310.635 110.5 311.01 109.229 311.219 107.875ZM340.406 123.625C338.073 123.583 335.948 123.156 334.031 122.344C332.115 121.51 330.49 120.365 329.156 118.906C327.823 117.448 326.833 115.74 326.188 113.781C325.562 111.802 325.333 109.646 325.5 107.312L325.625 106.094C325.875 103.635 326.458 101.344 327.375 99.2188C328.292 97.0729 329.521 95.1979 331.062 93.5938C332.604 91.9688 334.417 90.7083 336.5 89.8125C338.604 88.9167 340.958 88.5 343.562 88.5625C345.917 88.6042 347.948 89.0729 349.656 89.9688C351.385 90.8646 352.792 92.0833 353.875 93.625C354.958 95.1458 355.708 96.8958 356.125 98.875C356.562 100.833 356.667 102.917 356.438 105.125L355.844 109.406H328.969L330.031 102.812L346.594 102.844L346.781 101.938C346.927 100.958 346.885 100.073 346.656 99.2812C346.427 98.4896 346 97.8646 345.375 97.4062C344.75 96.9271 343.906 96.6667 342.844 96.625C341.552 96.6042 340.479 96.8854 339.625 97.4688C338.792 98.0521 338.115 98.8229 337.594 99.7812C337.094 100.74 336.708 101.781 336.438 102.906C336.167 104.01 335.969 105.073 335.844 106.094L335.719 107.281C335.635 108.302 335.667 109.292 335.812 110.25C335.958 111.208 336.25 112.073 336.688 112.844C337.146 113.615 337.76 114.24 338.531 114.719C339.302 115.177 340.271 115.427 341.438 115.469C343 115.51 344.458 115.219 345.812 114.594C347.167 113.969 348.385 113.115 349.469 112.031L353.75 117.719C352.812 119.135 351.604 120.281 350.125 121.156C348.646 122.01 347.052 122.635 345.344 123.031C343.656 123.448 342.01 123.646 340.406 123.625ZM392.531 75L384.219 123H373.906L382.219 75H392.531ZM407.938 75L407.156 80.0938C406.927 81.6354 406.479 83.1146 405.812 84.5312C405.146 85.9271 404.323 87.2396 403.344 88.4688C402.365 89.6771 401.292 90.7812 400.125 91.7812L395.469 89.1875C396.385 87.7292 397.219 86.2812 397.969 84.8438C398.719 83.3854 399.25 81.8021 399.562 80.0938L400.438 75H407.938ZM402.719 106.625L402.781 105.969C403.052 103.531 403.646 101.25 404.562 99.125C405.479 97 406.698 95.1354 408.219 93.5312C409.76 91.9271 411.573 90.6875 413.656 89.8125C415.74 88.9167 418.073 88.5 420.656 88.5625C423.135 88.6042 425.281 89.0833 427.094 90C428.906 90.9167 430.396 92.1667 431.562 93.75C432.729 95.3125 433.552 97.125 434.031 99.1875C434.531 101.229 434.677 103.406 434.469 105.719L434.406 106.406C434.135 108.823 433.531 111.083 432.594 113.188C431.656 115.292 430.417 117.135 428.875 118.719C427.354 120.302 425.552 121.531 423.469 122.406C421.385 123.281 419.062 123.688 416.5 123.625C414.062 123.583 411.927 123.115 410.094 122.219C408.281 121.302 406.792 120.073 405.625 118.531C404.458 116.969 403.625 115.177 403.125 113.156C402.646 111.115 402.51 108.938 402.719 106.625ZM413.062 105.969L413 106.625C412.938 107.479 412.896 108.417 412.875 109.438C412.875 110.438 412.99 111.406 413.219 112.344C413.448 113.26 413.865 114.021 414.469 114.625C415.094 115.208 415.99 115.521 417.156 115.562C418.406 115.604 419.448 115.344 420.281 114.781C421.135 114.219 421.823 113.469 422.344 112.531C422.865 111.594 423.26 110.583 423.531 109.5C423.823 108.417 424.021 107.375 424.125 106.375L424.188 105.719C424.25 104.885 424.281 103.958 424.281 102.938C424.302 101.896 424.198 100.906 423.969 99.9688C423.74 99.0312 423.312 98.2604 422.688 97.6562C422.062 97.0312 421.167 96.6979 420 96.6562C418.75 96.6146 417.698 96.8854 416.844 97.4688C416.01 98.0521 415.333 98.8229 414.812 99.7812C414.292 100.719 413.896 101.74 413.625 102.844C413.354 103.927 413.167 104.969 413.062 105.969ZM450.531 96.9688L446 123H435.719L441.594 89.1875H451.188L450.531 96.9688ZM447.969 104.938L445.844 105.062C446.031 103.042 446.448 101.042 447.094 99.0625C447.74 97.0625 448.635 95.2604 449.781 93.6562C450.948 92.0521 452.385 90.7917 454.094 89.875C455.823 88.9375 457.854 88.4896 460.188 88.5312C462.083 88.5938 463.635 89 464.844 89.75C466.073 90.5 467.01 91.5 467.656 92.75C468.302 93.9792 468.708 95.375 468.875 96.9375C469.062 98.4792 469.073 100.073 468.906 101.719L465.344 123H455L458.594 101.625C458.698 100.646 458.667 99.7812 458.5 99.0312C458.354 98.2812 458 97.6979 457.438 97.2812C456.896 96.8646 456.083 96.6458 455 96.625C453.792 96.6042 452.771 96.8333 451.938 97.3125C451.125 97.7917 450.448 98.4479 449.906 99.2812C449.385 100.094 448.969 101 448.656 102C448.365 102.979 448.135 103.958 447.969 104.938ZM501.406 96.9688L496.875 123H486.594L492.469 89.1875H502.062L501.406 96.9688ZM498.844 104.938L496.719 105.062C496.906 103.042 497.323 101.042 497.969 99.0625C498.615 97.0625 499.51 95.2604 500.656 93.6562C501.823 92.0521 503.26 90.7917 504.969 89.875C506.698 88.9375 508.729 88.4896 511.062 88.5312C512.958 88.5938 514.51 89 515.719 89.75C516.948 90.5 517.885 91.5 518.531 92.75C519.177 93.9792 519.583 95.375 519.75 96.9375C519.938 98.4792 519.948 100.073 519.781 101.719L516.219 123H505.875L509.469 101.625C509.573 100.646 509.542 99.7812 509.375 99.0312C509.229 98.2812 508.875 97.6979 508.312 97.2812C507.771 96.8646 506.958 96.6458 505.875 96.625C504.667 96.6042 503.646 96.8333 502.812 97.3125C502 97.7917 501.323 98.4479 500.781 99.2812C500.26 100.094 499.844 101 499.531 102C499.24 102.979 499.01 103.958 498.844 104.938ZM538.594 123.625C536.26 123.583 534.135 123.156 532.219 122.344C530.302 121.51 528.677 120.365 527.344 118.906C526.01 117.448 525.021 115.74 524.375 113.781C523.75 111.802 523.521 109.646 523.688 107.312L523.812 106.094C524.062 103.635 524.646 101.344 525.562 99.2188C526.479 97.0729 527.708 95.1979 529.25 93.5938C530.792 91.9688 532.604 90.7083 534.688 89.8125C536.792 88.9167 539.146 88.5 541.75 88.5625C544.104 88.6042 546.135 89.0729 547.844 89.9688C549.573 90.8646 550.979 92.0833 552.062 93.625C553.146 95.1458 553.896 96.8958 554.312 98.875C554.75 100.833 554.854 102.917 554.625 105.125L554.031 109.406H527.156L528.219 102.812L544.781 102.844L544.969 101.938C545.115 100.958 545.073 100.073 544.844 99.2812C544.615 98.4896 544.188 97.8646 543.562 97.4062C542.938 96.9271 542.094 96.6667 541.031 96.625C539.74 96.6042 538.667 96.8854 537.812 97.4688C536.979 98.0521 536.302 98.8229 535.781 99.7812C535.281 100.74 534.896 101.781 534.625 102.906C534.354 104.01 534.156 105.073 534.031 106.094L533.906 107.281C533.823 108.302 533.854 109.292 534 110.25C534.146 111.208 534.438 112.073 534.875 112.844C535.333 113.615 535.948 114.24 536.719 114.719C537.49 115.177 538.458 115.427 539.625 115.469C541.188 115.51 542.646 115.219 544 114.594C545.354 113.969 546.573 113.115 547.656 112.031L551.938 117.719C551 119.135 549.792 120.281 548.312 121.156C546.833 122.01 545.24 122.635 543.531 123.031C541.844 123.448 540.198 123.646 538.594 123.625ZM584.125 123H573.781L580 86.4375C580.333 83.875 581.125 81.6771 582.375 79.8438C583.625 78.0104 585.25 76.6146 587.25 75.6562C589.271 74.6771 591.583 74.2083 594.188 74.25C595.062 74.2708 595.927 74.3542 596.781 74.5C597.635 74.625 598.479 74.7812 599.312 74.9688L598.531 82.75C598.135 82.6458 597.729 82.5625 597.312 82.5C596.896 82.4375 596.479 82.3958 596.062 82.375C595.146 82.375 594.292 82.5208 593.5 82.8125C592.729 83.1042 592.073 83.5521 591.531 84.1562C590.99 84.7396 590.625 85.5 590.438 86.4375L584.125 123ZM596.375 89.1875L595.062 96.5H573.656L574.938 89.1875H596.375ZM612.688 114.5L614.875 100.438C614.958 99.6875 614.948 98.9688 614.844 98.2812C614.76 97.5938 614.5 97.0312 614.062 96.5938C613.646 96.1354 612.99 95.8958 612.094 95.875C611.281 95.8542 610.594 96 610.031 96.3125C609.469 96.625 609.021 97.0625 608.688 97.625C608.354 98.1875 608.115 98.8333 607.969 99.5625L597.656 99.625C597.74 97.6667 598.26 95.9792 599.219 94.5625C600.177 93.1458 601.406 91.9896 602.906 91.0938C604.406 90.1979 606.042 89.5417 607.812 89.125C609.604 88.7083 611.365 88.5208 613.094 88.5625C615.469 88.6042 617.615 89.1042 619.531 90.0625C621.469 91 622.958 92.3646 624 94.1562C625.062 95.9271 625.469 98.0833 625.219 100.625L623 114.5C622.812 115.75 622.646 117.083 622.5 118.5C622.354 119.896 622.562 121.198 623.125 122.406L623.094 123L613.062 123.031C612.604 121.677 612.375 120.271 612.375 118.812C612.375 117.354 612.479 115.917 612.688 114.5ZM616.031 102.344L615.094 107.969L611.062 107.938C610.271 107.958 609.51 108.094 608.781 108.344C608.073 108.573 607.438 108.906 606.875 109.344C606.312 109.781 605.844 110.323 605.469 110.969C605.115 111.615 604.885 112.354 604.781 113.188C604.698 113.75 604.74 114.26 604.906 114.719C605.094 115.156 605.375 115.51 605.75 115.781C606.146 116.052 606.635 116.198 607.219 116.219C608.115 116.24 608.979 116.073 609.812 115.719C610.646 115.365 611.365 114.865 611.969 114.219C612.594 113.573 613.021 112.823 613.25 111.969L615.062 116.375C614.521 117.458 613.896 118.448 613.188 119.344C612.5 120.24 611.719 121.021 610.844 121.688C609.99 122.333 609.031 122.833 607.969 123.188C606.906 123.542 605.729 123.708 604.438 123.688C602.583 123.646 600.875 123.198 599.312 122.344C597.75 121.49 596.51 120.323 595.594 118.844C594.677 117.365 594.25 115.656 594.312 113.719C594.396 111.469 594.948 109.604 595.969 108.125C596.99 106.646 598.312 105.49 599.938 104.656C601.583 103.802 603.365 103.198 605.281 102.844C607.219 102.49 609.135 102.312 611.031 102.312L616.031 102.344ZM643.812 89.1875L637.969 123H627.656L633.531 89.1875H643.812ZM634.438 80.6562C634.396 79.0312 634.938 77.7396 636.062 76.7812C637.208 75.8229 638.552 75.3333 640.094 75.3125C641.573 75.2917 642.885 75.7292 644.031 76.625C645.177 77.5 645.76 78.7188 645.781 80.2812C645.823 81.9062 645.271 83.1979 644.125 84.1562C643 85.1146 641.667 85.6042 640.125 85.625C638.646 85.6458 637.333 85.2188 636.188 84.3438C635.062 83.4479 634.479 82.2188 634.438 80.6562ZM667.375 89.1875L666.094 96.5H646.281L647.562 89.1875H667.375ZM653.156 80.7812H663.438L658.062 112.031C657.979 112.76 657.979 113.365 658.062 113.844C658.146 114.302 658.365 114.656 658.719 114.906C659.094 115.135 659.667 115.271 660.438 115.312C660.875 115.333 661.312 115.323 661.75 115.281C662.188 115.24 662.625 115.198 663.062 115.156L662.344 122.781C661.448 123.073 660.531 123.281 659.594 123.406C658.677 123.531 657.74 123.594 656.781 123.594C654.656 123.552 652.875 123.125 651.438 122.312C650.021 121.479 648.99 120.302 648.344 118.781C647.719 117.24 647.5 115.406 647.688 113.281L653.156 80.7812ZM696.375 96.25L689.469 136H679.188L687.312 89.1875H696.844L696.375 96.25ZM714.812 105.5L714.719 106.156C714.49 108.198 714.021 110.26 713.312 112.344C712.625 114.427 711.677 116.333 710.469 118.062C709.281 119.792 707.802 121.177 706.031 122.219C704.26 123.24 702.177 123.719 699.781 123.656C697.677 123.594 695.958 123.01 694.625 121.906C693.292 120.781 692.25 119.365 691.5 117.656C690.771 115.927 690.26 114.104 689.969 112.188C689.698 110.25 689.583 108.448 689.625 106.781L689.719 105.875C690.031 104.042 690.552 102.104 691.281 100.062C692.01 98.0208 692.969 96.125 694.156 94.375C695.344 92.6042 696.771 91.1771 698.438 90.0938C700.104 88.9896 702.042 88.4688 704.25 88.5312C706.562 88.5938 708.458 89.1458 709.938 90.1875C711.417 91.2083 712.542 92.5521 713.312 94.2188C714.083 95.8646 714.573 97.6771 714.781 99.6562C714.99 101.635 715 103.583 714.812 105.5ZM704.469 106.125L704.531 105.469C704.594 104.719 704.646 103.854 704.688 102.875C704.729 101.896 704.667 100.938 704.5 100C704.354 99.0625 704.01 98.2812 703.469 97.6562C702.948 97.0104 702.146 96.6667 701.062 96.625C699.792 96.5625 698.729 96.7604 697.875 97.2188C697.021 97.6771 696.323 98.3125 695.781 99.125C695.26 99.9375 694.854 100.854 694.562 101.875C694.271 102.875 694.062 103.906 693.938 104.969L693.656 107.531C693.51 108.719 693.479 109.927 693.562 111.156C693.646 112.365 694 113.385 694.625 114.219C695.271 115.052 696.354 115.49 697.875 115.531C699.083 115.552 700.083 115.26 700.875 114.656C701.688 114.052 702.333 113.26 702.812 112.281C703.312 111.302 703.688 110.271 703.938 109.188C704.188 108.083 704.365 107.062 704.469 106.125ZM734.875 114.5L737.062 100.438C737.146 99.6875 737.135 98.9688 737.031 98.2812C736.948 97.5938 736.688 97.0312 736.25 96.5938C735.833 96.1354 735.177 95.8958 734.281 95.875C733.469 95.8542 732.781 96 732.219 96.3125C731.656 96.625 731.208 97.0625 730.875 97.625C730.542 98.1875 730.302 98.8333 730.156 99.5625L719.844 99.625C719.927 97.6667 720.448 95.9792 721.406 94.5625C722.365 93.1458 723.594 91.9896 725.094 91.0938C726.594 90.1979 728.229 89.5417 730 89.125C731.792 88.7083 733.552 88.5208 735.281 88.5625C737.656 88.6042 739.802 89.1042 741.719 90.0625C743.656 91 745.146 92.3646 746.188 94.1562C747.25 95.9271 747.656 98.0833 747.406 100.625L745.188 114.5C745 115.75 744.833 117.083 744.688 118.5C744.542 119.896 744.75 121.198 745.312 122.406L745.281 123L735.25 123.031C734.792 121.677 734.562 120.271 734.562 118.812C734.562 117.354 734.667 115.917 734.875 114.5ZM738.219 102.344L737.281 107.969L733.25 107.938C732.458 107.958 731.698 108.094 730.969 108.344C730.26 108.573 729.625 108.906 729.062 109.344C728.5 109.781 728.031 110.323 727.656 110.969C727.302 111.615 727.073 112.354 726.969 113.188C726.885 113.75 726.927 114.26 727.094 114.719C727.281 115.156 727.562 115.51 727.938 115.781C728.333 116.052 728.823 116.198 729.406 116.219C730.302 116.24 731.167 116.073 732 115.719C732.833 115.365 733.552 114.865 734.156 114.219C734.781 113.573 735.208 112.823 735.438 111.969L737.25 116.375C736.708 117.458 736.083 118.448 735.375 119.344C734.688 120.24 733.906 121.021 733.031 121.688C732.177 122.333 731.219 122.833 730.156 123.188C729.094 123.542 727.917 123.708 726.625 123.688C724.771 123.646 723.062 123.198 721.5 122.344C719.938 121.49 718.698 120.323 717.781 118.844C716.865 117.365 716.438 115.656 716.5 113.719C716.583 111.469 717.135 109.604 718.156 108.125C719.177 106.646 720.5 105.49 722.125 104.656C723.771 103.802 725.552 103.198 727.469 102.844C729.406 102.49 731.323 102.312 733.219 102.312L738.219 102.344ZM768.375 113.312C768.542 112.438 768.281 111.771 767.594 111.312C766.927 110.833 766.125 110.479 765.188 110.25C764.271 110 763.531 109.802 762.969 109.656C761.698 109.323 760.438 108.896 759.188 108.375C757.938 107.833 756.802 107.167 755.781 106.375C754.781 105.562 753.979 104.594 753.375 103.469C752.792 102.323 752.531 100.99 752.594 99.4688C752.656 97.5938 753.125 95.9688 754 94.5938C754.896 93.2188 756.052 92.0833 757.469 91.1875C758.885 90.2708 760.427 89.5938 762.094 89.1562C763.781 88.7188 765.458 88.5208 767.125 88.5625C769.417 88.5833 771.573 88.9896 773.594 89.7812C775.635 90.5729 777.292 91.7812 778.562 93.4062C779.854 95.0312 780.51 97.0938 780.531 99.5938L770.312 99.5625C770.333 98.75 770.229 98.0417 770 97.4375C769.792 96.8333 769.427 96.375 768.906 96.0625C768.385 95.7292 767.677 95.5625 766.781 95.5625C766.115 95.5625 765.458 95.6979 764.812 95.9688C764.167 96.2396 763.604 96.625 763.125 97.125C762.667 97.625 762.375 98.2292 762.25 98.9375C762.125 99.5417 762.208 100.052 762.5 100.469C762.792 100.865 763.188 101.188 763.688 101.438C764.188 101.688 764.708 101.896 765.25 102.062C765.812 102.208 766.312 102.323 766.75 102.406C768.646 102.865 770.479 103.479 772.25 104.25C774.042 105 775.5 106.073 776.625 107.469C777.771 108.844 778.312 110.677 778.25 112.969C778.188 114.906 777.667 116.562 776.688 117.938C775.708 119.292 774.448 120.396 772.906 121.25C771.385 122.083 769.74 122.688 767.969 123.062C766.219 123.458 764.521 123.646 762.875 123.625C760.583 123.583 758.417 123.125 756.375 122.25C754.333 121.354 752.667 120.062 751.375 118.375C750.104 116.667 749.438 114.573 749.375 112.094L758.875 112.125C758.896 113.104 759.073 113.927 759.406 114.594C759.76 115.24 760.271 115.74 760.938 116.094C761.604 116.427 762.427 116.594 763.406 116.594C764.135 116.594 764.844 116.49 765.531 116.281C766.24 116.052 766.844 115.698 767.344 115.219C767.865 114.719 768.208 114.083 768.375 113.312ZM782.719 118.25C782.677 116.646 783.219 115.333 784.344 114.312C785.469 113.271 786.812 112.75 788.375 112.75C789.875 112.729 791.177 113.198 792.281 114.156C793.385 115.094 793.958 116.333 794 117.875C794.042 119.479 793.5 120.802 792.375 121.844C791.25 122.865 789.906 123.375 788.344 123.375C786.865 123.396 785.562 122.938 784.438 122C783.333 121.042 782.76 119.792 782.719 118.25Z" fill="url(#paint0_linear_649_752)" fill-opacity="0.15"/>
<defs>
<linearGradient id="paint0_linear_649_752" x1="0" y1="64" x2="1223" y2="64" gradientUnits="userSpaceOnUse">
<stop stop-color="#818181"/>
<stop offset="1" stop-color="#1B1B1B"/>
</linearGradient>
</defs>
</svg>
