<svg width="15" height="13" viewBox="0 0 15 13" fill="none" xmlns="http://www.w3.org/2000/svg">
<path d="M1.83341 12.1654C1.44383 12.1654 1.11032 12.0266 0.832894 11.7492C0.555463 11.4718 0.416748 11.1383 0.416748 10.7487V2.2487C0.416748 1.85911 0.555463 1.52561 0.832894 1.24818C1.11032 0.970747 1.44383 0.832031 1.83341 0.832031H13.1667C13.5563 0.832031 13.8898 0.970747 14.1673 1.24818C14.4447 1.52561 14.5834 1.85911 14.5834 2.2487V10.7487C14.5834 11.1383 14.4447 11.4718 14.1673 11.7492C13.8898 12.0266 13.5563 12.1654 13.1667 12.1654H1.83341ZM7.50008 7.20703L1.83341 3.66536V10.7487H13.1667V3.66536L7.50008 7.20703ZM7.50008 5.79036L13.1667 2.2487H1.83341L7.50008 5.79036ZM1.83341 3.66536V2.2487V10.7487V3.66536Z" fill="white" fill-opacity="0.5"/>
</svg>
