<svg width="27" height="27" viewBox="0 0 27 27" fill="none" xmlns="http://www.w3.org/2000/svg">
<path d="M13.5002 0.726562C6.45995 0.726562 0.740234 6.40682 0.740234 13.3986C0.740234 20.3903 6.45995 26.0706 13.5002 26.0706C20.5405 26.0706 26.2602 20.3903 26.2602 13.3986C26.2602 6.40682 20.5405 0.726562 13.5002 0.726562ZM10.2015 2.34656L13.5002 5.62256L16.799 2.34656C19.3387 3.0917 21.512 4.68282 22.9977 6.78356L21.3302 10.8066L25.1002 13.3806C25.1002 13.3866 25.1002 13.3925 25.1002 13.3986C25.1002 16.1234 24.1513 18.6276 22.5627 20.5986H19.3002L18.1765 23.9466C16.7466 24.5716 15.1646 24.9186 13.5002 24.9186C11.8359 24.9186 10.2539 24.5716 8.82398 23.9466L7.70023 20.5986H4.43773C2.84919 18.6276 1.90023 16.1234 1.90023 13.3986C1.90023 13.3925 1.90023 13.3866 1.90023 13.3806L5.67023 10.8066L4.00273 6.78356C5.48846 4.68282 7.66174 3.0917 10.2015 2.34656ZM13.5002 9.07856L8.86023 12.2466L10.6002 17.7186H16.4002L18.1402 12.2466L13.5002 9.07856Z" fill="#373737"/>
</svg>
