<svg width="13" height="15" viewBox="0 0 13 15" fill="none" xmlns="http://www.w3.org/2000/svg">
<path d="M6.50016 7.4974C6.88975 7.4974 7.22325 7.35868 7.50068 7.08125C7.77811 6.80382 7.91683 6.47031 7.91683 6.08073C7.91683 5.69115 7.77811 5.35764 7.50068 5.08021C7.22325 4.80278 6.88975 4.66406 6.50016 4.66406C6.11058 4.66406 5.77707 4.80278 5.49964 5.08021C5.22221 5.35764 5.0835 5.69115 5.0835 6.08073C5.0835 6.47031 5.22221 6.80382 5.49964 7.08125C5.77707 7.35868 6.11058 7.4974 6.50016 7.4974ZM6.50016 12.7036C7.94044 11.3814 9.00884 10.1802 9.70537 9.1C10.4019 8.01979 10.7502 7.06059 10.7502 6.2224C10.7502 4.93559 10.3399 3.88194 9.51943 3.06146C8.69895 2.24097 7.69252 1.83073 6.50016 1.83073C5.3078 1.83073 4.30138 2.24097 3.48089 3.06146C2.66041 3.88194 2.25016 4.93559 2.25016 6.2224C2.25016 7.06059 2.59843 8.01979 3.29495 9.1C3.99148 10.1802 5.05988 11.3814 6.50016 12.7036ZM6.50016 14.5807C4.59947 12.9634 3.17985 11.4611 2.24131 10.074C1.30277 8.68681 0.833496 7.40295 0.833496 6.2224C0.833496 4.45156 1.40311 3.0408 2.54235 1.9901C3.68159 0.93941 5.00086 0.414062 6.50016 0.414062C7.99947 0.414062 9.31874 0.93941 10.458 1.9901C11.5972 3.0408 12.1668 4.45156 12.1668 6.2224C12.1668 7.40295 11.6976 8.68681 10.759 10.074C9.82047 11.4611 8.40086 12.9634 6.50016 14.5807Z" fill="#2F2F2F" fill-opacity="0.5"/>
</svg>
