<svg width="21" height="27" viewBox="0 0 21 27" fill="none" xmlns="http://www.w3.org/2000/svg">
<path d="M0.251301 0.584638C6.42491 1.61797 11.3711 3.31866 15.0898 5.68672C18.8086 8.05478 20.668 10.7027 20.668 13.6305C20.668 15.5895 19.793 17.4463 18.043 19.2008C16.293 20.9553 13.8138 22.4999 10.6055 23.8346L20.668 23.8346L20.668 26.418L0.251303 26.418L0.251302 17.3763L6.08464 17.3763L6.08464 22.1555C8.85547 21.0576 11.0065 19.7713 12.5378 18.2966C14.069 16.822 14.8346 15.2666 14.8346 13.6305C14.8346 11.4346 13.5221 9.41641 10.8971 7.57578C8.27213 5.73516 4.72352 4.34123 0.251301 3.39401L0.251301 0.584638Z" fill="white"/>
</svg>
