<svg width="13" height="15" viewBox="0 0 13 15" fill="none" xmlns="http://www.w3.org/2000/svg">
<path d="M6.49992 7.5013C6.8895 7.5013 7.22301 7.36259 7.50044 7.08516C7.77787 6.80773 7.91658 6.47422 7.91658 6.08464C7.91658 5.69505 7.77787 5.36155 7.50044 5.08412C7.22301 4.80668 6.8895 4.66797 6.49992 4.66797C6.11034 4.66797 5.77683 4.80668 5.4994 5.08412C5.22197 5.36155 5.08325 5.69505 5.08325 6.08464C5.08325 6.47422 5.22197 6.80773 5.4994 7.08516C5.77683 7.36259 6.11034 7.5013 6.49992 7.5013ZM6.49992 12.7076C7.9402 11.3853 9.0086 10.1841 9.70513 9.10391C10.4017 8.0237 10.7499 7.0645 10.7499 6.2263C10.7499 4.9395 10.3397 3.88585 9.51919 3.06536C8.6987 2.24488 7.69228 1.83464 6.49992 1.83464C5.30756 1.83464 4.30113 2.24488 3.48065 3.06536C2.66016 3.88585 2.24992 4.9395 2.24992 6.2263C2.24992 7.0645 2.59818 8.0237 3.29471 9.10391C3.99124 10.1841 5.05964 11.3853 6.49992 12.7076ZM6.49992 14.5846C4.59922 12.9673 3.17961 11.465 2.24106 10.0779C1.30252 8.69071 0.833252 7.40686 0.833252 6.2263C0.833252 4.45547 1.40287 3.04471 2.54211 1.99401C3.68134 0.943316 5.00061 0.417969 6.49992 0.417969C7.99922 0.417969 9.31849 0.943316 10.4577 1.99401C11.597 3.04471 12.1666 4.45547 12.1666 6.2263C12.1666 7.40686 11.6973 8.69071 10.7588 10.0779C9.82023 11.465 8.40061 12.9673 6.49992 14.5846Z" fill="white" fill-opacity="0.5"/>
</svg>
