<svg width="35" height="53" viewBox="0 0 35 53" fill="none" xmlns="http://www.w3.org/2000/svg">
<path d="M3.60319 41.0105H2.90523C1.84887 41.0105 1 40.1633 1 39.109V14.296C1 13.2417 1.84887 12.3945 2.90523 12.3945H3.60319C4.65956 12.3945 5.50842 13.2417 5.50842 14.296V39.0902C5.50842 40.1445 4.65956 41.0105 3.60319 41.0105Z" stroke="white" stroke-width="0.4" stroke-miterlimit="10"/>
<path d="M9.03581 44.7022H7.6399C6.47035 44.7022 5.5083 43.742 5.5083 42.5748V10.8149C5.5083 9.64764 6.47035 8.6875 7.6399 8.6875H9.03581C10.2054 8.6875 11.1674 9.64764 11.1674 10.8149V42.5748C11.1863 43.742 10.2242 44.7022 9.03581 44.7022Z" stroke="white" stroke-width="0.4" stroke-miterlimit="10"/>
<path d="M23.9783 25.1875H11.1887V28.1997H23.9783V25.1875Z" stroke="white" stroke-width="0.4" stroke-miterlimit="10"/>
<path d="M31.5601 41.0105H32.2581C33.3145 41.0105 34.1633 40.1633 34.1633 39.109V14.296C34.1633 13.2417 33.3145 12.3945 32.2581 12.3945H31.5601C30.5038 12.3945 29.6549 13.2417 29.6549 14.296V39.0902C29.6549 40.1445 30.5038 41.0105 31.5601 41.0105Z" stroke="white" stroke-miterlimit="10"/>
<path d="M26.1094 44.7022H27.5053C28.6748 44.7022 29.6369 43.742 29.6369 42.5748V10.8149C29.6369 9.64764 28.6748 8.6875 27.5053 8.6875H26.1094C24.9398 8.6875 23.9778 9.64764 23.9778 10.8149V42.5748C23.9778 43.742 24.9398 44.7022 26.1094 44.7022Z" stroke="white" stroke-miterlimit="10"/>
<path d="M23.9775 10.7144V1" stroke="white" stroke-miterlimit="10" stroke-linecap="round"/>
<path d="M34.1618 39.1992V50.6268C34.1618 51.2669 33.5959 51.7752 32.879 51.7752H28.0877C27.3897 51.7752 26.8049 51.2669 26.8049 50.6268V49.516" stroke="white" stroke-miterlimit="10" stroke-linecap="round"/>
<path d="M20.129 15.7531V9.57809C20.129 8.938 19.5631 8.42969 18.8462 8.42969H16.3185C15.6205 8.42969 15.0358 8.938 15.0358 9.57809V18.8595C15.0358 18.9159 15.0546 18.9724 15.0735 19.0289L16.5449 23.0765" stroke="#FF00AA" stroke-width="2" stroke-miterlimit="10" stroke-linecap="round"/>
<path d="M15.0358 37.026V43.2011C15.0358 43.8411 15.6017 44.3495 16.3185 44.3495H18.8651C19.5631 44.3495 20.1478 43.8411 20.1478 43.2011V33.9197C20.1478 33.8632 20.129 33.8067 20.1101 33.7503L19.2614 31.3242" stroke="#FF00AA" stroke-width="2" stroke-miterlimit="10" stroke-linecap="round"/>
</svg>
